Commissioner-Bold.ufo
<glyph name="numbersign" format="2">
  <advance width="1398.578947368421"/>
  <unicode hex="0023"/>
  <outline>
    <contour>
      <point x="26.842105263157894" y="259.10526315789474" type="line"/>
      <point x="165.21052631578948" y="259.10526315789474"/>
      <point x="296.2631578947368" y="259.10526315789474"/>
      <point x="410.0" y="259.10526315789474" type="curve"/>
      <point x="888.9473684210526" y="259.10526315789474" type="line"/>
      <point x="1002.6842105263158" y="259.10526315789474"/>
      <point x="1133.7368421052631" y="259.10526315789474"/>
      <point x="1272.1052631578948" y="259.10526315789474" type="curve"/>
      <point x="1272.1052631578948" y="488.7894736842105" type="line"/>
      <point x="1133.7368421052631" y="488.7894736842105"/>
      <point x="1002.6842105263158" y="488.7894736842105"/>
      <point x="888.9473684210526" y="488.7894736842105" type="curve"/>
      <point x="410.0" y="488.7894736842105" type="line"/>
      <point x="296.2631578947368" y="488.7894736842105"/>
      <point x="165.21052631578948" y="488.7894736842105"/>
      <point x="26.842105263157894" y="488.7894736842105" type="curve"/>
    </contour>
    <contour>
      <point x="210.0" y="0.0" type="curve"/>
      <point x="444.36842105263156" y="0.0" type="line"/>
      <point x="470.42105263157896" y="138.0"/>
      <point x="491.7894736842105" y="261.8421052631579"/>
      <point x="522.5263157894738" y="431.1578947368421" type="curve"/>
      <point x="604.7368421052631" y="890.3684210526316" type="line"/>
      <point x="636.1578947368421" y="1072.3157894736842"/>
      <point x="656.8947368421053" y="1187.0526315789473"/>
      <point x="682.9473684210526" y="1332.3157894736842" type="curve"/>
      <point x="448.57894736842104" y="1332.3157894736842" type="line"/>
      <point x="422.52631578947364" y="1181.7894736842106"/>
      <point x="401.7894736842105" y="1068.3684210526317"/>
      <point x="370.36842105263156" y="891.7368421052631" type="curve"/>
      <point x="288.1578947368421" y="431.1578947368421" type="line"/>
      <point x="257.42105263157896" y="259.2105263157895"/>
      <point x="234.73684210526315" y="132.73684210526315"/>
    </contour>
    <contour>
      <point x="126.47368421052632" y="837.5263157894736" type="line"/>
      <point x="264.8421052631579" y="837.5263157894736"/>
      <point x="395.89473684210526" y="837.5263157894736"/>
      <point x="509.63157894736844" y="837.5263157894736" type="curve"/>
      <point x="988.578947368421" y="837.5263157894736" type="line"/>
      <point x="1102.3157894736842" y="837.5263157894736"/>
      <point x="1233.3684210526317" y="837.5263157894736"/>
      <point x="1371.7368421052631" y="837.5263157894736" type="curve"/>
      <point x="1371.7368421052631" y="1067.2105263157896" type="line"/>
      <point x="1233.3684210526317" y="1067.2105263157896"/>
      <point x="1102.3157894736842" y="1067.2105263157896"/>
      <point x="988.578947368421" y="1067.2105263157896" type="curve"/>
      <point x="509.63157894736844" y="1067.2105263157896" type="line"/>
      <point x="395.89473684210526" y="1067.2105263157896"/>
      <point x="264.8421052631579" y="1067.2105263157896"/>
      <point x="126.47368421052632" y="1067.2105263157896" type="curve"/>
    </contour>
    <contour>
      <point x="709.4736842105264" y="0.0" type="curve"/>
      <point x="943.8421052631579" y="0.0" type="line"/>
      <point x="969.8947368421052" y="138.0"/>
      <point x="991.2631578947369" y="261.8421052631579"/>
      <point x="1022.0" y="431.1578947368421" type="curve"/>
      <point x="1104.2105263157896" y="890.3684210526316" type="line"/>
      <point x="1135.6315789473683" y="1072.3157894736842"/>
      <point x="1156.3684210526317" y="1187.0526315789473"/>
      <point x="1182.421052631579" y="1332.3157894736842" type="curve"/>
      <point x="948.0526315789474" y="1332.3157894736842" type="line"/>
      <point x="922.0" y="1181.7894736842106"/>
      <point x="901.2631578947369" y="1068.3684210526317"/>
      <point x="869.8421052631579" y="891.7368421052631" type="curve"/>
      <point x="787.6315789473684" y="431.1578947368421" type="line"/>
      <point x="756.8947368421052" y="259.2105263157895"/>
      <point x="734.2105263157895" y="132.73684210526315"/>
    </contour>
  </outline>
</glyph>
<glyph name="dollar" format="2">
  <advance width="1151.3684210526317"/>
  <unicode hex="0024"/>
  <outline>
    <contour>
      <point x="568.1578947368421" y="-25.894736842105264" type="curve" smooth="yes"/>
      <point x="933.8947368421053" y="-25.894736842105264"/>
      <point x="1093.5263157894738" y="138.21052631578948"/>
      <point x="1093.5263157894738" y="393.4736842105263" type="curve" smooth="yes"/>
      <point x="1093.5263157894738" y="608.9473684210526"/>
      <point x="988.8947368421053" y="708.8947368421053"/>
      <point x="664.8421052631579" y="804.421052631579" type="curve" smooth="yes"/>
      <point x="496.8421052631579" y="856.2631578947369"/>
      <point x="424.94736842105266" y="891.2631578947369"/>
      <point x="424.94736842105266" y="984.1578947368421" type="curve" smooth="yes"/>
      <point x="424.94736842105266" y="1088.1052631578948"/>
      <point x="512.0" y="1131.9473684210527"/>
      <point x="622.2631578947369" y="1131.9473684210527" type="curve"/>
      <point x="726.3684210526316" y="1131.9473684210527"/>
      <point x="869.7368421052631" y="1096.0"/>
      <point x="992.2631578947369" y="1021.2631578947369" type="curve"/>
      <point x="1016.1052631578948" y="1301.1052631578948" type="line"/>
      <point x="913.2105263157895" y="1350.4736842105262"/>
      <point x="724.421052631579" y="1397.2631578947369"/>
      <point x="558.5263157894736" y="1397.2631578947369" type="curve" smooth="yes"/>
      <point x="232.6315789473684" y="1397.2631578947369"/>
      <point x="78.05263157894737" y="1228.7894736842106"/>
      <point x="78.05263157894737" y="986.7894736842105" type="curve" smooth="yes"/>
      <point x="78.05263157894737" y="753.9473684210526"/>
      <point x="220.8421052631579" y="658.7894736842105"/>
      <point x="467.7894736842105" y="587.8947368421052" type="curve" smooth="yes"/>
      <point x="636.7894736842105" y="538.1578947368421"/>
      <point x="747.9473684210526" y="497.7894736842105"/>
      <point x="747.9473684210526" y="394.1578947368421" type="curve" smooth="yes"/>
      <point x="747.9473684210526" y="280.63157894736844"/>
      <point x="666.8421052631579" y="234.1578947368421"/>
      <point x="541.8421052631579" y="234.1578947368421" type="curve"/>
      <point x="414.05263157894734" y="234.1578947368421"/>
      <point x="256.36842105263156" y="276.8421052631579"/>
      <point x="123.78947368421052" y="347.47368421052636" type="curve"/>
      <point x="99.3157894736842" y="72.26315789473685" type="line"/>
      <point x="197.78947368421052" y="22.89473684210526"/>
      <point x="396.8421052631579" y="-25.894736842105264"/>
    </contour>
    <contour>
      <point x="474.10526315789474" y="-274.0" type="curve"/>
      <point x="705.1578947368421" y="-274.0" type="line"/>
      <point x="705.1578947368421" y="-131.21052631578948"/>
      <point x="705.1578947368421" y="-1.0"/>
      <point x="705.1578947368421" y="128.5263157894737" type="curve"/>
      <point x="474.10526315789474" y="128.5263157894737" type="line"/>
      <point x="474.10526315789474" y="-1.0"/>
      <point x="474.10526315789474" y="-131.21052631578948"/>
    </contour>
    <contour>
      <point x="474.10526315789474" y="1256.578947368421" type="curve"/>
      <point x="705.1578947368421" y="1256.578947368421" type="line"/>
      <point x="705.1578947368421" y="1368.842105263158"/>
      <point x="705.1578947368421" y="1483.7894736842104"/>
      <point x="705.1578947368421" y="1606.0" type="curve"/>
      <point x="474.10526315789474" y="1606.0" type="line"/>
      <point x="474.10526315789474" y="1483.7894736842104"/>
      <point x="474.10526315789474" y="1368.842105263158"/>
    </contour>
  </outline>
</glyph>
<glyph name="ampersand" format="2">
  <advance width="1534.6796116504854"/>
  <unicode hex="0026"/>
  <outline>
    <contour>
      <point x="1138.990291262136" y="0.0" type="curve"/>
      <point x="1520.7961165048544" y="0.0" type="line"/>
      <point x="1388.6796116504854" y="143.80582524271844"/>
      <point x="1256.0388349514562" y="287.6116504854369"/>
      <point x="1122.6601941747574" y="431.41747572815535" type="curve"/>
      <point x="705.1067961165048" y="877.5145631067961" type="line" smooth="yes"/>
      <point x="615.8640776699029" y="970.9708737864078"/>
      <point x="577.5533980582525" y="1033.9029126213593"/>
      <point x="577.5533980582525" y="1109.0485436893205" type="curve" smooth="yes"/>
      <point x="577.5533980582525" y="1193.0291262135922"/>
      <point x="633.2233009708739" y="1247.747572815534"/>
      <point x="709.5145631067961" y="1247.747572815534" type="curve"/>
      <point x="786.5436893203884" y="1247.747572815534"/>
      <point x="841.7864077669902" y="1188.601941747573"/>
      <point x="841.7864077669902" y="1113.883495145631" type="curve" smooth="yes"/>
      <point x="841.7864077669902" y="1017.8058252427185"/>
      <point x="774.7572815533981" y="952.0194174757281"/>
      <point x="660.5825242718447" y="900.9708737864078" type="curve"/>
      <point x="782.7184466019418" y="745.6893203883495" type="line"/>
      <point x="921.6504854368933" y="808.4271844660194"/>
      <point x="1107.0097087378642" y="905.6893203883495"/>
      <point x="1107.0097087378642" y="1125.7864077669904" type="curve" smooth="yes"/>
      <point x="1107.0097087378642" y="1336.0"/>
      <point x="931.5339805825242" y="1455.4757281553398"/>
      <point x="693.8252427184466" y="1455.4757281553398" type="curve" smooth="yes"/>
      <point x="460.6407766990292" y="1455.4757281553398"/>
      <point x="272.4077669902913" y="1332.9514563106798"/>
      <point x="272.4077669902913" y="1101.883495145631" type="curve" smooth="yes"/>
      <point x="272.4077669902913" y="966.3106796116505"/>
      <point x="341.24271844660194" y="856.3106796116505"/>
      <point x="449.8640776699029" y="738.7378640776699" type="curve" smooth="yes"/>
      <point x="883.8446601941747" y="272.0" type="line"/>
      <point x="968.8932038834952" y="182.0"/>
      <point x="1053.9417475728155" y="88.7378640776699"/>
    </contour>
    <contour>
      <point x="518.9320388349514" y="-24.21359223300971" type="curve" smooth="yes"/>
      <point x="711.2427184466019" y="-24.21359223300971"/>
      <point x="841.9805825242719" y="51.88349514563107"/>
      <point x="951.1262135922331" y="177.5533980582524" type="curve"/>
      <point x="980.6019417475727" y="177.5533980582524" type="line"/>
      <point x="976.2912621359224" y="217.02912621359224" type="line"/>
      <point x="828.5825242718446" y="370.7378640776699" type="line"/>
      <point x="755.9805825242719" y="275.94174757281553"/>
      <point x="668.2135922330098" y="224.1747572815534"/>
      <point x="580.4466019417475" y="224.1747572815534" type="curve"/>
      <point x="444.7961165048544" y="224.1747572815534"/>
      <point x="371.55339805825247" y="307.63106796116506"/>
      <point x="371.55339805825247" y="416.97087378640776" type="curve" smooth="yes"/>
      <point x="371.55339805825247" y="519.4563106796116"/>
      <point x="437.20388349514565" y="601.4368932038835"/>
      <point x="547.1650485436894" y="657.5339805825242" type="curve"/>
      <point x="415.6504854368932" y="831.5728155339806" type="line"/>
      <point x="232.91262135922327" y="750.8349514563107"/>
      <point x="67.76699029126212" y="612.8349514563107"/>
      <point x="67.76699029126212" y="373.2621359223301" type="curve" smooth="yes"/>
      <point x="67.76699029126212" y="149.5728155339806"/>
      <point x="217.98058252427182" y="-24.21359223300971"/>
    </contour>
    <contour>
      <point x="1164.6796116504854" y="343.88349514563106" type="line"/>
      <point x="1265.8446601941748" y="462.93203883495147"/>
      <point x="1363.7475728155339" y="579.4563106796116"/>
      <point x="1463.6504854368932" y="698.504854368932" type="curve"/>
      <point x="1210.3106796116504" y="862.6601941747573" type="line"/>
      <point x="1137.0485436893205" y="747.6116504854369"/>
      <point x="1065.7864077669904" y="634.3495145631068"/>
      <point x="990.0" y="518.0388349514564" type="curve"/>
    </contour>
  </outline>
</glyph>
<glyph name="quotesingle" format="2">
  <advance width="456.7894736842105"/>
  <unicode hex="0027"/>
  <outline>
    <contour>
      <point x="101.05263157894737" y="791.2105263157895" type="curve"/>
      <point x="328.0526315789474" y="793.2105263157895" type="line"/>
      <point x="338.57894736842104" y="1027.8947368421052"/>
      <point x="353.2105263157895" y="1259.9473684210527"/>
      <point x="369.1578947368421" y="1489.3157894736842" type="curve"/>
      <point x="59.94736842105263" y="1482.0526315789473" type="line"/>
      <point x="75.89473684210526" y="1254.0"/>
      <point x="90.52631578947368" y="1023.9473684210526"/>
    </contour>
  </outline>
</glyph>
<glyph name="parenleft" format="2">
  <advance width="829.3157894736842"/>
  <unicode hex="0028"/>
  <outline>
    <contour>
      <point x="580.4736842105264" y="-267.42105263157896" type="curve"/>
      <point x="775.3684210526316" y="-175.57894736842104" type="line"/>
      <point x="579.6842105263158" y="-7.526315789473683"/>
      <point x="404.0" y="242.5263157894737"/>
      <point x="404.0" y="646.6842105263158" type="curve" smooth="yes"/>
      <point x="404.0" y="1051.5263157894738"/>
      <point x="579.6842105263158" y="1300.8947368421052"/>
      <point x="775.3684210526316" y="1468.9473684210527" type="curve"/>
      <point x="580.4736842105264" y="1560.7894736842106" type="line"/>
      <point x="293.05263157894734" y="1384.4736842105262"/>
      <point x="87.36842105263158" y="1079.157894736842"/>
      <point x="87.36842105263158" y="646.6842105263158" type="curve" smooth="yes"/>
      <point x="87.36842105263158" y="216.21052631578948"/>
      <point x="293.05263157894734" y="-91.10526315789474"/>
    </contour>
  </outline>
</glyph>
<glyph name="asterisk" format="2">
  <advance width="988.3684210526316"/>
  <unicode hex="002A"/>
  <outline>
    <contour>
      <point x="840.421052631579" y="710.1578947368421" type="curve"/>
      <point x="941.5263157894736" y="883.8947368421053" type="line"/>
      <point x="803.0" y="951.3684210526316"/>
      <point x="662.4736842105264" y="1016.8421052631579"/>
      <point x="524.6315789473684" y="1084.3157894736842" type="curve"/>
      <point x="397.94736842105266" y="1174.2105263157896"/>
      <point x="273.94736842105266" y="1265.421052631579"/>
      <point x="147.94736842105263" y="1355.3157894736842" type="curve"/>
      <point x="46.84210526315789" y="1181.578947368421" type="line"/>
      <point x="185.3684210526316" y="1114.1052631578948"/>
      <point x="325.89473684210526" y="1048.6315789473683"/>
      <point x="464.42105263157896" y="980.4736842105264" type="curve"/>
      <point x="590.421052631579" y="891.2631578947369"/>
      <point x="714.421052631579" y="800.0526315789474"/>
    </contour>
    <contour>
      <point x="147.94736842105263" y="710.1578947368421" type="line"/>
      <point x="273.94736842105266" y="800.0526315789474"/>
      <point x="397.94736842105266" y="891.2631578947369"/>
      <point x="524.6315789473684" y="981.1578947368421" type="curve"/>
      <point x="662.4736842105264" y="1048.6315789473683"/>
      <point x="803.0" y="1114.1052631578948"/>
      <point x="941.5263157894736" y="1181.578947368421" type="curve"/>
      <point x="840.421052631579" y="1355.3157894736842" type="line"/>
      <point x="714.421052631579" y="1265.421052631579"/>
      <point x="590.421052631579" y="1174.2105263157896"/>
      <point x="464.42105263157896" y="1085.0" type="curve"/>
      <point x="325.89473684210526" y="1016.8421052631579"/>
      <point x="185.3684210526316" y="951.3684210526316"/>
      <point x="46.84210526315789" y="883.8947368421053" type="curve"/>
    </contour>
    <contour>
      <point x="393.10526315789474" y="570.8947368421052" type="curve"/>
      <point x="595.2631578947369" y="570.8947368421052" type="line"/>
      <point x="581.421052631579" y="724.8421052631579"/>
      <point x="568.2105263157895" y="878.7894736842105"/>
      <point x="554.3684210526316" y="1033.421052631579" type="curve"/>
      <point x="568.2105263157895" y="1186.6842105263158"/>
      <point x="581.421052631579" y="1340.6315789473683"/>
      <point x="595.2631578947369" y="1494.578947368421" type="curve"/>
      <point x="393.10526315789474" y="1494.578947368421" type="line"/>
      <point x="406.9473684210526" y="1340.6315789473683"/>
      <point x="420.1578947368421" y="1186.6842105263158"/>
      <point x="434.0" y="1033.421052631579" type="curve"/>
      <point x="420.1578947368421" y="878.7894736842105"/>
      <point x="406.9473684210526" y="724.8421052631579"/>
    </contour>
  </outline>
</glyph>
<glyph name="comma" format="2">
  <advance width="504.3157894736842"/>
  <unicode hex="002C"/>
  <outline>
    <contour>
      <point x="22.89473684210526" y="-314.0" type="curve"/>
      <point x="171.57894736842104" y="-310.6842105263158" type="line"/>
      <point x="291.89473684210526" y="-222.6315789473684"/>
      <point x="428.3157894736842" y="-49.421052631578945"/>
      <point x="428.3157894736842" y="144.57894736842104" type="curve" smooth="yes"/>
      <point x="428.3157894736842" y="251.78947368421052"/>
      <point x="380.6842105263158" y="334.47368421052636"/>
      <point x="266.94736842105266" y="348.3157894736842" type="curve"/>
      <point x="126.89473684210526" y="335.7894736842105" type="line"/>
      <point x="126.89473684210526" y="247.0"/>
      <point x="126.89473684210526" y="158.21052631578948"/>
      <point x="126.89473684210526" y="77.31578947368422" type="curve"/>
      <point x="126.89473684210526" y="-77.73684210526315"/>
      <point x="95.68421052631578" y="-200.05263157894737"/>
    </contour>
  </outline>
</glyph>
<glyph name="period" format="2">
  <advance width="534.578947368421"/>
  <unicode hex="002E"/>
  <outline>
    <contour>
      <point x="266.63157894736844" y="-27.210526315789473" type="curve" smooth="yes"/>
      <point x="387.10526315789474" y="-27.210526315789473"/>
      <point x="459.2631578947369" y="54.15789473684211"/>
      <point x="459.2631578947369" y="160.1578947368421" type="curve" smooth="yes"/>
      <point x="459.2631578947369" y="266.8421052631579"/>
      <point x="387.10526315789474" y="343.57894736842104"/>
      <point x="267.94736842105266" y="343.57894736842104" type="curve" smooth="yes"/>
      <point x="148.1578947368421" y="343.57894736842104"/>
      <point x="75.3157894736842" y="266.8421052631579"/>
      <point x="75.3157894736842" y="160.1578947368421" type="curve" smooth="yes"/>
      <point x="75.3157894736842" y="54.15789473684211"/>
      <point x="148.1578947368421" y="-27.210526315789473"/>
    </contour>
  </outline>
</glyph>
<glyph name="slash" format="2">
  <advance width="910.2105263157895"/>
  <unicode hex="002F"/>
  <outline>
    <contour>
      <point x="28.684210526315788" y="0.0" type="curve"/>
      <point x="330.2105263157895" y="0.0" type="line"/>
      <point x="387.68421052631584" y="148.0"/>
      <point x="435.7894736842105" y="274.0"/>
      <point x="506.63157894736844" y="456.0" type="curve"/>
      <point x="696.421052631579" y="948.0" type="line"/>
      <point x="771.2631578947369" y="1142.0"/>
      <point x="822.0526315789474" y="1272.0"/>
      <point x="881.5263157894736" y="1426.0" type="curve"/>
      <point x="580.0" y="1426.0" type="line"/>
      <point x="520.5263157894736" y="1272.0"/>
      <point x="469.7368421052631" y="1140.6842105263158"/>
      <point x="396.89473684210526" y="952.0" type="curve"/>
      <point x="205.10526315789474" y="456.0" type="line"/>
      <point x="134.26315789473682" y="274.0"/>
      <point x="86.15789473684211" y="148.0"/>
    </contour>
  </outline>
</glyph>
<glyph name="zero" format="2">
  <advance width="1332.0526315789473"/>
  <unicode hex="0030"/>
  <outline>
    <contour>
      <point x="671.6842105263158" y="-25.894736842105264" type="curve" smooth="yes"/>
      <point x="1060.1052631578948" y="-25.894736842105264"/>
      <point x="1248.1052631578948" y="258.57894736842104"/>
      <point x="1248.1052631578948" y="689.3157894736842" type="curve" smooth="yes"/>
      <point x="1248.1052631578948" y="1108.0526315789473"/>
      <point x="1069.421052631579" y="1405.157894736842"/>
      <point x="663.7368421052631" y="1405.157894736842" type="curve" smooth="yes"/>
      <point x="261.42105263157896" y="1405.157894736842"/>
      <point x="83.94736842105263" y="1109.421052631579"/>
      <point x="83.94736842105263" y="688.0" type="curve" smooth="yes"/>
      <point x="83.94736842105263" y="288.4736842105263"/>
      <point x="248.68421052631578" y="-25.894736842105264"/>
    </contour>
    <contour>
      <point x="667.6842105263158" y="242.05263157894737" type="curve"/>
      <point x="484.5263157894737" y="242.05263157894737"/>
      <point x="417.68421052631584" y="427.8421052631579"/>
      <point x="417.68421052631584" y="689.3157894736842" type="curve" smooth="yes"/>
      <point x="417.68421052631584" y="954.6842105263158"/>
      <point x="490.5263157894737" y="1135.8947368421052"/>
      <point x="667.6842105263158" y="1135.8947368421052" type="curve"/>
      <point x="839.4736842105262" y="1135.8947368421052"/>
      <point x="915.6842105263158" y="960.8947368421052"/>
      <point x="915.6842105263158" y="689.3157894736842" type="curve" smooth="yes"/>
      <point x="915.6842105263158" y="429.89473684210526"/>
      <point x="848.2105263157895" y="242.05263157894737"/>
    </contour>
  </outline>
</glyph>
<glyph name="one" format="2">
  <advance width="910.7368421052631"/>
  <unicode hex="0031"/>
  <outline>
    <contour>
      <point x="115.10526315789474" y="872.3684210526316" type="line"/>
      <point x="270.3157894736842" y="947.1578947368421"/>
      <point x="423.5263157894737" y="1022.6315789473684"/>
      <point x="578.7368421052631" y="1097.421052631579" type="curve"/>
      <point x="590.578947368421" y="1385.157894736842" type="line"/>
      <point x="407.0" y="1297.157894736842"/>
      <point x="224.10526315789474" y="1209.842105263158"/>
      <point x="40.526315789473685" y="1121.842105263158" type="curve"/>
    </contour>
    <contour>
      <point x="423.10526315789474" y="0.0" type="curve"/>
      <point x="746.2631578947369" y="0.0" type="line"/>
      <point x="746.2631578947369" y="142.10526315789474"/>
      <point x="746.2631578947369" y="265.5263157894737"/>
      <point x="746.2631578947369" y="431.4736842105263" type="curve"/>
      <point x="746.2631578947369" y="896.6315789473684" type="line"/>
      <point x="746.2631578947369" y="1058.7368421052631"/>
      <point x="746.2631578947369" y="1217.421052631579"/>
      <point x="746.2631578947369" y="1375.8947368421052" type="curve"/>
      <point x="590.578947368421" y="1385.157894736842" type="line"/>
      <point x="423.10526315789474" y="1242.578947368421" type="line"/>
      <point x="423.10526315789474" y="1105.1052631578948"/>
      <point x="423.10526315789474" y="968.9473684210526"/>
      <point x="423.10526315789474" y="832.1578947368421" type="curve"/>
      <point x="423.10526315789474" y="431.4736842105263" type="line"/>
      <point x="423.10526315789474" y="265.5263157894737"/>
      <point x="423.10526315789474" y="142.10526315789474"/>
    </contour>
  </outline>
</glyph>
<glyph name="two" format="2">
  <advance width="1141.2631578947369"/>
  <unicode hex="0032"/>
  <outline>
    <contour>
      <point x="84.94736842105263" y="0.0" type="line"/>
      <point x="1054.157894736842" y="0.0" type="line"/>
      <point x="1054.157894736842" y="275.7894736842105" type="line"/>
      <point x="920.421052631579" y="275.7894736842105"/>
      <point x="786.0" y="275.7894736842105"/>
      <point x="652.2631578947369" y="275.7894736842105" type="curve"/>
      <point x="406.8421052631579" y="275.7894736842105" type="line"/>
      <point x="446.5263157894737" y="213.73684210526318" type="line"/>
      <point x="641.1578947368421" y="365.2631578947369" type="line"/>
      <point x="911.2105263157895" y="575.0"/>
      <point x="1038.578947368421" y="778.0"/>
      <point x="1038.578947368421" y="989.6842105263158" type="curve" smooth="yes"/>
      <point x="1038.578947368421" y="1248.6315789473683"/>
      <point x="870.2105263157895" y="1405.157894736842"/>
      <point x="562.2631578947369" y="1405.157894736842" type="curve" smooth="yes"/>
      <point x="381.3157894736842" y="1405.157894736842"/>
      <point x="200.21052631578948" y="1353.1052631578948"/>
      <point x="77.63157894736841" y="1295.578947368421" type="curve"/>
      <point x="105.42105263157895" y="989.421052631579" type="line"/>
      <point x="230.31578947368422" y="1072.2105263157894"/>
      <point x="370.42105263157896" y="1133.2631578947369"/>
      <point x="496.4736842105263" y="1133.2631578947369" type="curve"/>
      <point x="635.6315789473684" y="1133.2631578947369"/>
      <point x="705.5263157894736" y="1070.6842105263158"/>
      <point x="705.5263157894736" y="946.8947368421052" type="curve" smooth="yes"/>
      <point x="705.5263157894736" y="774.1578947368421"/>
      <point x="553.1052631578948" y="611.421052631579"/>
      <point x="300.9473684210526" y="399.2105263157895" type="curve"/>
      <point x="228.73684210526315" y="338.3157894736842"/>
      <point x="157.1578947368421" y="278.0526315789474"/>
      <point x="84.94736842105263" y="217.1578947368421" type="curve"/>
    </contour>
  </outline>
</glyph>
<glyph name="four" format="2">
  <advance width="1230.2330097087379"/>
  <unicode hex="0034"/>
  <outline>
    <contour>
      <point x="663.009708737864" y="0.0" type="curve"/>
      <point x="985.4368932038835" y="0.0" type="line"/>
      <point x="985.4368932038835" y="132.95145631067962"/>
      <point x="985.4368932038835" y="244.11650485436894"/>
      <point x="985.4368932038835" y="404.54368932038835" type="curve"/>
      <point x="985.4368932038835" y="894.2135922330096" type="line"/>
      <point x="985.4368932038835" y="1052.2135922330099"/>
      <point x="985.4368932038835" y="1210.2135922330099"/>
      <point x="985.4368932038835" y="1376.2135922330099" type="curve"/>
      <point x="666.4854368932039" y="1376.2135922330099" type="line"/>
      <point x="606.6990291262135" y="1291.902912621359"/>
      <point x="546.9126213592233" y="1206.8543689320388"/>
      <point x="487.12621359223306" y="1123.8058252427186" type="curve"/>
      <point x="323.02912621359224" y="890.6601941747573" type="line"/>
      <point x="238.71844660194176" y="771.8252427184466"/>
      <point x="126.40776699029126" y="612.990291262136"/>
      <point x="47.35922330097087" y="501.41747572815535" type="curve"/>
      <point x="47.35922330097087" y="286.504854368932" type="line"/>
      <point x="776.4077669902913" y="286.504854368932" type="line"/>
      <point x="895.7864077669902" y="286.504854368932"/>
      <point x="1068.8543689320388" y="286.504854368932"/>
      <point x="1177.4951456310678" y="286.504854368932" type="curve"/>
      <point x="1177.4951456310678" y="562.1747572815534" type="line"/>
      <point x="1068.8543689320388" y="562.1747572815534"/>
      <point x="895.7864077669902" y="562.1747572815534"/>
      <point x="776.4077669902913" y="562.1747572815534" type="curve"/>
      <point x="744.1941747572815" y="547.4174757281553" type="line"/>
      <point x="301.12621359223306" y="547.4174757281553" type="line"/>
      <point x="310.6019417475728" y="484.8155339805826" type="line"/>
      <point x="369.65048543689323" y="567.1262135922331"/>
      <point x="425.4368932038835" y="649.4368932038834"/>
      <point x="484.4854368932039" y="731.747572815534" type="curve"/>
      <point x="703.4174757281554" y="1042.990291262136" type="line"/>
      <point x="770.4660194174758" y="1138.5631067961167"/>
      <point x="835.5145631067961" y="1230.873786407767"/>
      <point x="905.8252427184466" y="1330.9708737864078" type="curve"/>
      <point x="682.8155339805825" y="1238.1747572815534" type="line"/>
      <point x="682.8155339805825" y="1101.126213592233"/>
      <point x="682.8155339805825" y="966.0776699029126"/>
      <point x="682.8155339805825" y="829.0291262135922" type="curve"/>
      <point x="682.8155339805825" y="449.18446601941747" type="line"/>
      <point x="663.009708737864" y="404.54368932038835" type="line"/>
      <point x="663.009708737864" y="244.11650485436894"/>
      <point x="663.009708737864" y="132.95145631067962"/>
    </contour>
  </outline>
</glyph>
<glyph name="five" format="2">
  <advance width="1168.3300970873786"/>
  <unicode hex="0035"/>
  <outline>
    <contour>
      <point x="552.9514563106795" y="-26.95145631067961" type="curve" smooth="yes"/>
      <point x="918.1359223300971" y="-26.95145631067961"/>
      <point x="1090.873786407767" y="168.52427184466018"/>
      <point x="1090.873786407767" y="453.04854368932035" type="curve" smooth="yes"/>
      <point x="1090.873786407767" y="738.9320388349514"/>
      <point x="909.5145631067961" y="883.4563106796116"/>
      <point x="682.6796116504854" y="883.4563106796116" type="curve" smooth="yes"/>
      <point x="603.6310679611651" y="883.4563106796116"/>
      <point x="531.0097087378641" y="866.1941747572815"/>
      <point x="464.1747572815534" y="833.1456310679612" type="curve"/>
      <point x="439.747572815534" y="833.1456310679612" type="line"/>
      <point x="440.4854368932039" y="902.2912621359224" type="line"/>
      <point x="442.48543689320394" y="1000.9126213592234"/>
      <point x="445.22330097087377" y="1101.5339805825242"/>
      <point x="445.9611650485437" y="1201.4174757281553" type="curve"/>
      <point x="351.63106796116506" y="1100.5436893203882" type="line"/>
      <point x="549.4174757281553" y="1100.5436893203882" type="line"/>
      <point x="705.2038834951456" y="1100.5436893203882"/>
      <point x="864.990291262136" y="1100.5436893203882"/>
      <point x="1021.5145631067961" y="1100.5436893203882" type="curve"/>
      <point x="1021.5145631067961" y="1376.2135922330099" type="line"/>
      <point x="149.45631067961162" y="1376.2135922330099" type="line"/>
      <point x="149.45631067961162" y="1210.3106796116504"/>
      <point x="149.45631067961162" y="1026.9320388349515"/>
      <point x="149.45631067961162" y="831.5533980582525" type="curve"/>
      <point x="149.45631067961162" y="599.9611650485438" type="line"/>
      <point x="287.92233009708735" y="589.747572815534" type="line"/>
      <point x="364.4271844660194" y="637.2038834951456"/>
      <point x="442.52427184466023" y="652.252427184466"/>
      <point x="520.504854368932" y="652.252427184466" type="curve"/>
      <point x="663.3203883495146" y="652.252427184466"/>
      <point x="758.2330097087379" y="591.3203883495146"/>
      <point x="758.2330097087379" y="451.16504854368935" type="curve" smooth="yes"/>
      <point x="758.2330097087379" y="319.1067961165049"/>
      <point x="686.1553398058252" y="244.5048543689321"/>
      <point x="521.3592233009708" y="244.5048543689321" type="curve"/>
      <point x="392.09708737864077" y="244.5048543689321"/>
      <point x="240.09708737864077" y="294.1941747572816"/>
      <point x="97.57281553398059" y="369.242718446602" type="curve"/>
      <point x="73.88349514563107" y="76.62135922330097" type="line"/>
      <point x="184.93203883495144" y="20.31067961165048"/>
      <point x="361.88349514563106" y="-26.95145631067961"/>
    </contour>
  </outline>
</glyph>
<glyph name="six" format="2">
  <advance width="1235.8058252427186"/>
  <unicode hex="0036"/>
  <outline>
    <contour>
      <point x="649.378640776699" y="-26.95145631067961" type="curve" smooth="yes"/>
      <point x="1001.0873786407767" y="-26.95145631067961"/>
      <point x="1158.3495145631068" y="212.52427184466018"/>
      <point x="1158.3495145631068" y="464.31067961165047" type="curve" smooth="yes"/>
      <point x="1158.3495145631068" y="724.3106796116505"/>
      <point x="988.1359223300971" y="886.7184466019417"/>
      <point x="741.7281553398059" y="886.7184466019417" type="curve" smooth="yes"/>
      <point x="608.5825242718447" y="886.7184466019417"/>
      <point x="500.91262135922335" y="839.8834951456311"/>
      <point x="426.4077669902913" y="768.5436893203884" type="curve"/>
      <point x="391.4563106796117" y="769.8058252427184" type="line"/>
      <point x="320.05825242718447" y="672.2135922330098"/>
      <point x="317.3203883495146" y="641.6893203883495"/>
      <point x="394.19417475728153" y="548.1941747572815" type="curve"/>
      <point x="476.5825242718447" y="637.1067961165048"/>
      <point x="563.3980582524272" y="658.9902912621359"/>
      <point x="639.4757281553399" y="658.9902912621359" type="curve"/>
      <point x="774.8932038834952" y="658.9902912621359"/>
      <point x="838.1359223300971" y="573.3398058252427"/>
      <point x="838.1359223300971" y="459.16504854368935" type="curve" smooth="yes"/>
      <point x="838.1359223300971" y="342.99029126213594"/>
      <point x="772.8932038834952" y="244.5048543689321"/>
      <point x="634.9514563106795" y="244.5048543689321" type="curve"/>
      <point x="489.747572815534" y="244.5048543689321"/>
      <point x="398.71844660194176" y="367.94174757281553"/>
      <point x="398.71844660194176" y="667.378640776699" type="curve" smooth="yes"/>
      <point x="398.71844660194176" y="984.4854368932039"/>
      <point x="474.05825242718447" y="1132.9708737864078"/>
      <point x="697.7087378640776" y="1132.9708737864078" type="curve"/>
      <point x="808.2330097087379" y="1132.9708737864078"/>
      <point x="936.9708737864078" y="1098.9708737864078"/>
      <point x="1046.4466019417475" y="1034.6601941747574" type="curve"/>
      <point x="1074.1359223300972" y="1323.8058252427186" type="line"/>
      <point x="958.2330097087379" y="1370.6407766990292"/>
      <point x="826.2330097087379" y="1405.6893203883496"/>
      <point x="675.8058252427185" y="1405.6893203883496" type="curve" smooth="yes"/>
      <point x="326.8543689320388" y="1405.6893203883496"/>
      <point x="83.98058252427182" y="1189.0873786407767"/>
      <point x="83.98058252427182" y="674.8543689320388" type="curve" smooth="yes"/>
      <point x="83.98058252427182" y="212.52427184466018"/>
      <point x="274.1941747572816" y="-26.95145631067961"/>
    </contour>
  </outline>
</glyph>
<glyph name="seven" format="2">
  <advance width="1103.578947368421"/>
  <unicode hex="0037"/>
  <outline>
    <contour>
      <point x="176.31578947368422" y="0.0" type="curve"/>
      <point x="530.5263157894738" y="0.0" type="line"/>
      <point x="597.3684210526316" y="152.26315789473685"/>
      <point x="662.8947368421053" y="301.2631578947368"/>
      <point x="729.0526315789474" y="452.1578947368421" type="curve"/>
      <point x="842.6842105263158" y="711.2631578947369" type="line"/>
      <point x="910.2105263157895" y="865.578947368421"/>
      <point x="973.0526315789474" y="1008.5263157894736"/>
      <point x="1039.8947368421052" y="1160.7894736842104" type="curve"/>
      <point x="1039.8947368421052" y="1375.8947368421052" type="line"/>
      <point x="50.0" y="1375.8947368421052" type="line"/>
      <point x="50.0" y="1100.1052631578948" type="line"/>
      <point x="203.0" y="1100.1052631578948"/>
      <point x="354.6842105263158" y="1100.1052631578948"/>
      <point x="505.6842105263158" y="1100.1052631578948" type="curve"/>
      <point x="761.578947368421" y="1100.1052631578948" type="line"/>
      <point x="698.2631578947369" y="1163.5263157894738" type="line"/>
      <point x="656.1578947368421" y="1070.0"/>
      <point x="614.0526315789474" y="975.8421052631579"/>
      <point x="571.9473684210526" y="882.3157894736842" type="curve"/>
      <point x="399.52631578947364" y="498.2631578947368" type="line"/>
      <point x="326.6842105263158" y="334.63157894736844"/>
      <point x="251.15789473684208" y="166.31578947368422"/>
    </contour>
  </outline>
</glyph>
<glyph name="less" format="2">
  <advance width="1159.4736842105262"/>
  <unicode hex="003C"/>
  <outline>
    <contour>
      <point x="1058.9473684210527" y="103.63157894736841" type="curve"/>
      <point x="1058.9473684210527" y="389.36842105263156" type="line"/>
      <point x="942.3684210526316" y="433.7368421052632"/>
      <point x="822.3684210526316" y="479.47368421052636"/>
      <point x="704.421052631579" y="524.5263157894736" type="curve"/>
      <point x="517.421052631579" y="595.1578947368421" type="line"/>
      <point x="517.421052631579" y="620.3157894736842" type="line"/>
      <point x="704.421052631579" y="690.9473684210526" type="line"/>
      <point x="822.3684210526316" y="736.0"/>
      <point x="942.3684210526316" y="781.7368421052631"/>
      <point x="1058.9473684210527" y="826.1052631578947" type="curve"/>
      <point x="1058.9473684210527" y="1111.842105263158" type="line"/>
      <point x="921.2631578947369" y="1059.842105263158"/>
      <point x="789.5263157894736" y="1008.5263157894738"/>
      <point x="675.1052631578948" y="964.5263157894738" type="curve"/>
      <point x="483.0" y="890.3157894736842" type="line"/>
      <point x="369.94736842105266" y="847.0"/>
      <point x="238.21052631578948" y="795.6842105263158"/>
      <point x="100.52631578947368" y="743.6842105263158" type="curve"/>
      <point x="100.52631578947368" y="471.7894736842105" type="line"/>
      <point x="238.21052631578948" y="419.7894736842105"/>
      <point x="369.94736842105266" y="368.4736842105263"/>
      <point x="483.0" y="325.1578947368421" type="curve"/>
      <point x="675.1052631578948" y="250.94736842105263" type="line"/>
      <point x="789.5263157894736" y="206.94736842105263"/>
      <point x="921.2631578947369" y="155.6315789473684"/>
    </contour>
  </outline>
</glyph>
<glyph name="equal" format="2">
  <advance width="1159.4736842105262"/>
  <unicode hex="003D"/>
  <outline>
    <contour>
      <point x="113.68421052631578" y="230.26315789473682" type="line"/>
      <point x="252.05263157894737" y="230.26315789473682"/>
      <point x="383.10526315789474" y="230.26315789473682"/>
      <point x="496.8421052631579" y="230.26315789473682" type="curve"/>
      <point x="662.6315789473684" y="230.26315789473682" type="line"/>
      <point x="776.3684210526316" y="230.26315789473682"/>
      <point x="907.421052631579" y="230.26315789473682"/>
      <point x="1045.7894736842106" y="230.26315789473682" type="curve"/>
      <point x="1045.7894736842106" y="500.7894736842105" type="line"/>
      <point x="907.421052631579" y="500.7894736842105"/>
      <point x="776.3684210526316" y="500.7894736842105"/>
      <point x="662.6315789473684" y="500.7894736842105" type="curve"/>
      <point x="496.8421052631579" y="500.7894736842105" type="line"/>
      <point x="383.10526315789474" y="500.7894736842105"/>
      <point x="252.05263157894737" y="500.7894736842105"/>
      <point x="113.68421052631578" y="500.7894736842105" type="curve"/>
    </contour>
    <contour>
      <point x="113.68421052631578" y="716.0526315789474" type="line"/>
      <point x="252.05263157894737" y="716.0526315789474"/>
      <point x="383.10526315789474" y="716.0526315789474"/>
      <point x="496.8421052631579" y="716.0526315789474" type="curve"/>
      <point x="662.6315789473684" y="716.0526315789474" type="line"/>
      <point x="776.3684210526316" y="716.0526315789474"/>
      <point x="907.421052631579" y="716.0526315789474"/>
      <point x="1045.7894736842106" y="716.0526315789474" type="curve"/>
      <point x="1045.7894736842106" y="986.578947368421" type="line"/>
      <point x="907.421052631579" y="986.578947368421"/>
      <point x="776.3684210526316" y="986.578947368421"/>
      <point x="662.6315789473684" y="986.578947368421" type="curve"/>
      <point x="496.8421052631579" y="986.578947368421" type="line"/>
      <point x="383.10526315789474" y="986.578947368421"/>
      <point x="252.05263157894737" y="986.578947368421"/>
      <point x="113.68421052631578" y="986.578947368421" type="curve"/>
    </contour>
  </outline>
</glyph>
<glyph name="at" format="2">
  <advance width="1785.5263157894738"/>
  <unicode hex="0040"/>
  <outline>
    <contour>
      <point x="953.1578947368421" y="-290.0526315789474" type="curve" smooth="yes"/>
      <point x="1155.6315789473683" y="-290.0526315789474"/>
      <point x="1352.578947368421" y="-245.3684210526316"/>
      <point x="1519.7894736842106" y="-142.63157894736844" type="curve"/>
      <point x="1519.7894736842106" y="61.631578947368425" type="line"/>
      <point x="1302.0526315789473" y="-77.63157894736841"/>
      <point x="1104.6315789473683" y="-110.94736842105263"/>
      <point x="953.1578947368421" y="-110.94736842105263" type="curve"/>
      <point x="427.8421052631579" y="-110.94736842105263"/>
      <point x="188.94736842105263" y="238.0"/>
      <point x="284.2105263157895" y="672.578947368421" type="curve" smooth="yes"/>
      <point x="356.42105263157896" y="1004.3684210526316"/>
      <point x="583.3157894736842" y="1215.8947368421052"/>
      <point x="943.1578947368421" y="1215.8947368421052" type="curve"/>
      <point x="1347.1052631578948" y="1215.8947368421052"/>
      <point x="1583.3684210526317" y="945.4736842105264"/>
      <point x="1504.0" y="547.3157894736842" type="curve" smooth="yes"/>
      <point x="1474.578947368421" y="398.89473684210526"/>
      <point x="1394.1052631578948" y="312.3157894736842"/>
      <point x="1302.2631578947369" y="312.3157894736842" type="curve"/>
      <point x="1234.3684210526317" y="312.3157894736842"/>
      <point x="1188.3157894736842" y="363.7894736842105"/>
      <point x="1215.6315789473683" y="494.47368421052636" type="curve"/>
      <point x="1246.4736842105262" y="642.0" type="line"/>
      <point x="1269.842105263158" y="751.5263157894736"/>
      <point x="1295.842105263158" y="870.9473684210526"/>
      <point x="1317.2105263157896" y="971.7894736842105" type="curve"/>
      <point x="1096.6842105263158" y="959.2105263157895" type="line"/>
      <point x="1066.7894736842104" y="858.5263157894736" type="line"/>
      <point x="1046.2631578947369" y="858.5263157894736" type="line"/>
      <point x="1002.6842105263158" y="936.3157894736842"/>
      <point x="923.7894736842105" y="982.4736842105264"/>
      <point x="824.1578947368421" y="982.4736842105264" type="curve" smooth="yes"/>
      <point x="638.7894736842105" y="982.4736842105264"/>
      <point x="507.89473684210526" y="822.1052631578947"/>
      <point x="466.4736842105263" y="618.421052631579" type="curve" smooth="yes"/>
      <point x="415.1578947368421" y="365.3157894736842"/>
      <point x="522.9473684210526" y="138.10526315789474"/>
      <point x="746.5263157894736" y="138.10526315789474" type="curve" smooth="yes"/>
      <point x="829.2631578947369" y="138.10526315789474"/>
      <point x="924.2105263157895" y="174.21052631578948"/>
      <point x="984.3684210526316" y="272.7368421052632" type="curve"/>
      <point x="1003.578947368421" y="272.7368421052632" type="line"/>
      <point x="1040.578947368421" y="189.57894736842104"/>
      <point x="1142.578947368421" y="120.73684210526315"/>
      <point x="1303.1052631578948" y="120.73684210526315" type="curve" smooth="yes"/>
      <point x="1438.7368421052631" y="120.73684210526315"/>
      <point x="1639.6842105263158" y="219.52631578947367"/>
      <point x="1695.578947368421" y="509.0" type="curve" smooth="yes"/>
      <point x="1790.157894736842" y="998.5263157894736"/>
      <point x="1465.8947368421052" y="1395.0"/>
      <point x="946.4736842105264" y="1395.0" type="curve" smooth="yes"/>
      <point x="555.9473684210526" y="1395.0"/>
      <point x="195.10526315789474" y="1185.1052631578948"/>
      <point x="95.89473684210526" y="713.4736842105264" type="curve" smooth="yes"/>
      <point x="-16.526315789473685" y="182.42105263157896"/>
      <point x="302.36842105263156" y="-290.0526315789474"/>
    </contour>
    <contour>
      <point x="821.6315789473684" y="357.3157894736842" type="curve"/>
      <point x="721.6315789473684" y="357.3157894736842"/>
      <point x="685.1052631578948" y="462.8421052631579"/>
      <point x="708.7368421052631" y="574.2631578947369" type="curve" smooth="yes"/>
      <point x="730.9473684210526" y="679.8947368421052"/>
      <point x="792.2105263157895" y="758.6315789473684"/>
      <point x="887.3684210526316" y="758.6315789473684" type="curve"/>
      <point x="941.578947368421" y="758.6315789473684"/>
      <point x="982.7894736842105" y="732.9473684210526"/>
      <point x="1010.6315789473684" y="697.7368421052631" type="curve"/>
      <point x="957.578947368421" y="447.2105263157895" type="line"/>
      <point x="924.3684210526316" y="387.63157894736844"/>
      <point x="873.6315789473684" y="357.3157894736842"/>
    </contour>
  </outline>
</glyph>
<glyph name="A" format="2">
  <advance width="1442.578947368421"/>
  <unicode hex="0041"/>
  <anchor x="721.9473684210526" y="0.0" name="bottom"/>
  <anchor x="1404.7894736842106" y="0.0" name="ogonek"/>
  <anchor x="721.9473684210526" y="1426.0" name="top"/>
  <outline>
    <contour>
      <point x="40.421052631578945" y="0.0" type="curve"/>
      <point x="386.0526315789474" y="0.0" type="line"/>
      <point x="428.42105263157896" y="148.42105263157896"/>
      <point x="475.47368421052636" y="314.7894736842105"/>
      <point x="517.1578947368421" y="461.8421052631579" type="curve"/>
      <point x="708.1052631578948" y="1134.2631578947369" type="line"/>
      <point x="733.2631578947369" y="1134.2631578947369" type="line"/>
      <point x="922.2105263157895" y="454.52631578947364" type="line"/>
      <point x="961.2105263157895" y="314.1578947368421"/>
      <point x="1006.9473684210526" y="150.36842105263156"/>
      <point x="1048.6315789473683" y="0.0" type="curve"/>
      <point x="1404.7894736842106" y="0.0" type="line"/>
      <point x="1356.0" y="152.0"/>
      <point x="1300.5263157894738" y="324.0"/>
      <point x="1249.7368421052631" y="482.0" type="curve"/>
      <point x="1092.0" y="972.6842105263158" type="line"/>
      <point x="1035.842105263158" y="1146.0526315789473"/>
      <point x="993.7368421052631" y="1276.7368421052631"/>
      <point x="945.6315789473684" y="1426.0" type="curve"/>
      <point x="502.3157894736842" y="1426.0" type="line"/>
      <point x="455.52631578947364" y="1282.0"/>
      <point x="412.7368421052631" y="1150.0"/>
      <point x="355.2631578947368" y="972.6842105263158" type="curve"/>
      <point x="196.8421052631579" y="482.6842105263158" type="line"/>
      <point x="147.36842105263156" y="330.0"/>
      <point x="89.89473684210526" y="152.68421052631578"/>
    </contour>
    <contour>
      <point x="392.42105263157896" y="291.52631578947364" type="line"/>
      <point x="1087.6842105263158" y="291.52631578947364" type="line"/>
      <point x="1057.421052631579" y="548.8947368421053" type="line"/>
      <point x="429.2631578947369" y="548.8947368421053" type="line"/>
    </contour>
  </outline>
</glyph>
<glyph name="B" format="2">
  <advance width="1328.5533980582525"/>
  <unicode hex="0042"/>
  <outline>
    <contour>
      <point x="642.0097087378641" y="0.0" type="curve"/>
      <point x="1135.0970873786407" y="0.0"/>
      <point x="1265.6213592233012" y="160.3106796116505"/>
      <point x="1265.6213592233012" y="400.4271844660194" type="curve" smooth="yes"/>
      <point x="1265.6213592233012" y="610.5242718446601"/>
      <point x="1146.6893203883494" y="704.7378640776699"/>
      <point x="972.6699029126214" y="743.1650485436893" type="curve"/>
      <point x="972.6699029126214" y="768.8543689320388" type="line"/>
      <point x="1121.621359223301" y="805.9029126213592"/>
      <point x="1233.8349514563106" y="916.4271844660194"/>
      <point x="1233.8349514563106" y="1099.1650485436894" type="curve" smooth="yes"/>
      <point x="1233.8349514563106" y="1294.5242718446602"/>
      <point x="1114.47572815534" y="1426.0"/>
      <point x="717.7961165048544" y="1426.0" type="curve"/>
      <point x="510.94174757281553" y="1426.0"/>
      <point x="297.44660194174753" y="1426.0"/>
      <point x="135.54368932038835" y="1426.0" type="curve"/>
      <point x="135.54368932038835" y="1269.4757281553398"/>
      <point x="135.54368932038835" y="1132.9514563106798"/>
      <point x="135.54368932038835" y="949.2621359223301" type="curve"/>
      <point x="135.54368932038835" y="464.31067961165047" type="line"/>
      <point x="135.54368932038835" y="284.83495145631065"/>
      <point x="135.54368932038835" y="153.04854368932038"/>
      <point x="135.54368932038835" y="0.0" type="curve"/>
      <point x="251.7766990291262" y="0.0"/>
      <point x="425.15533980582524" y="0.0"/>
    </contour>
    <contour>
      <point x="473.6601941747573" y="255.747572815534" type="line"/>
      <point x="473.6601941747573" y="341.20388349514565"/>
      <point x="473.6601941747573" y="424.13592233009706"/>
      <point x="473.6601941747573" y="538.7572815533981" type="curve"/>
      <point x="473.6601941747573" y="873.0291262135922" type="line"/>
      <point x="473.6601941747573" y="993.1262135922331"/>
      <point x="473.6601941747573" y="1082.2718446601941"/>
      <point x="473.6601941747573" y="1173.2038834951454" type="curve"/>
      <point x="691.1553398058253" y="1173.2038834951454" type="line" smooth="yes"/>
      <point x="817.9514563106795" y="1173.2038834951454"/>
      <point x="878.7669902912621" y="1115.6310679611652"/>
      <point x="878.7669902912621" y="1009.5533980582524" type="curve" smooth="yes"/>
      <point x="878.7669902912621" y="906.8349514563106"/>
      <point x="812.0485436893205" y="836.2330097087379"/>
      <point x="672.8446601941748" y="836.2330097087379" type="curve" smooth="yes"/>
      <point x="392.2621359223301" y="836.2330097087379" type="line"/>
      <point x="392.2621359223301" y="598.8155339805826" type="line"/>
      <point x="688.2233009708738" y="598.8155339805826" type="line" smooth="yes"/>
      <point x="831.6407766990291" y="598.8155339805826"/>
      <point x="909.0776699029126" y="543.9805825242719"/>
      <point x="909.0776699029126" y="429.8058252427184" type="curve" smooth="yes"/>
      <point x="909.0776699029126" y="316.25242718446606"/>
      <point x="836.0485436893205" y="255.747572815534"/>
      <point x="673.6019417475728" y="255.747572815534" type="curve" smooth="yes"/>
    </contour>
  </outline>
</glyph>
<glyph name="C" format="2">
  <advance width="1366.7368421052631"/>
  <unicode hex="0043"/>
  <anchor x="791.4736842105264" y="0.0" name="bottom"/>
  <anchor x="784.6315789473684" y="1426.0" name="top"/>
  <outline>
    <contour>
      <point x="827.421052631579" y="-27.210526315789473" type="curve" smooth="yes"/>
      <point x="988.578947368421" y="-27.210526315789473"/>
      <point x="1157.7368421052631" y="1.5263157894736832"/>
      <point x="1272.3684210526317" y="65.05263157894737" type="curve"/>
      <point x="1253.7894736842106" y="381.10526315789474" type="line"/>
      <point x="1127.2105263157894" y="286.57894736842104"/>
      <point x="996.3684210526316" y="255.8947368421053"/>
      <point x="873.421052631579" y="255.8947368421053" type="curve"/>
      <point x="576.421052631579" y="255.8947368421053"/>
      <point x="432.0526315789474" y="465.7368421052632"/>
      <point x="432.0526315789474" y="712.0526315789474" type="curve" smooth="yes"/>
      <point x="432.0526315789474" y="1002.8947368421052"/>
      <point x="605.1578947368421" y="1162.9473684210525"/>
      <point x="840.8421052631579" y="1162.9473684210525" type="curve"/>
      <point x="959.8421052631579" y="1162.9473684210525"/>
      <point x="1098.6315789473683" y="1124.3157894736842"/>
      <point x="1253.9473684210527" y="1027.1052631578948" type="curve"/>
      <point x="1279.7368421052631" y="1347.1052631578948" type="line"/>
      <point x="1168.0" y="1404.3684210526317"/>
      <point x="984.8421052631579" y="1455.2631578947369"/>
      <point x="802.0526315789474" y="1455.2631578947369" type="curve" smooth="yes"/>
      <point x="342.9473684210526" y="1455.2631578947369"/>
      <point x="72.63157894736841" y="1140.157894736842"/>
      <point x="72.63157894736841" y="711.421052631579" type="curve" smooth="yes"/>
      <point x="72.63157894736841" y="269.1578947368421"/>
      <point x="362.36842105263156" y="-27.210526315789473"/>
    </contour>
  </outline>
</glyph>
<glyph name="D" format="2">
  <advance width="1466.157894736842"/>
  <unicode hex="0044"/>
  <anchor x="706.578947368421" y="0.0" name="bottom"/>
  <anchor x="733.421052631579" y="714.0" name="center"/>
  <anchor x="706.578947368421" y="1426.0" name="top"/>
  <outline>
    <contour>
      <point x="135.78947368421052" y="0.0" type="curve"/>
      <point x="289.10526315789474" y="0.0"/>
      <point x="441.10526315789474" y="0.0"/>
      <point x="635.2631578947369" y="0.0" type="curve"/>
      <point x="1194.842105263158" y="0.0"/>
      <point x="1393.5263157894738" y="314.05263157894734"/>
      <point x="1393.5263157894738" y="717.3684210526316" type="curve" smooth="yes"/>
      <point x="1393.5263157894738" y="1169.2105263157894"/>
      <point x="1143.578947368421" y="1426.0"/>
      <point x="710.1052631578948" y="1426.0" type="curve"/>
      <point x="505.57894736842104" y="1426.0"/>
      <point x="302.7368421052631" y="1426.0"/>
      <point x="135.78947368421052" y="1426.0" type="curve"/>
      <point x="135.78947368421052" y="1269.2631578947369"/>
      <point x="135.78947368421052" y="1133.2105263157894"/>
      <point x="135.78947368421052" y="948.6842105263158" type="curve"/>
      <point x="135.78947368421052" y="464.1578947368421" type="line"/>
      <point x="135.78947368421052" y="284.89473684210526"/>
      <point x="135.78947368421052" y="152.78947368421052"/>
    </contour>
    <contour>
      <point x="481.36842105263156" y="275.1578947368421" type="line"/>
      <point x="481.36842105263156" y="357.2105263157895"/>
      <point x="481.36842105263156" y="439.7894736842105"/>
      <point x="481.36842105263156" y="548.3684210526316" type="curve"/>
      <point x="481.36842105263156" y="867.1052631578947" type="line"/>
      <point x="481.36842105263156" y="980.9473684210526"/>
      <point x="481.36842105263156" y="1064.842105263158"/>
      <point x="481.36842105263156" y="1150.842105263158" type="curve"/>
      <point x="650.1052631578947" y="1150.842105263158" type="line"/>
      <point x="918.3684210526316" y="1150.842105263158"/>
      <point x="1034.1052631578948" y="979.1052631578948"/>
      <point x="1034.1052631578948" y="722.0" type="curve" smooth="yes"/>
      <point x="1034.1052631578948" y="465.7368421052632"/>
      <point x="930.5263157894736" y="275.1578947368421"/>
      <point x="634.6315789473684" y="275.1578947368421" type="curve"/>
    </contour>
  </outline>
</glyph>
<glyph name="E" format="2">
  <advance width="1193.0582524271845"/>
  <unicode hex="0045"/>
  <anchor x="616.7281553398058" y="0.0" name="bottom"/>
  <anchor x="1096.6504854368932" y="0.0" name="ogonek"/>
  <anchor x="616.7281553398058" y="1426.0" name="top"/>
  <anchor x="67.89320388349515" y="1426.0" name="topleft"/>
  <outline>
    <contour>
      <point x="135.54368932038835" y="0.0" type="curve"/>
      <point x="472.9223300970874" y="0.0" type="line"/>
      <point x="472.9223300970874" y="54.757281553398066" type="line"/>
      <point x="472.9223300970874" y="207.80582524271847"/>
      <point x="472.9223300970874" y="340.8543689320388"/>
      <point x="472.9223300970874" y="519.0679611650486" type="curve"/>
      <point x="472.9223300970874" y="894.504854368932" type="line"/>
      <point x="472.9223300970874" y="1078.1941747572814"/>
      <point x="472.9223300970874" y="1214.7184466019417"/>
      <point x="472.9223300970874" y="1371.2427184466019" type="curve"/>
      <point x="472.9223300970874" y="1426.0" type="line"/>
      <point x="135.54368932038835" y="1426.0" type="line"/>
      <point x="135.54368932038835" y="1269.4757281553398"/>
      <point x="135.54368932038835" y="1132.9514563106798"/>
      <point x="135.54368932038835" y="949.2621359223301" type="curve"/>
      <point x="135.54368932038835" y="464.31067961165047" type="line"/>
      <point x="135.54368932038835" y="284.83495145631065"/>
      <point x="135.54368932038835" y="153.04854368932038"/>
    </contour>
    <contour>
      <point x="434.80582524271847" y="0.0" type="line"/>
      <point x="1097.9126213592233" y="0.0" type="line"/>
      <point x="1097.9126213592233" y="279.9805825242719" type="line"/>
      <point x="967.2912621359224" y="279.9805825242719"/>
      <point x="828.6699029126213" y="279.9805825242719"/>
      <point x="671.5242718446602" y="279.9805825242719" type="curve"/>
      <point x="434.80582524271847" y="279.9805825242719" type="line"/>
    </contour>
    <contour>
      <point x="394.2621359223301" y="588.6990291262136" type="line"/>
      <point x="653.4077669902913" y="588.6990291262136" type="line"/>
      <point x="821.504854368932" y="588.6990291262136"/>
      <point x="935.8155339805825" y="588.6990291262136"/>
      <point x="1058.126213592233" y="588.6990291262136" type="curve"/>
      <point x="1058.126213592233" y="848.1359223300972" type="line"/>
      <point x="941.8155339805825" y="848.1359223300972"/>
      <point x="827.504854368932" y="848.1359223300972"/>
      <point x="653.4077669902912" y="848.1359223300972" type="curve"/>
      <point x="394.2621359223301" y="848.1359223300972" type="line"/>
    </contour>
    <contour>
      <point x="412.90291262135923" y="1146.0194174757282" type="line"/>
      <point x="647.0970873786408" y="1146.0194174757282" type="line"/>
      <point x="835.5048543689321" y="1146.0194174757282"/>
      <point x="966.8640776699029" y="1146.0194174757282"/>
      <point x="1088.9611650485438" y="1146.0194174757282" type="curve"/>
      <point x="1088.9611650485438" y="1426.0" type="line"/>
      <point x="412.90291262135923" y="1426.0" type="line"/>
    </contour>
  </outline>
</glyph>
<glyph name="F" format="2">
  <advance width="1155.157894736842"/>
  <unicode hex="0046"/>
  <outline>
    <contour>
      <point x="135.78947368421052" y="0.0" type="curve"/>
      <point x="473.47368421052636" y="0.0" type="line"/>
      <point x="473.47368421052636" y="152.78947368421052"/>
      <point x="473.47368421052636" y="284.89473684210526"/>
      <point x="473.47368421052636" y="464.1578947368421" type="curve"/>
      <point x="473.47368421052636" y="894.0" type="line"/>
      <point x="473.47368421052636" y="1078.5263157894738"/>
      <point x="473.47368421052636" y="1214.578947368421"/>
      <point x="473.47368421052636" y="1371.3157894736842" type="curve"/>
      <point x="473.47368421052636" y="1426.0" type="line"/>
      <point x="135.78947368421052" y="1426.0" type="line"/>
      <point x="135.78947368421052" y="1269.2631578947369"/>
      <point x="135.78947368421052" y="1133.2105263157894"/>
      <point x="135.78947368421052" y="948.6842105263158" type="curve"/>
      <point x="135.78947368421052" y="464.1578947368421" type="line"/>
      <point x="135.78947368421052" y="284.89473684210526"/>
      <point x="135.78947368421052" y="152.78947368421052"/>
    </contour>
    <contour>
      <point x="386.47368421052636" y="559.7894736842105" type="line"/>
      <point x="638.6842105263158" y="559.7894736842105" type="line"/>
      <point x="806.9473684210526" y="559.7894736842105"/>
      <point x="921.1052631578948" y="559.7894736842105"/>
      <point x="1044.6315789473683" y="559.7894736842105" type="curve"/>
      <point x="1044.6315789473683" y="834.9473684210526" type="line"/>
      <point x="927.7894736842105" y="834.9473684210526"/>
      <point x="812.9473684210526" y="834.9473684210526"/>
      <point x="639.3684210526316" y="834.9473684210526" type="curve"/>
      <point x="386.47368421052636" y="834.9473684210526" type="line"/>
    </contour>
    <contour>
      <point x="407.5263157894737" y="1139.0" type="line"/>
      <point x="634.5263157894738" y="1139.0" type="line"/>
      <point x="822.9473684210526" y="1139.0"/>
      <point x="953.8947368421053" y="1139.0"/>
      <point x="1076.157894736842" y="1139.0" type="curve"/>
      <point x="1076.157894736842" y="1426.0" type="line"/>
      <point x="407.5263157894737" y="1426.0" type="line"/>
    </contour>
  </outline>
</glyph>
<glyph name="G" format="2">
  <advance width="1457.5263157894738"/>
  <unicode hex="0047"/>
  <anchor x="791.4736842105264" y="0.0" name="bottom"/>
  <anchor x="791.4736842105264" y="1426.0" name="top"/>
  <outline>
    <contour>
      <point x="843.0526315789474" y="-25.894736842105264" type="curve" smooth="yes"/>
      <point x="1045.421052631579" y="-25.894736842105264"/>
      <point x="1253.578947368421" y="11.578947368421051"/>
      <point x="1343.6315789473683" y="49.0" type="curve"/>
      <point x="1302.7368421052631" y="354.57894736842104" type="line"/>
      <point x="1166.157894736842" y="279.94736842105266"/>
      <point x="1038.9473684210527" y="249.31578947368422"/>
      <point x="873.3157894736842" y="249.31578947368422" type="curve"/>
      <point x="570.3157894736842" y="249.31578947368422"/>
      <point x="429.42105263157896" y="458.42105263157896"/>
      <point x="429.42105263157896" y="711.421052631579" type="curve" smooth="yes"/>
      <point x="429.42105263157896" y="1006.8947368421052"/>
      <point x="612.3684210526316" y="1162.9473684210525"/>
      <point x="850.2105263157895" y="1162.9473684210525" type="curve"/>
      <point x="973.8947368421053" y="1162.9473684210525"/>
      <point x="1127.2105263157894" y="1123.0"/>
      <point x="1295.7894736842106" y="1027.1052631578948" type="curve"/>
      <point x="1321.578947368421" y="1345.7894736842106" type="line"/>
      <point x="1207.842105263158" y="1400.421052631579"/>
      <point x="1022.578947368421" y="1455.2631578947369"/>
      <point x="822.578947368421" y="1455.2631578947369" type="curve" smooth="yes"/>
      <point x="351.36842105263156" y="1455.2631578947369"/>
      <point x="72.63157894736841" y="1149.2631578947369"/>
      <point x="72.63157894736841" y="712.7368421052631" type="curve" smooth="yes"/>
      <point x="72.63157894736841" y="282.3157894736842"/>
      <point x="352.9473684210526" y="-25.894736842105264"/>
    </contour>
    <contour>
      <point x="1020.421052631579" y="42.421052631578945" type="curve"/>
      <point x="1343.6315789473683" y="49.0" type="line"/>
      <point x="1343.6315789473683" y="191.57894736842104"/>
      <point x="1343.6315789473683" y="296.05263157894734"/>
      <point x="1343.6315789473683" y="409.2105263157895" type="curve"/>
      <point x="1343.6315789473683" y="541.0526315789474"/>
      <point x="1343.6315789473683" y="634.2631578947369"/>
      <point x="1343.6315789473683" y="740.1052631578948" type="curve"/>
      <point x="1020.421052631579" y="740.1052631578948" type="line"/>
      <point x="1020.421052631579" y="634.2631578947369"/>
      <point x="1020.421052631579" y="541.0526315789474"/>
      <point x="1020.421052631579" y="409.2105263157895" type="curve"/>
      <point x="1020.421052631579" y="296.05263157894734"/>
      <point x="1020.421052631579" y="191.57894736842104"/>
    </contour>
  </outline>
</glyph>
<glyph name="H" format="2">
  <advance width="1500.6315789473683"/>
  <unicode hex="0048"/>
  <anchor x="751.3157894736842" y="0.0" name="bottom"/>
  <anchor x="751.3157894736842" y="714.0" name="center"/>
  <anchor x="751.3157894736842" y="1426.0" name="top"/>
  <anchor x="74.63157894736842" y="1426.0" name="topleft"/>
  <outline>
    <contour>
      <point x="1019.2631578947369" y="0.0" type="curve"/>
      <point x="1364.842105263158" y="0.0" type="line"/>
      <point x="1364.842105263158" y="152.78947368421052"/>
      <point x="1364.842105263158" y="284.89473684210526"/>
      <point x="1364.842105263158" y="464.1578947368421" type="curve"/>
      <point x="1364.842105263158" y="948.6842105263158" type="line"/>
      <point x="1364.842105263158" y="1133.2105263157894"/>
      <point x="1364.842105263158" y="1269.2631578947369"/>
      <point x="1364.842105263158" y="1426.0" type="curve"/>
      <point x="1019.2631578947369" y="1426.0" type="line"/>
      <point x="1019.2631578947369" y="1269.2631578947369"/>
      <point x="1019.2631578947369" y="1133.2105263157894"/>
      <point x="1019.2631578947369" y="948.6842105263158" type="curve"/>
      <point x="1019.2631578947369" y="464.1578947368421" type="line"/>
      <point x="1019.2631578947369" y="284.89473684210526"/>
      <point x="1019.2631578947369" y="152.78947368421052"/>
    </contour>
    <contour>
      <point x="135.78947368421052" y="0.0" type="curve"/>
      <point x="481.36842105263156" y="0.0" type="line"/>
      <point x="481.36842105263156" y="152.78947368421052"/>
      <point x="481.36842105263156" y="284.89473684210526"/>
      <point x="481.36842105263156" y="464.1578947368421" type="curve"/>
      <point x="481.36842105263156" y="948.6842105263158" type="line"/>
      <point x="481.36842105263156" y="1133.2105263157894"/>
      <point x="481.36842105263156" y="1269.2631578947369"/>
      <point x="481.36842105263156" y="1426.0" type="curve"/>
      <point x="135.78947368421052" y="1426.0" type="line"/>
      <point x="135.78947368421052" y="1269.2631578947369"/>
      <point x="135.78947368421052" y="1133.2105263157894"/>
      <point x="135.78947368421052" y="948.6842105263158" type="curve"/>
      <point x="135.78947368421052" y="464.1578947368421" type="line"/>
      <point x="135.78947368421052" y="284.89473684210526"/>
      <point x="135.78947368421052" y="152.78947368421052"/>
    </contour>
    <contour>
      <point x="388.0526315789474" y="574.2631578947369" type="line"/>
      <point x="1118.578947368421" y="574.2631578947369" type="line"/>
      <point x="1118.578947368421" y="861.2631578947369" type="line"/>
      <point x="388.0526315789474" y="861.2631578947369" type="line"/>
    </contour>
  </outline>
</glyph>
<glyph name="I" format="2">
  <advance width="636.8947368421052"/>
  <unicode hex="0049"/>
  <anchor x="312.5263157894737" y="0.0" name="bottom"/>
  <anchor x="494.5263157894737" y="0.0" name="ogonek"/>
  <anchor x="312.5263157894737" y="1426.0" name="top"/>
  <anchor x="59.526315789473685" y="1426.0" name="topleft"/>
  <outline>
    <contour>
      <point x="142.36842105263156" y="0.0" type="curve"/>
      <point x="494.5263157894737" y="0.0" type="line"/>
      <point x="494.5263157894737" y="152.78947368421052"/>
      <point x="494.5263157894737" y="284.89473684210526"/>
      <point x="494.5263157894737" y="464.1578947368421" type="curve"/>
      <point x="494.5263157894737" y="948.6842105263158" type="line"/>
      <point x="494.5263157894737" y="1133.2105263157894"/>
      <point x="494.5263157894737" y="1269.2631578947369"/>
      <point x="494.5263157894737" y="1426.0" type="curve"/>
      <point x="142.36842105263156" y="1426.0" type="line"/>
      <point x="142.36842105263156" y="1269.2631578947369"/>
      <point x="142.36842105263156" y="1133.2105263157894"/>
      <point x="142.36842105263156" y="948.6842105263158" type="curve"/>
      <point x="142.36842105263156" y="464.1578947368421" type="line"/>
      <point x="142.36842105263156" y="284.89473684210526"/>
      <point x="142.36842105263156" y="152.78947368421052"/>
    </contour>
  </outline>
</glyph>
<glyph name="J" format="2">
  <advance width="644.578947368421"/>
  <unicode hex="004A"/>
  <anchor x="324.7894736842105" y="0.0" name="bottom"/>
  <anchor x="324.7894736842105" y="1426.0" name="top"/>
  <outline>
    <contour>
      <point x="2.6315789473684177" y="-309.4736842105263" type="curve"/>
      <point x="324.8421052631579" y="-309.4736842105263" type="line"/>
      <point x="425.36842105263156" y="-216.8421052631579"/>
      <point x="502.2105263157895" y="-83.0"/>
      <point x="502.2105263157895" y="139.5263157894737" type="curve" smooth="yes"/>
      <point x="502.2105263157895" y="305.1578947368421"/>
      <point x="502.2105263157895" y="482.6842105263158"/>
      <point x="502.2105263157895" y="666.9473684210526" type="curve"/>
      <point x="502.2105263157895" y="948.6842105263158" type="line"/>
      <point x="502.2105263157895" y="1133.2105263157894"/>
      <point x="502.2105263157895" y="1269.2631578947369"/>
      <point x="502.2105263157895" y="1426.0" type="curve"/>
      <point x="156.6315789473684" y="1426.0" type="line"/>
      <point x="156.6315789473684" y="1269.2631578947369"/>
      <point x="156.6315789473684" y="1133.2105263157894"/>
      <point x="156.6315789473684" y="948.6842105263158" type="curve"/>
      <point x="156.6315789473684" y="645.7368421052631" type="line"/>
      <point x="156.6315789473684" y="160.10526315789474" type="line"/>
      <point x="155.94736842105263" y="-24.263157894736835"/>
      <point x="106.89473684210526" y="-169.05263157894737"/>
    </contour>
  </outline>
</glyph>
<glyph name="K" format="2">
  <advance width="1403.2631578947369"/>
  <unicode hex="004B"/>
  <anchor x="715.3157894736842" y="0.0" name="bottom"/>
  <anchor x="715.3157894736842" y="1426.0" name="top"/>
  <outline>
    <contour>
      <point x="951.0" y="0.0" type="curve"/>
      <point x="1366.7368421052631" y="0.0" type="line"/>
      <point x="1273.578947368421" y="129.8421052631579"/>
      <point x="1118.8947368421052" y="346.10526315789474"/>
      <point x="1005.0" y="505.8421052631579" type="curve"/>
      <point x="755.8421052631579" y="855.8947368421053" type="line"/>
      <point x="762.421052631579" y="704.2105263157895" type="line"/>
      <point x="986.1052631578948" y="983.421052631579" type="line"/>
      <point x="1104.6315789473683" y="1130.6842105263158"/>
      <point x="1219.8947368421052" y="1275.3157894736842"/>
      <point x="1342.5263157894738" y="1426.0" type="curve"/>
      <point x="946.5263157894736" y="1426.0" type="line"/>
      <point x="844.8421052631579" y="1289.6842105263158"/>
      <point x="774.7894736842105" y="1196.7894736842106"/>
      <point x="697.3157894736842" y="1093.842105263158" type="curve"/>
      <point x="533.578947368421" y="876.5263157894738" type="line"/>
      <point x="453.5263157894737" y="876.5263157894738" type="line"/>
      <point x="453.5263157894737" y="606.6315789473684" type="line"/>
      <point x="538.1578947368421" y="606.6315789473684" type="line"/>
      <point x="720.3157894736842" y="339.36842105263156" type="line"/>
      <point x="792.4736842105264" y="232.5263157894737"/>
      <point x="865.3157894736842" y="125.63157894736841"/>
    </contour>
    <contour>
      <point x="135.78947368421052" y="0.0" type="curve"/>
      <point x="480.0526315789474" y="0.0" type="line"/>
      <point x="480.0526315789474" y="152.78947368421052"/>
      <point x="480.0526315789474" y="284.89473684210526"/>
      <point x="480.0526315789474" y="464.1578947368421" type="curve"/>
      <point x="480.0526315789474" y="948.6842105263158" type="line"/>
      <point x="480.0526315789474" y="1133.2105263157894"/>
      <point x="480.0526315789474" y="1269.2631578947369"/>
      <point x="480.0526315789474" y="1426.0" type="curve"/>
      <point x="135.78947368421052" y="1426.0" type="line"/>
      <point x="135.78947368421052" y="1269.2631578947369"/>
      <point x="135.78947368421052" y="1133.2105263157894"/>
      <point x="135.78947368421052" y="948.6842105263158" type="curve"/>
      <point x="135.78947368421052" y="464.1578947368421" type="line"/>
      <point x="135.78947368421052" y="284.89473684210526"/>
      <point x="135.78947368421052" y="152.78947368421052"/>
    </contour>
  </outline>
</glyph>
<glyph name="L" format="2">
  <advance width="1128.842105263158"/>
  <unicode hex="004C"/>
  <anchor x="610.3684210526316" y="0.0" name="bottom"/>
  <anchor x="880.578947368421" y="717.9473684210526" name="center"/>
  <anchor x="462.6842105263158" y="1426.0" name="top"/>
  <anchor x="612.3157894736842" y="998.5263157894736" name="topright"/>
  <outline>
    <contour>
      <point x="135.78947368421052" y="0.0" type="curve"/>
      <point x="481.36842105263156" y="0.0" type="line"/>
      <point x="481.36842105263156" y="55.36842105263158" type="line"/>
      <point x="481.36842105263156" y="208.1578947368421"/>
      <point x="481.36842105263156" y="340.2631578947368"/>
      <point x="481.36842105263156" y="519.5263157894736" type="curve"/>
      <point x="481.36842105263156" y="948.6842105263158" type="line"/>
      <point x="481.36842105263156" y="1133.2105263157894"/>
      <point x="481.36842105263156" y="1269.2631578947369"/>
      <point x="481.36842105263156" y="1426.0" type="curve"/>
      <point x="135.78947368421052" y="1426.0" type="line"/>
      <point x="135.78947368421052" y="1269.2631578947369"/>
      <point x="135.78947368421052" y="1133.2105263157894"/>
      <point x="135.78947368421052" y="948.6842105263158" type="curve"/>
      <point x="135.78947368421052" y="464.1578947368421" type="line"/>
      <point x="135.78947368421052" y="284.89473684210526"/>
      <point x="135.78947368421052" y="152.78947368421052"/>
    </contour>
    <contour>
      <point x="435.1578947368421" y="0.0" type="line"/>
      <point x="1084.9473684210527" y="0.0" type="line"/>
      <point x="1084.9473684210527" y="300.1578947368421" type="line"/>
      <point x="945.8947368421053" y="300.1578947368421"/>
      <point x="827.578947368421" y="300.1578947368421"/>
      <point x="623.6842105263158" y="300.1578947368421" type="curve"/>
      <point x="435.1578947368421" y="300.1578947368421" type="line"/>
    </contour>
  </outline>
</glyph>
<glyph name="M" format="2">
  <advance width="1928.3684210526317"/>
  <unicode hex="004D"/>
  <anchor x="964.5263157894736" y="0.0" name="bottom"/>
  <anchor x="964.5263157894736" y="1426.0" name="top"/>
  <outline>
    <contour>
      <point x="96.84210526315789" y="0.0" type="curve"/>
      <point x="417.47368421052636" y="0.0" type="line"/>
      <point x="440.3157894736842" y="194.0"/>
      <point x="461.7894736842105" y="369.89473684210526"/>
      <point x="480.57894736842104" y="522.2631578947369" type="curve"/>
      <point x="520.8421052631579" y="851.1578947368421" type="line"/>
      <point x="543.9473684210526" y="851.1578947368421" type="line"/>
      <point x="676.5263157894736" y="496.6842105263158" type="line"/>
      <point x="738.421052631579" y="329.57894736842104"/>
      <point x="807.7894736842105" y="147.4736842105263"/>
      <point x="862.8947368421052" y="0.0" type="curve"/>
      <point x="1091.157894736842" y="0.0" type="line"/>
      <point x="1142.421052631579" y="151.6315789473684"/>
      <point x="1201.157894736842" y="325.57894736842104"/>
      <point x="1257.842105263158" y="498.05263157894734" type="curve"/>
      <point x="1375.9473684210527" y="851.1578947368421" type="line"/>
      <point x="1399.0526315789473" y="851.1578947368421" type="line"/>
      <point x="1439.3157894736842" y="522.2631578947369" type="line"/>
      <point x="1458.1052631578948" y="369.89473684210526"/>
      <point x="1479.578947368421" y="194.0"/>
      <point x="1503.7368421052631" y="0.0" type="curve"/>
      <point x="1831.5263157894738" y="0.0" type="line"/>
      <point x="1813.5263157894738" y="151.4736842105263"/>
      <point x="1795.5263157894738" y="290.8421052631579"/>
      <point x="1772.8947368421052" y="464.1578947368421" type="curve"/>
      <point x="1711.6315789473683" y="944.6842105263158" type="line"/>
      <point x="1689.6315789473683" y="1119.3684210526317"/>
      <point x="1671.0" y="1267.2631578947369"/>
      <point x="1649.6842105263158" y="1426.0" type="curve"/>
      <point x="1306.0526315789473" y="1426.0" type="line"/>
      <point x="1246.2105263157894" y="1261.7368421052631"/>
      <point x="1194.3684210526317" y="1126.6315789473683"/>
      <point x="1140.5263157894738" y="982.3157894736842" type="curve"/>
      <point x="982.3684210526316" y="560.0" type="line"/>
      <point x="959.8947368421053" y="560.0" type="line"/>
      <point x="795.1578947368421" y="982.3157894736842" type="line"/>
      <point x="738.6842105263158" y="1126.6315789473683"/>
      <point x="685.5263157894738" y="1265.6842105263158"/>
      <point x="623.0526315789474" y="1426.0" type="curve"/>
      <point x="274.8421052631579" y="1426.0" type="line"/>
      <point x="254.8421052631579" y="1265.2631578947369"/>
      <point x="236.8421052631579" y="1116.6842105263158"/>
      <point x="214.8421052631579" y="944.6842105263158" type="curve"/>
      <point x="155.5263157894737" y="464.1578947368421" type="line"/>
      <point x="133.5263157894737" y="291.4736842105263"/>
      <point x="115.52631578947368" y="146.1578947368421"/>
    </contour>
  </outline>
</glyph>
<glyph name="N" format="2">
  <advance width="1499.5263157894738"/>
  <unicode hex="004E"/>
  <anchor x="751.421052631579" y="0.0" name="bottom"/>
  <anchor x="751.421052631579" y="1426.0" name="top"/>
  <outline>
    <contour>
      <point x="135.78947368421052" y="0.0" type="curve"/>
      <point x="459.0" y="0.0" type="line"/>
      <point x="459.0" y="152.78947368421052"/>
      <point x="459.0" y="284.89473684210526"/>
      <point x="459.0" y="464.1578947368421" type="curve"/>
      <point x="459.0" y="848.1578947368421" type="line"/>
      <point x="482.7894736842105" y="848.1578947368421" type="line"/>
      <point x="710.6842105263158" y="518.3157894736842" type="line"/>
      <point x="848.4736842105264" y="318.8421052631579"/>
      <point x="960.0526315789474" y="157.0"/>
      <point x="1066.842105263158" y="0.0" type="curve"/>
      <point x="1363.7368421052631" y="0.0" type="line"/>
      <point x="1363.7368421052631" y="152.78947368421052"/>
      <point x="1363.7368421052631" y="284.89473684210526"/>
      <point x="1363.7368421052631" y="464.1578947368421" type="curve"/>
      <point x="1363.7368421052631" y="948.6842105263158" type="line"/>
      <point x="1363.7368421052631" y="1133.2105263157894"/>
      <point x="1363.7368421052631" y="1269.2631578947369"/>
      <point x="1363.7368421052631" y="1426.0" type="curve"/>
      <point x="1040.5263157894738" y="1426.0" type="line"/>
      <point x="1040.5263157894738" y="1269.2631578947369"/>
      <point x="1040.5263157894738" y="1133.2105263157894"/>
      <point x="1040.5263157894738" y="948.6842105263158" type="curve"/>
      <point x="1040.5263157894738" y="580.578947368421" type="line"/>
      <point x="1015.421052631579" y="580.578947368421" type="line"/>
      <point x="791.4736842105264" y="907.7368421052631" type="line"/>
      <point x="676.578947368421" y="1074.2105263157896"/>
      <point x="566.2631578947369" y="1236.842105263158"/>
      <point x="436.0" y="1426.0" type="curve"/>
      <point x="135.78947368421052" y="1426.0" type="line"/>
      <point x="135.78947368421052" y="1269.2631578947369"/>
      <point x="135.78947368421052" y="1133.2105263157894"/>
      <point x="135.78947368421052" y="948.6842105263158" type="curve"/>
      <point x="135.78947368421052" y="464.1578947368421" type="line"/>
      <point x="135.78947368421052" y="284.89473684210526"/>
      <point x="135.78947368421052" y="152.78947368421052"/>
    </contour>
  </outline>
</glyph>
<glyph name="P" format="2">
  <advance width="1302.4563106796118"/>
  <unicode hex="0050"/>
  <outline>
    <contour>
      <point x="734.9029126213592" y="492.8932038834951" type="curve"/>
      <point x="1101.621359223301" y="492.8932038834951"/>
      <point x="1242.2621359223301" y="687.8446601941747"/>
      <point x="1242.2621359223301" y="972.3883495145632" type="curve" smooth="yes"/>
      <point x="1242.2621359223301" y="1311.1650485436892"/>
      <point x="1062.4563106796118" y="1426.0"/>
      <point x="713.9126213592233" y="1426.0" type="curve"/>
      <point x="454.7281553398058" y="1426.0"/>
      <point x="251.23300970873785" y="1426.0"/>
      <point x="135.54368932038835" y="1426.0" type="curve"/>
      <point x="447.4466019417476" y="1156.9708737864075" type="line"/>
      <point x="690.0097087378641" y="1156.9708737864075" type="line" smooth="yes"/>
      <point x="788.8252427184467" y="1156.9708737864075"/>
      <point x="891.9320388349514" y="1121.5922330097087"/>
      <point x="891.9320388349514" y="964.4854368932039" type="curve" smooth="yes"/>
      <point x="891.9320388349514" y="815.4757281553399"/>
      <point x="820.0679611650486" y="752.3300970873787"/>
      <point x="655.2912621359224" y="752.3300970873787" type="curve" smooth="yes"/>
      <point x="432.0679611650486" y="752.3300970873787" type="line"/>
      <point x="432.0679611650486" y="492.8932038834951" type="line"/>
      <point x="508.59223300970876" y="492.8932038834951"/>
      <point x="638.3786407766991" y="492.8932038834951"/>
    </contour>
    <contour>
      <point x="135.54368932038835" y="0.0" type="curve"/>
      <point x="474.92233009708735" y="0.0" type="line"/>
      <point x="474.92233009708735" y="153.04854368932038"/>
      <point x="474.92233009708735" y="284.83495145631065"/>
      <point x="474.92233009708735" y="464.31067961165047" type="curve"/>
      <point x="474.92233009708735" y="894.504854368932" type="line"/>
      <point x="474.92233009708735" y="1078.1941747572814"/>
      <point x="474.92233009708735" y="1214.7184466019417"/>
      <point x="474.92233009708735" y="1371.2427184466019" type="curve"/>
      <point x="135.54368932038835" y="1426.0" type="line"/>
      <point x="135.54368932038835" y="1269.4757281553398"/>
      <point x="135.54368932038835" y="1132.9514563106798"/>
      <point x="135.54368932038835" y="949.2621359223301" type="curve"/>
      <point x="135.54368932038835" y="464.31067961165047" type="line"/>
      <point x="135.54368932038835" y="284.83495145631065"/>
      <point x="135.54368932038835" y="153.04854368932038"/>
    </contour>
  </outline>
</glyph>
<glyph name="R" format="2">
  <advance width="1386.4563106796115"/>
  <unicode hex="0052"/>
  <anchor x="693.6990291262136" y="0.0" name="bottom"/>
  <anchor x="678.9417475728155" y="1426.0" name="top"/>
  <outline>
    <contour>
      <point x="961.2912621359222" y="0.0" type="curve"/>
      <point x="1352.2621359223301" y="0.0" type="line"/>
      <point x="1278.378640776699" y="110.0"/>
      <point x="1163.9708737864078" y="282.9514563106796"/>
      <point x="1076.0873786407767" y="415.68932038834953" type="curve"/>
      <point x="884.5339805825244" y="702.6407766990292" type="line"/>
      <point x="750.6893203883495" y="579.1456310679612" type="line"/>
      <point x="1095.8349514563106" y="580.4077669902913"/>
      <point x="1234.6893203883494" y="763.1262135922331"/>
      <point x="1234.6893203883494" y="1011.2427184466018" type="curve" smooth="yes"/>
      <point x="1234.6893203883494" y="1325.6893203883496"/>
      <point x="1040.4563106796115" y="1426.0"/>
      <point x="689.1747572815534" y="1426.0" type="curve"/>
      <point x="483.4854368932039" y="1426.0"/>
      <point x="265.6601941747573" y="1426.0"/>
      <point x="135.54368932038835" y="1426.0" type="curve"/>
      <point x="365.0970873786408" y="1157.7087378640776" type="line"/>
      <point x="678.9611650485436" y="1157.7087378640776" type="line" smooth="yes"/>
      <point x="777.7766990291262" y="1157.7087378640776"/>
      <point x="878.8834951456311" y="1124.8543689320386"/>
      <point x="878.8834951456311" y="970.9126213592233" type="curve" smooth="yes"/>
      <point x="878.8834951456311" y="812.9514563106796"/>
      <point x="795.8543689320388" y="764.4466019417475"/>
      <point x="646.2427184466019" y="764.4466019417475" type="curve" smooth="yes"/>
      <point x="411.4271844660194" y="764.4466019417475" type="line"/>
      <point x="411.4271844660194" y="523.4563106796116" type="line"/>
      <point x="743.6407766990292" y="523.4563106796116" type="line"/>
      <point x="538.9417475728155" y="675.6893203883495" type="line"/>
      <point x="766.495145631068" y="308.504854368932" type="line"/>
      <point x="828.1650485436893" y="210.93203883495147"/>
      <point x="891.0970873786408" y="110.83495145631068"/>
    </contour>
    <contour>
      <point x="135.54368932038835" y="0.0" type="curve"/>
      <point x="473.6601941747573" y="0.0" type="line"/>
      <point x="473.6601941747573" y="153.04854368932038"/>
      <point x="473.6601941747573" y="284.83495145631065"/>
      <point x="473.6601941747573" y="464.31067961165047" type="curve"/>
      <point x="473.6601941747573" y="894.504854368932" type="line"/>
      <point x="473.6601941747573" y="1074.407766990291"/>
      <point x="473.6601941747573" y="1209.6699029126214"/>
      <point x="473.6601941747573" y="1371.2427184466019" type="curve"/>
      <point x="135.54368932038835" y="1426.0" type="line"/>
      <point x="135.54368932038835" y="1269.4757281553398"/>
      <point x="135.54368932038835" y="1132.9514563106798"/>
      <point x="135.54368932038835" y="949.2621359223301" type="curve"/>
      <point x="135.54368932038835" y="464.31067961165047" type="line"/>
      <point x="135.54368932038835" y="284.83495145631065"/>
      <point x="135.54368932038835" y="153.04854368932038"/>
    </contour>
  </outline>
</glyph>
<glyph name="S" format="2">
  <advance width="1204.2330097087379"/>
  <unicode hex="0053"/>
  <anchor x="605.9029126213593" y="0.0" name="bottom"/>
  <anchor x="605.9029126213593" y="1426.0" name="top"/>
  <outline>
    <contour>
      <point x="593.0485436893205" y="-26.95145631067961" type="curve" smooth="yes"/>
      <point x="979.9223300970874" y="-26.95145631067961"/>
      <point x="1146.0388349514562" y="144.8349514563107"/>
      <point x="1146.0388349514562" y="410.54368932038835" type="curve" smooth="yes"/>
      <point x="1146.0388349514562" y="647.1844660194175"/>
      <point x="1035.3009708737864" y="746.1359223300972"/>
      <point x="694.0388349514562" y="846.9708737864078" type="curve" smooth="yes"/>
      <point x="519.242718446602" y="899.1650485436893"/>
      <point x="441.78640776699035" y="938.8349514563107"/>
      <point x="441.78640776699035" y="1032.9126213592233" type="curve" smooth="yes"/>
      <point x="441.78640776699035" y="1129.3009708737864"/>
      <point x="532.6990291262136" y="1174.757281553398"/>
      <point x="650.5631067961166" y="1174.757281553398" type="curve"/>
      <point x="758.8737864077669" y="1174.757281553398"/>
      <point x="910.8737864077669" y="1132.9708737864078"/>
      <point x="1038.5631067961165" y="1053.1844660194174" type="curve"/>
      <point x="1064.2524271844661" y="1355.1650485436892" type="line"/>
      <point x="955.9223300970874" y="1406.4271844660195"/>
      <point x="762.1165048543689" y="1455.4757281553398"/>
      <point x="583.6893203883495" y="1455.4757281553398" type="curve" smooth="yes"/>
      <point x="241.24271844660194" y="1455.4757281553398"/>
      <point x="77.76699029126213" y="1281.0485436893202"/>
      <point x="77.76699029126213" y="1027.5533980582525" type="curve" smooth="yes"/>
      <point x="77.76699029126213" y="776.1747572815534"/>
      <point x="228.81553398058253" y="677.747572815534"/>
      <point x="487.43689320388347" y="603.6504854368932" type="curve" smooth="yes"/>
      <point x="670.3495145631067" y="551.2427184466019"/>
      <point x="784.0194174757281" y="507.57281553398064"/>
      <point x="784.0194174757281" y="400.4466019417476" type="curve" smooth="yes"/>
      <point x="784.0194174757281" y="296.4854368932039"/>
      <point x="698.5825242718447" y="249.55339805825247"/>
      <point x="566.1941747572815" y="249.55339805825247" type="curve"/>
      <point x="429.2621359223301" y="249.55339805825247"/>
      <point x="265.88349514563106" y="296.07766990291265"/>
      <point x="125.66990291262134" y="372.6019417475728" type="curve"/>
      <point x="101.24271844660193" y="72.83495145631068" type="line"/>
      <point x="203.66990291262135" y="24.097087378640776"/>
      <point x="415.7864077669903" y="-26.95145631067961"/>
    </contour>
  </outline>
</glyph>
<glyph name="U" format="2">
  <advance width="1456.1052631578948"/>
  <unicode hex="0055"/>
  <anchor x="730.0526315789474" y="0.0" name="bottom"/>
  <anchor x="951.9473684210526" y="0.0" name="ogonek"/>
  <anchor x="730.0526315789474" y="1426.0" name="top"/>
  <anchor x="1413.5263157894738" y="1426.0" name="topright"/>
  <outline>
    <contour>
      <point x="730.6842105263158" y="-27.210526315789473" type="curve" smooth="yes"/>
      <point x="1148.7368421052631" y="-27.210526315789473"/>
      <point x="1331.7894736842106" y="194.73684210526315"/>
      <point x="1331.7894736842106" y="548.8947368421053" type="curve" smooth="yes"/>
      <point x="1331.7894736842106" y="621.1052631578948"/>
      <point x="1331.7894736842106" y="794.421052631579"/>
      <point x="1331.7894736842106" y="948.6842105263158" type="curve"/>
      <point x="1331.7894736842106" y="1133.2105263157894"/>
      <point x="1331.7894736842106" y="1269.2631578947369"/>
      <point x="1331.7894736842106" y="1426.0" type="curve"/>
      <point x="987.5263157894736" y="1426.0" type="line"/>
      <point x="987.5263157894736" y="1269.2631578947369"/>
      <point x="987.5263157894736" y="1133.2105263157894"/>
      <point x="987.5263157894736" y="948.6842105263158" type="curve"/>
      <point x="987.5263157894736" y="568.8947368421053" type="line" smooth="yes"/>
      <point x="987.5263157894736" y="368.1578947368421"/>
      <point x="918.1578947368421" y="255.8947368421053"/>
      <point x="729.3684210526316" y="255.8947368421053" type="curve"/>
      <point x="545.8421052631579" y="255.8947368421053"/>
      <point x="467.8947368421053" y="368.8421052631579"/>
      <point x="467.8947368421053" y="568.2105263157895" type="curve" smooth="yes"/>
      <point x="467.8947368421053" y="948.6842105263158" type="line"/>
      <point x="467.8947368421053" y="1133.2105263157894"/>
      <point x="467.8947368421053" y="1269.2631578947369"/>
      <point x="467.8947368421053" y="1426.0" type="curve"/>
      <point x="123.63157894736841" y="1426.0" type="line"/>
      <point x="123.63157894736841" y="1269.2631578947369"/>
      <point x="123.63157894736841" y="1133.2105263157894"/>
      <point x="123.63157894736841" y="948.6842105263158" type="curve"/>
      <point x="123.63157894736841" y="794.421052631579"/>
      <point x="123.63157894736841" y="626.3684210526316"/>
      <point x="123.63157894736841" y="550.2105263157895" type="curve" smooth="yes"/>
      <point x="123.63157894736841" y="194.73684210526315"/>
      <point x="290.9473684210526" y="-27.210526315789473"/>
    </contour>
  </outline>
</glyph>
<glyph name="V" format="2">
  <advance width="1425.4736842105262"/>
  <unicode hex="0056"/>
  <anchor x="712.7368421052631" y="0.0" name="bottom"/>
  <anchor x="712.7368421052631" y="1426.0" name="top"/>
  <outline>
    <contour>
      <point x="479.9473684210526" y="0.0" type="curve"/>
      <point x="941.6842105263158" y="0.0" type="line"/>
      <point x="985.8421052631579" y="142.05263157894737"/>
      <point x="1038.0526315789473" y="311.36842105263156"/>
      <point x="1080.842105263158" y="451.3157894736842" type="curve"/>
      <point x="1219.3157894736842" y="900.0" type="line"/>
      <point x="1267.4736842105262" y="1055.3157894736842"/>
      <point x="1328.3684210526317" y="1253.3684210526317"/>
      <point x="1381.2105263157896" y="1426.0" type="curve"/>
      <point x="1009.2631578947369" y="1426.0" type="line"/>
      <point x="959.3684210526316" y="1241.3684210526317"/>
      <point x="906.1052631578947" y="1040.6842105263158"/>
      <point x="859.578947368421" y="860.0526315789474" type="curve"/>
      <point x="724.0526315789474" y="349.63157894736844" type="line"/>
      <point x="698.8947368421053" y="349.63157894736844" type="line"/>
      <point x="570.578947368421" y="858.0526315789474" type="line"/>
      <point x="526.0" y="1035.3157894736842"/>
      <point x="471.3157894736842" y="1248.0526315789473"/>
      <point x="426.7368421052632" y="1426.0" type="curve"/>
      <point x="43.578947368421055" y="1426.0" type="line"/>
      <point x="95.78947368421052" y="1256.6315789473683"/>
      <point x="157.36842105263156" y="1053.3157894736842"/>
      <point x="204.21052631578948" y="900.0" type="curve"/>
      <point x="341.42105263157896" y="452.0" type="line"/>
      <point x="383.57894736842104" y="314.6842105263158"/>
      <point x="437.10526315789474" y="142.0"/>
    </contour>
  </outline>
</glyph>
<glyph name="W" format="2">
  <advance width="2099.315789473684"/>
  <unicode hex="0057"/>
  <anchor x="1041.421052631579" y="0.0" name="bottom"/>
  <anchor x="1041.421052631579" y="1426.0" name="top"/>
  <outline>
    <contour>
      <point x="415.7894736842105" y="0.0" type="curve"/>
      <point x="814.4736842105264" y="0.0" type="line"/>
      <point x="848.2105263157895" y="151.57894736842104"/>
      <point x="888.0526315789474" y="336.0"/>
      <point x="921.7894736842105" y="488.89473684210526" type="curve"/>
      <point x="1019.6315789473684" y="930.8421052631579" type="line"/>
      <point x="1044.7894736842106" y="930.8421052631579" type="line"/>
      <point x="1145.9473684210527" y="490.2105263157895" type="line"/>
      <point x="1181.0" y="336.0"/>
      <point x="1222.157894736842" y="154.89473684210526"/>
      <point x="1257.8947368421052" y="0.0" type="curve"/>
      <point x="1676.3157894736842" y="0.0" type="line"/>
      <point x="1713.0526315789473" y="137.31578947368422"/>
      <point x="1758.4736842105262" y="308.6842105263158"/>
      <point x="1797.2105263157896" y="450.6842105263158" type="curve"/>
      <point x="1918.1052631578948" y="900.0" type="line"/>
      <point x="1959.5263157894738" y="1055.3684210526317"/>
      <point x="2012.9473684210527" y="1255.3157894736842"/>
      <point x="2058.3684210526317" y="1426.0" type="curve"/>
      <point x="1668.6842105263158" y="1426.0" type="line"/>
      <point x="1636.2105263157894" y="1257.2631578947369"/>
      <point x="1596.3157894736842" y="1059.0526315789473"/>
      <point x="1563.842105263158" y="892.3157894736842" type="curve"/>
      <point x="1469.157894736842" y="409.5263157894737" type="line"/>
      <point x="1444.0" y="409.5263157894737" type="line"/>
      <point x="1342.842105263158" y="890.3157894736842" type="line"/>
      <point x="1306.421052631579" y="1061.7368421052631"/>
      <point x="1266.6315789473683" y="1254.578947368421"/>
      <point x="1230.2105263157896" y="1426.0" type="curve"/>
      <point x="863.7894736842105" y="1426.0" type="line"/>
      <point x="830.0526315789474" y="1259.2631578947369"/>
      <point x="788.8947368421052" y="1056.3684210526317"/>
      <point x="755.1578947368421" y="892.3157894736842" type="curve"/>
      <point x="657.3157894736842" y="409.5263157894737" type="line"/>
      <point x="632.1578947368421" y="409.5263157894737" type="line"/>
      <point x="538.1578947368421" y="887.6315789473684" type="line"/>
      <point x="503.68421052631584" y="1059.0526315789473"/>
      <point x="465.7894736842105" y="1254.578947368421"/>
      <point x="431.3157894736842" y="1426.0" type="curve"/>
      <point x="41.63157894736842" y="1426.0" type="line"/>
      <point x="85.73684210526315" y="1258.0"/>
      <point x="138.5263157894737" y="1056.6315789473683"/>
      <point x="179.94736842105263" y="898.6315789473684" type="curve"/>
      <point x="297.5263157894737" y="450.0" type="line"/>
      <point x="334.2631578947368" y="312.0"/>
      <point x="378.36842105263156" y="140.68421052631578"/>
    </contour>
  </outline>
</glyph>
<glyph name="X" format="2">
  <advance width="1426.421052631579"/>
  <unicode hex="0058"/>
  <outline>
    <contour>
      <point x="52.473684210526315" y="0.0" type="curve"/>
      <point x="434.42105263157896" y="0.0" type="line"/>
      <point x="485.68421052631584" y="104.47368421052632"/>
      <point x="529.5263157894738" y="193.5263157894737"/>
      <point x="574.7368421052631" y="285.2631578947368" type="curve"/>
      <point x="681.3157894736842" y="501.57894736842104" type="line"/>
      <point x="706.4736842105264" y="501.57894736842104" type="line"/>
      <point x="820.4736842105264" y="285.9473684210526" type="line"/>
      <point x="867.0" y="198.89473684210526"/>
      <point x="916.2631578947369" y="104.47368421052632"/>
      <point x="971.578947368421" y="0.0" type="curve"/>
      <point x="1377.8947368421052" y="0.0" type="line"/>
      <point x="1288.2631578947369" y="150.0"/>
      <point x="1208.0" y="285.3157894736842"/>
      <point x="1116.3684210526317" y="439.3157894736842" type="curve"/>
      <point x="931.1052631578948" y="751.9473684210526" type="line"/>
      <point x="931.1052631578948" y="661.3684210526316" type="line"/>
      <point x="1112.3157894736842" y="1002.3684210526316" type="line"/>
      <point x="1176.5263157894738" y="1122.9473684210527"/>
      <point x="1254.1052631578948" y="1268.157894736842"/>
      <point x="1337.6842105263158" y="1426.0" type="curve"/>
      <point x="959.0" y="1426.0" type="line"/>
      <point x="906.421052631579" y="1317.6315789473683"/>
      <point x="854.4736842105264" y="1210.5263157894738"/>
      <point x="807.9473684210526" y="1114.157894736842" type="curve"/>
      <point x="718.2631578947369" y="930.1052631578948" type="line"/>
      <point x="693.1052631578948" y="930.1052631578948" type="line"/>
      <point x="599.421052631579" y="1113.4736842105262" type="line"/>
      <point x="550.8947368421053" y="1209.157894736842"/>
      <point x="496.3157894736842" y="1315.578947368421"/>
      <point x="440.3684210526316" y="1426.0" type="curve"/>
      <point x="48.526315789473685" y="1426.0" type="line"/>
      <point x="140.8421052631579" y="1263.3684210526317"/>
      <point x="216.42105263157896" y="1127.421052631579"/>
      <point x="292.6842105263158" y="992.7894736842105" type="curve"/>
      <point x="459.2631578947368" y="696.8421052631579" type="line"/>
      <point x="459.2631578947368" y="776.8947368421053" type="line"/>
      <point x="270.57894736842104" y="417.7368421052632" type="line"/>
      <point x="191.6315789473684" y="267.1578947368421"/>
      <point x="122.05263157894737" y="132.57894736842104"/>
    </contour>
  </outline>
</glyph>
<glyph name="Y" format="2">
  <advance width="1368.5263157894738"/>
  <unicode hex="0059"/>
  <anchor x="687.8947368421053" y="0.0" name="bottom"/>
  <anchor x="687.8947368421053" y="1426.0" name="top"/>
  <anchor x="37.368421052631575" y="1426.0" name="topleft"/>
  <outline>
    <contour>
      <point x="522.3684210526316" y="497.36842105263156" type="line"/>
      <point x="852.1052631578948" y="497.36842105263156" type="line"/>
      <point x="1142.578947368421" y="1061.2105263157894" type="line"/>
      <point x="1202.6842105263158" y="1178.3684210526317"/>
      <point x="1267.421052631579" y="1302.842105263158"/>
      <point x="1330.2105263157896" y="1426.0" type="curve"/>
      <point x="950.2631578947369" y="1426.0" type="line"/>
      <point x="881.3684210526316" y="1266.0"/>
      <point x="846.2631578947369" y="1185.0"/>
      <point x="788.2105263157895" y="1053.7894736842106" type="curve"/>
      <point x="701.7894736842105" y="855.6315789473684" type="line"/>
      <point x="674.0" y="855.6315789473684" type="line"/>
      <point x="586.8421052631579" y="1058.5263157894738" type="line"/>
      <point x="533.4736842105264" y="1185.6842105263158"/>
      <point x="501.0526315789474" y="1264.0"/>
      <point x="431.47368421052636" y="1426.0" type="curve"/>
      <point x="39.68421052631579" y="1426.0" type="line"/>
      <point x="115.78947368421052" y="1283.5263157894738"/>
      <point x="167.21052631578948" y="1181.6842105263158"/>
      <point x="229.94736842105263" y="1061.2105263157894" type="curve"/>
    </contour>
    <contour>
      <point x="515.1052631578947" y="0.0" type="curve"/>
      <point x="860.6842105263158" y="0.0" type="line"/>
      <point x="860.6842105263158" y="152.78947368421052"/>
      <point x="860.6842105263158" y="284.89473684210526"/>
      <point x="860.6842105263158" y="464.1578947368421" type="curve"/>
      <point x="860.6842105263158" y="787.5263157894738" type="line"/>
      <point x="515.1052631578947" y="787.5263157894738" type="line"/>
      <point x="515.1052631578947" y="464.1578947368421" type="line"/>
      <point x="515.1052631578947" y="284.89473684210526"/>
      <point x="515.1052631578947" y="152.78947368421052"/>
    </contour>
  </outline>
</glyph>
<glyph name="Z" format="2">
  <advance width="1377.2105263157896"/>
  <unicode hex="005A"/>
  <anchor x="688.9473684210526" y="0.0" name="bottom"/>
  <anchor x="688.9473684210526" y="714.0" name="center"/>
  <anchor x="688.9473684210526" y="1426.0" name="top"/>
  <outline>
    <contour>
      <point x="77.10526315789474" y="0.0" type="line"/>
      <point x="1296.6842105263158" y="0.0" type="line"/>
      <point x="1296.6842105263158" y="285.68421052631584" type="line"/>
      <point x="1156.842105263158" y="285.68421052631584"/>
      <point x="933.3684210526316" y="285.68421052631584"/>
      <point x="779.4736842105264" y="285.68421052631584" type="curve"/>
      <point x="458.3157894736842" y="285.68421052631584" type="line"/>
      <point x="483.68421052631584" y="175.78947368421055" type="line"/>
      <point x="974.8947368421053" y="797.8947368421052" type="line"/>
      <point x="1076.6315789473683" y="928.4736842105264"/>
      <point x="1179.0" y="1059.0526315789473"/>
      <point x="1285.421052631579" y="1194.3157894736842" type="curve"/>
      <point x="1285.421052631579" y="1426.0" type="line"/>
      <point x="98.3157894736842" y="1426.0" type="line"/>
      <point x="98.3157894736842" y="1140.3157894736842" type="line"/>
      <point x="274.2631578947368" y="1140.3157894736842"/>
      <point x="440.1578947368421" y="1140.3157894736842"/>
      <point x="586.0" y="1140.3157894736842" type="curve"/>
      <point x="939.8947368421052" y="1140.3157894736842" type="line"/>
      <point x="901.7894736842105" y="1244.7368421052631" type="line"/>
      <point x="427.57894736842104" y="632.5263157894736" type="line"/>
      <point x="322.57894736842104" y="497.36842105263156"/>
      <point x="174.73684210526315" y="306.0526315789474"/>
      <point x="77.10526315789474" y="180.26315789473685" type="curve"/>
    </contour>
  </outline>
</glyph>
<glyph name="bracketleft" format="2">
  <advance width="821.578947368421"/>
  <unicode hex="005B"/>
  <outline>
    <contour>
      <point x="148.31578947368422" y="-247.68421052631578" type="curve"/>
      <point x="432.68421052631584" y="-247.68421052631578" type="line"/>
      <point x="432.68421052631584" y="-192.31578947368422" type="line"/>
      <point x="432.68421052631584" y="-39.526315789473685"/>
      <point x="432.68421052631584" y="92.57894736842105"/>
      <point x="432.68421052631584" y="271.8421052631579" type="curve"/>
      <point x="432.68421052631584" y="1018.2631578947369" type="line"/>
      <point x="432.68421052631584" y="1202.7894736842106"/>
      <point x="432.68421052631584" y="1338.842105263158"/>
      <point x="432.68421052631584" y="1495.578947368421" type="curve"/>
      <point x="432.68421052631584" y="1550.2631578947369" type="line"/>
      <point x="148.31578947368422" y="1550.2631578947369" type="line"/>
      <point x="148.31578947368422" y="1393.5263157894738"/>
      <point x="148.31578947368422" y="1257.4736842105262"/>
      <point x="148.31578947368422" y="1072.9473684210527" type="curve"/>
      <point x="148.31578947368422" y="216.4736842105263" type="line"/>
      <point x="148.31578947368422" y="37.21052631578947"/>
      <point x="148.31578947368422" y="-94.89473684210526"/>
    </contour>
    <contour>
      <point x="394.36842105263156" y="-247.68421052631578" type="line"/>
      <point x="774.578947368421" y="-247.68421052631578" type="line"/>
      <point x="774.578947368421" y="0.47368421052632925" type="line"/>
      <point x="685.7894736842105" y="0.47368421052632925"/>
      <point x="593.6315789473684" y="0.47368421052632925"/>
      <point x="488.1578947368421" y="0.47368421052632925" type="curve"/>
      <point x="394.36842105263156" y="0.47368421052632925" type="line"/>
    </contour>
    <contour>
      <point x="373.3157894736842" y="1302.1052631578948" type="line"/>
      <point x="471.63157894736844" y="1302.1052631578948" type="line"/>
      <point x="598.4736842105264" y="1302.1052631578948"/>
      <point x="686.578947368421" y="1302.1052631578948"/>
      <point x="768.6842105263158" y="1302.1052631578948" type="curve"/>
      <point x="768.6842105263158" y="1550.2631578947369" type="line"/>
      <point x="373.3157894736842" y="1550.2631578947369" type="line"/>
    </contour>
  </outline>
</glyph>
<glyph name="backslash" format="2">
  <advance width="910.2105263157895"/>
  <unicode hex="005C"/>
  <outline>
    <contour>
      <point x="580.0" y="0.0" type="curve"/>
      <point x="881.5263157894736" y="0.0" type="line"/>
      <point x="824.0526315789474" y="148.0"/>
      <point x="775.9473684210526" y="274.0"/>
      <point x="705.1052631578948" y="456.0" type="curve"/>
      <point x="513.3157894736842" y="952.0" type="line"/>
      <point x="440.47368421052636" y="1140.6842105263158"/>
      <point x="389.68421052631584" y="1272.0"/>
      <point x="330.2105263157895" y="1426.0" type="curve"/>
      <point x="28.684210526315788" y="1426.0" type="line"/>
      <point x="88.15789473684211" y="1272.0"/>
      <point x="138.94736842105263" y="1142.0"/>
      <point x="213.78947368421052" y="948.0" type="curve"/>
      <point x="403.57894736842104" y="456.0" type="line"/>
      <point x="474.42105263157896" y="274.0"/>
      <point x="522.5263157894736" y="148.0"/>
    </contour>
  </outline>
</glyph>
<glyph name="asciicircum" format="2">
  <advance width="1269.4736842105262"/>
  <unicode hex="005E"/>
  <outline>
    <contour>
      <point x="896.2631578947369" y="715.6315789473684" type="curve"/>
      <point x="1175.5263157894738" y="718.9473684210526" type="line"/>
      <point x="1057.3157894736842" y="937.2631578947369"/>
      <point x="937.1052631578948" y="1157.578947368421"/>
      <point x="818.8947368421053" y="1375.8947368421052" type="curve"/>
      <point x="450.57894736842104" y="1375.8947368421052" type="line"/>
      <point x="332.36842105263156" y="1157.578947368421"/>
      <point x="212.1578947368421" y="941.2631578947369"/>
      <point x="93.94736842105263" y="722.9473684210526" type="curve"/>
      <point x="374.5263157894737" y="722.9473684210526" type="line"/>
      <point x="457.7368421052632" y="851.5263157894736"/>
      <point x="538.9473684210526" y="982.1052631578948"/>
      <point x="622.1578947368421" y="1110.6842105263158" type="curve"/>
      <point x="647.3157894736842" y="1110.6842105263158" type="line"/>
      <point x="730.5263157894736" y="978.7894736842105"/>
      <point x="813.0526315789474" y="847.5263157894736"/>
    </contour>
  </outline>
</glyph>
<glyph name="a" format="2">
  <advance width="1053.7864077669904"/>
  <unicode hex="0061"/>
  <anchor x="531.4757281553399" y="0.0" name="bottom"/>
  <anchor x="953.3980582524272" y="0.0" name="ogonek"/>
  <anchor x="531.4757281553399" y="998.9514563106795" name="top"/>
  <outline>
    <contour>
      <point x="352.2718446601942" y="-24.21359223300971" type="curve" smooth="yes"/>
      <point x="494.5825242718446" y="-24.21359223300971"/>
      <point x="590.8932038834951" y="55.04854368932038"/>
      <point x="644.6796116504854" y="134.64077669902912" type="curve"/>
      <point x="667.6310679611651" y="134.64077669902912" type="line"/>
      <point x="687.5339805825242" y="0.0" type="line"/>
      <point x="953.3980582524272" y="0.0" type="line"/>
      <point x="953.3980582524272" y="122.85436893203884"/>
      <point x="953.3980582524272" y="230.1359223300971"/>
      <point x="953.3980582524272" y="333.3009708737864" type="curve"/>
      <point x="953.3980582524272" y="422.7378640776699" type="line" smooth="yes"/>
      <point x="953.3980582524272" y="496.83495145631065"/>
      <point x="953.3980582524272" y="603.5728155339806"/>
      <point x="953.3980582524272" y="669.7864077669904" type="curve" smooth="yes"/>
      <point x="953.3980582524272" y="921.6893203883495"/>
      <point x="805.4951456310679" y="1025.9029126213593"/>
      <point x="554.6407766990292" y="1025.9029126213593" type="curve" smooth="yes"/>
      <point x="374.19417475728153" y="1025.9029126213593"/>
      <point x="213.02912621359224" y="983.6893203883495"/>
      <point x="113.55339805825243" y="947.9029126213592" type="curve"/>
      <point x="127.76699029126215" y="682.3495145631067" type="line"/>
      <point x="253.65048543689323" y="741.6116504854369"/>
      <point x="376.81553398058253" y="770.135922330097"/>
      <point x="468.81553398058253" y="770.135922330097" type="curve" smooth="yes"/>
      <point x="593.126213592233" y="770.135922330097"/>
      <point x="669.4174757281553" y="737.0873786407767"/>
      <point x="664.8932038834952" y="629.8834951456311" type="curve"/>
      <point x="388.6990291262136" y="585.6699029126213" type="line" smooth="yes"/>
      <point x="249.35922330097088" y="563.1456310679612"/>
      <point x="68.81553398058252" y="494.3106796116505"/>
      <point x="68.81553398058252" y="267.1456310679612" type="curve" smooth="yes"/>
      <point x="68.81553398058252" y="91.37864077669903"/>
      <point x="179.84466019417474" y="-24.21359223300971"/>
    </contour>
    <contour>
      <point x="479.495145631068" y="216.38834951456312" type="curve" smooth="yes"/>
      <point x="423.7281553398059" y="216.38834951456312"/>
      <point x="371.53398058252424" y="243.9611650485437"/>
      <point x="371.53398058252424" y="317.7281553398059" type="curve" smooth="yes"/>
      <point x="371.53398058252424" y="387.18446601941747"/>
      <point x="415.63106796116506" y="428.6407766990291"/>
      <point x="483.495145631068" y="443.1650485436893" type="curve" smooth="yes"/>
      <point x="601.9611650485436" y="467.4757281553398"/>
      <point x="633.1067961165049" y="478.2135922330097"/>
      <point x="656.6796116504854" y="496.21359223300965" type="curve"/>
      <point x="656.6796116504854" y="344.1165048543689" type="line"/>
      <point x="614.4854368932039" y="266.15533980582524"/>
      <point x="546.6213592233009" y="216.38834951456312"/>
    </contour>
  </outline>
</glyph>
<glyph name="b" format="2">
  <advance width="1184.6315789473683"/>
  <unicode hex="0062"/>
  <outline>
    <contour>
      <point x="717.3157894736842" y="-27.210526315789473" type="curve" smooth="yes"/>
      <point x="989.578947368421" y="-27.210526315789473"/>
      <point x="1115.8947368421052" y="222.6315789473684"/>
      <point x="1115.8947368421052" y="500.63157894736844" type="curve" smooth="yes"/>
      <point x="1115.8947368421052" y="797.2631578947369"/>
      <point x="978.1578947368421" y="1026.421052631579"/>
      <point x="714.6315789473684" y="1026.421052631579" type="curve" smooth="yes"/>
      <point x="597.5263157894738" y="1026.421052631579"/>
      <point x="508.42105263157896" y="978.1052631578948"/>
      <point x="455.68421052631584" y="897.6315789473684" type="curve"/>
      <point x="430.5263157894737" y="897.6315789473684" type="line"/>
      <point x="430.5263157894737" y="986.6842105263158" type="line"/>
      <point x="430.5263157894737" y="1171.157894736842"/>
      <point x="430.5263157894737" y="1335.0526315789473"/>
      <point x="430.5263157894737" y="1492.4736842105262" type="curve"/>
      <point x="117.89473684210526" y="1465.9473684210527" type="line"/>
      <point x="117.89473684210526" y="1307.4736842105262"/>
      <point x="117.89473684210526" y="1148.7894736842106"/>
      <point x="117.89473684210526" y="986.6842105263158" type="curve"/>
      <point x="117.89473684210526" y="431.4736842105263" type="line"/>
      <point x="117.89473684210526" y="265.5263157894737"/>
      <point x="117.89473684210526" y="142.10526315789474"/>
      <point x="117.89473684210526" y="0.0" type="curve"/>
      <point x="364.0526315789474" y="0.0" type="line"/>
      <point x="398.2631578947369" y="122.89473684210526" type="line"/>
      <point x="419.47368421052636" y="122.89473684210526" type="line"/>
      <point x="490.3157894736842" y="30.105263157894736"/>
      <point x="584.5263157894738" y="-27.210526315789473"/>
    </contour>
    <contour>
      <point x="597.578947368421" y="238.10526315789474" type="curve"/>
      <point x="519.2105263157895" y="238.10526315789474"/>
      <point x="464.47368421052636" y="280.5263157894737"/>
      <point x="430.5263157894737" y="344.0526315789474" type="curve"/>
      <point x="430.5263157894737" y="673.2631578947369" type="line"/>
      <point x="468.42105263157896" y="726.7894736842105"/>
      <point x="530.6315789473684" y="757.1578947368421"/>
      <point x="596.2105263157895" y="757.1578947368421" type="curve"/>
      <point x="730.578947368421" y="757.1578947368421"/>
      <point x="796.0" y="638.7368421052631"/>
      <point x="796.0" y="498.0" type="curve" smooth="yes"/>
      <point x="796.0" y="364.63157894736844"/>
      <point x="732.6842105263158" y="238.10526315789474"/>
    </contour>
  </outline>
</glyph>
<glyph name="c" format="2">
  <advance width="967.1578947368421"/>
  <unicode hex="0063"/>
  <anchor x="558.9473684210526" y="0.0" name="bottom"/>
  <anchor x="552.7894736842105" y="998.5263157894736" name="top"/>
  <outline>
    <contour>
      <point x="598.7894736842105" y="-21.94736842105263" type="curve" smooth="yes"/>
      <point x="734.6315789473684" y="-21.94736842105263"/>
      <point x="830.7368421052631" y="-0.4210526315789487"/>
      <point x="900.6315789473684" y="28.368421052631575" type="curve"/>
      <point x="885.3157894736842" y="297.68421052631584" type="line"/>
      <point x="819.0526315789474" y="254.21052631578948"/>
      <point x="745.421052631579" y="234.1578947368421"/>
      <point x="671.1578947368421" y="234.1578947368421" type="curve" smooth="yes"/>
      <point x="485.8421052631579" y="234.1578947368421"/>
      <point x="384.68421052631584" y="346.63157894736844"/>
      <point x="384.68421052631584" y="506.5263157894737" type="curve" smooth="yes"/>
      <point x="384.68421052631584" y="662.1052631578947"/>
      <point x="478.89473684210526" y="761.1052631578947"/>
      <point x="623.578947368421" y="761.1052631578947" type="curve"/>
      <point x="681.8947368421053" y="761.1052631578947"/>
      <point x="765.421052631579" y="749.6842105263158"/>
      <point x="879.3684210526316" y="684.3684210526316" type="curve"/>
      <point x="902.5263157894736" y="953.6842105263158" type="line"/>
      <point x="821.2631578947369" y="997.6842105263158"/>
      <point x="698.7368421052631" y="1025.1052631578948"/>
      <point x="579.4736842105264" y="1025.1052631578948" type="curve" smooth="yes"/>
      <point x="238.1578947368421" y="1025.1052631578948"/>
      <point x="66.10526315789474" y="800.4736842105264"/>
      <point x="66.10526315789474" y="497.3157894736842" type="curve" smooth="yes"/>
      <point x="66.10526315789474" y="196.1578947368421"/>
      <point x="257.2105263157895" y="-21.94736842105263"/>
    </contour>
  </outline>
</glyph>
<glyph name="d" format="2">
  <advance width="1171.6315789473683"/>
  <unicode hex="0064"/>
  <anchor x="633.0526315789474" y="0.0" name="bottom"/>
  <anchor x="587.2105263157895" y="499.2631578947368" name="center"/>
  <anchor x="633.0526315789474" y="1459.157894736842" name="top"/>
  <anchor x="1132.1052631578948" y="998.5263157894736" name="topright"/>
  <outline>
    <contour>
      <point x="467.3157894736842" y="-27.210526315789473" type="curve" smooth="yes"/>
      <point x="594.8421052631579" y="-27.210526315789473"/>
      <point x="689.0526315789474" y="27.473684210526315"/>
      <point x="761.2105263157895" y="130.78947368421052" type="curve"/>
      <point x="782.421052631579" y="130.78947368421052" type="line"/>
      <point x="802.1578947368421" y="0.0" type="line"/>
      <point x="1066.7368421052631" y="0.0" type="line"/>
      <point x="1066.7368421052631" y="142.10526315789474"/>
      <point x="1066.7368421052631" y="265.5263157894737"/>
      <point x="1066.7368421052631" y="431.4736842105263" type="curve"/>
      <point x="1066.7368421052631" y="986.6842105263158" type="line"/>
      <point x="1066.7368421052631" y="1171.157894736842"/>
      <point x="1066.7368421052631" y="1335.0526315789473"/>
      <point x="1066.7368421052631" y="1492.4736842105262" type="curve"/>
      <point x="754.1052631578948" y="1465.9473684210527" type="line"/>
      <point x="754.1052631578948" y="1304.842105263158"/>
      <point x="754.1052631578948" y="1148.7894736842106"/>
      <point x="754.1052631578948" y="986.6842105263158" type="curve"/>
      <point x="754.1052631578948" y="897.6315789473684" type="line"/>
      <point x="728.9473684210526" y="897.6315789473684" type="line"/>
      <point x="675.5263157894736" y="978.7894736842105"/>
      <point x="587.1052631578948" y="1026.421052631579"/>
      <point x="470.0" y="1026.421052631579" type="curve" smooth="yes"/>
      <point x="206.4736842105263" y="1026.421052631579"/>
      <point x="68.73684210526315" y="797.2631578947369"/>
      <point x="68.73684210526315" y="500.63157894736844" type="curve" smooth="yes"/>
      <point x="68.73684210526315" y="222.6315789473684"/>
      <point x="195.05263157894737" y="-27.210526315789473"/>
    </contour>
    <contour>
      <point x="587.0526315789474" y="238.10526315789474" type="curve"/>
      <point x="451.9473684210526" y="238.10526315789474"/>
      <point x="388.63157894736844" y="364.63157894736844"/>
      <point x="388.63157894736844" y="498.0" type="curve" smooth="yes"/>
      <point x="388.63157894736844" y="638.7368421052631"/>
      <point x="454.0526315789474" y="757.1578947368421"/>
      <point x="588.421052631579" y="757.1578947368421" type="curve"/>
      <point x="654.0" y="757.1578947368421"/>
      <point x="716.2105263157895" y="726.7894736842105"/>
      <point x="754.1052631578948" y="673.2631578947369" type="curve"/>
      <point x="754.1052631578948" y="344.0526315789474" type="line"/>
      <point x="720.1578947368421" y="280.5263157894737"/>
      <point x="665.421052631579" y="238.10526315789474"/>
    </contour>
  </outline>
</glyph>
<glyph name="e" format="2">
  <advance width="1053.2621359223301"/>
  <unicode hex="0065"/>
  <anchor x="558.0970873786407" y="0.0" name="bottom"/>
  <anchor x="831.3009708737864" y="0.0" name="ogonek"/>
  <anchor x="551.7864077669902" y="998.9514563106795" name="top"/>
  <outline>
    <contour>
      <point x="623.4757281553399" y="-26.95145631067961" type="curve" smooth="yes"/>
      <point x="775.8058252427185" y="-26.95145631067961"/>
      <point x="895.2815533980582" y="1.7864077669902905"/>
      <point x="972.757281553398" y="36.83495145631068" type="curve"/>
      <point x="962.5436893203884" y="299.86407766990294" type="line"/>
      <point x="867.8058252427185" y="252.07766990291265"/>
      <point x="739.1650485436893" y="230.07766990291265"/>
      <point x="661.2815533980582" y="230.07766990291265" type="curve" smooth="yes"/>
      <point x="459.94174757281553" y="230.07766990291265"/>
      <point x="369.9611650485437" y="327.7281553398058"/>
      <point x="369.9611650485437" y="497.2621359223301" type="curve"/>
      <point x="369.9611650485437" y="548.757281553398" type="line"/>
      <point x="369.9611650485437" y="710.3106796116505"/>
      <point x="448.252427184466" y="807.009708737864"/>
      <point x="555.0485436893205" y="807.009708737864" type="curve"/>
      <point x="647.2233009708738" y="807.009708737864"/>
      <point x="714.0388349514562" y="730.0776699029126"/>
      <point x="714.0388349514562" y="600.9514563106795" type="curve" smooth="yes"/>
      <point x="714.0388349514562" y="584.4271844660194"/>
      <point x="712.0388349514562" y="565.1650485436893"/>
      <point x="710.0388349514562" y="547.9029126213593" type="curve"/>
      <point x="980.5436893203884" y="448.62135922330094" type="line"/>
      <point x="986.5436893203884" y="489.3592233009709"/>
      <point x="989.2815533980582" y="528.0970873786407"/>
      <point x="989.2815533980582" y="582.3106796116505" type="curve" smooth="yes"/>
      <point x="989.2815533980582" y="882.8543689320388"/>
      <point x="826.8543689320388" y="1025.9029126213593"/>
      <point x="552.3106796116505" y="1025.9029126213593" type="curve" smooth="yes"/>
      <point x="229.8640776699029" y="1025.9029126213593"/>
      <point x="66.29126213592232" y="809.6893203883495"/>
      <point x="66.29126213592232" y="502.0" type="curve" smooth="yes"/>
      <point x="66.29126213592232" y="193.04854368932038"/>
      <point x="233.76699029126212" y="-26.95145631067961"/>
    </contour>
    <contour>
      <point x="186.85436893203882" y="448.62135922330094" type="line"/>
      <point x="980.5436893203884" y="448.62135922330094" type="line"/>
      <point x="980.5436893203884" y="575.8058252427185" type="line"/>
      <point x="798.4854368932039" y="625.0485436893205" type="line"/>
      <point x="186.85436893203882" y="611.3592233009709" type="line"/>
    </contour>
  </outline>
</glyph>
<glyph name="f" format="2">
  <advance width="821.9473684210526"/>
  <unicode hex="0066"/>
  <outline>
    <contour>
      <point x="198.21052631578948" y="0.0" type="curve"/>
      <point x="510.8421052631579" y="0.0" type="line"/>
      <point x="510.8421052631579" y="142.10526315789474"/>
      <point x="510.8421052631579" y="265.5263157894737"/>
      <point x="510.8421052631579" y="431.4736842105263" type="curve"/>
      <point x="510.8421052631579" y="946.8421052631579" type="line"/>
      <point x="497.68421052631584" y="998.5263157894736" type="line"/>
      <point x="497.68421052631584" y="1017.9473684210526"/>
      <point x="497.68421052631584" y="1060.3684210526317"/>
      <point x="497.68421052631584" y="1085.421052631579" type="curve" smooth="yes"/>
      <point x="497.68421052631584" y="1189.842105263158"/>
      <point x="550.6842105263158" y="1237.157894736842"/>
      <point x="653.8947368421053" y="1237.157894736842" type="curve" smooth="yes"/>
      <point x="702.0" y="1237.157894736842"/>
      <point x="752.6315789473684" y="1225.2105263157894"/>
      <point x="800.5263157894736" y="1207.2631578947369" type="curve"/>
      <point x="824.3157894736842" y="1462.0526315789473" type="line"/>
      <point x="781.0526315789474" y="1478.6842105263158"/>
      <point x="698.0526315789474" y="1494.578947368421"/>
      <point x="603.8947368421053" y="1494.578947368421" type="curve" smooth="yes"/>
      <point x="391.57894736842104" y="1494.578947368421"/>
      <point x="198.21052631578948" y="1412.4736842105262"/>
      <point x="198.21052631578948" y="1093.3157894736842" type="curve" smooth="yes"/>
      <point x="198.21052631578948" y="920.7894736842105"/>
      <point x="198.21052631578948" y="688.9473684210526"/>
      <point x="198.21052631578948" y="531.4736842105264" type="curve"/>
      <point x="198.21052631578948" y="431.4736842105263" type="line"/>
      <point x="198.21052631578948" y="265.5263157894737"/>
      <point x="198.21052631578948" y="142.10526315789474"/>
    </contour>
    <contour>
      <point x="35.63157894736842" y="764.8947368421052" type="line"/>
      <point x="287.2631578947368" y="764.8947368421052" type="line"/>
      <point x="426.9473684210526" y="764.8947368421052" type="line"/>
      <point x="543.2105263157895" y="764.8947368421052"/>
      <point x="654.2105263157895" y="764.8947368421052"/>
      <point x="778.421052631579" y="764.8947368421052" type="curve"/>
      <point x="778.421052631579" y="998.5263157894736" type="line"/>
      <point x="35.63157894736842" y="998.5263157894736" type="line"/>
    </contour>
  </outline>
</glyph>
<glyph name="g" format="2">
  <advance width="1100.8543689320388"/>
  <unicode hex="0067"/>
  <anchor x="549.9029126213592" y="-384.0" name="bottom"/>
  <anchor x="549.9029126213592" y="998.9514563106795" name="top"/>
  <outline>
    <contour>
      <point x="476.621359223301" y="-409.47572815533977" type="curve" smooth="yes"/>
      <point x="740.1165048543689" y="-409.47572815533977"/>
      <point x="1043.8252427184466" y="-307.16504854368935"/>
      <point x="1043.8252427184466" y="-28.815533980582515" type="curve" smooth="yes"/>
      <point x="1043.8252427184466" y="174.36893203883497"/>
      <point x="888.8543689320388" y="230.15533980582524"/>
      <point x="637.3980582524272" y="230.15533980582524" type="curve" smooth="yes"/>
      <point x="597.6116504854369" y="230.15533980582524" type="line" smooth="yes"/>
      <point x="486.79611650485435" y="230.15533980582524"/>
      <point x="439.4368932038835" y="239.94174757281556"/>
      <point x="439.4368932038835" y="278.77669902912623" type="curve" smooth="yes"/>
      <point x="439.4368932038835" y="317.3009708737864"/>
      <point x="489.3203883495146" y="331.0873786407767"/>
      <point x="597.8252427184466" y="354.6601941747573" type="curve" smooth="yes"/>
      <point x="776.2330097087379" y="392.9708737864078"/>
      <point x="921.0873786407767" y="486.33009708737865"/>
      <point x="921.0873786407767" y="678.73786407767" type="curve" smooth="yes"/>
      <point x="921.0873786407767" y="786.0970873786408"/>
      <point x="882.252427184466" y="870.9320388349514"/>
      <point x="799.9611650485436" y="926.9320388349514" type="curve"/>
      <point x="718.252427184466" y="799.747572815534" type="line"/>
      <point x="834.3495145631068" y="799.747572815534"/>
      <point x="942.9708737864078" y="799.747572815534"/>
      <point x="1066.5436893203885" y="799.747572815534" type="curve"/>
      <point x="1066.5436893203885" y="1003.1650485436893" type="line"/>
      <point x="795.7281553398059" y="1003.1650485436893" type="line" smooth="yes"/>
      <point x="657.7087378640776" y="1003.1650485436893"/>
      <point x="606.757281553398" y="1025.9029126213593"/>
      <point x="493.1650485436893" y="1025.9029126213593" type="curve" smooth="yes"/>
      <point x="198.9126213592233" y="1025.9029126213593"/>
      <point x="62.291262135922324" y="879.0485436893205"/>
      <point x="62.291262135922324" y="692.7378640776699" type="curve" smooth="yes"/>
      <point x="62.291262135922324" y="509.5922330097087"/>
      <point x="188.27184466019418" y="419.37864077669906"/>
      <point x="277.4563106796116" y="383.4757281553398" type="curve"/>
      <point x="277.4563106796116" y="362.5242718446602" type="line"/>
      <point x="189.76699029126212" y="326.73786407766994"/>
      <point x="153.55339805825244" y="263.5728155339806"/>
      <point x="153.55339805825244" y="197.5728155339806" type="curve" smooth="yes"/>
      <point x="153.55339805825244" y="107.2621359223301"/>
      <point x="222.07766990291262" y="59.35922330097087"/>
      <point x="265.3592233009709" y="48.62135922330096" type="curve"/>
      <point x="265.3592233009709" y="27.669902912621357" type="line"/>
      <point x="197.98058252427185" y="7.669902912621357"/>
      <point x="80.71844660194174" y="-47.90291262135922"/>
      <point x="80.71844660194174" y="-179.6893203883495" type="curve" smooth="yes"/>
      <point x="80.71844660194174" y="-298.6407766990292"/>
      <point x="173.66990291262135" y="-409.47572815533977"/>
    </contour>
    <contour>
      <point x="516.6407766990291" y="-197.22330097087377" type="curve"/>
      <point x="396.252427184466" y="-197.22330097087377"/>
      <point x="344.8932038834951" y="-155.76699029126212"/>
      <point x="344.8932038834951" y="-109.88349514563106" type="curve" smooth="yes"/>
      <point x="344.8932038834951" y="-50.0"/>
      <point x="437.49514563106794" y="-13.28155339805826"/>
      <point x="516.5242718446601" y="-7.805825242718452" type="curve"/>
      <point x="546.8349514563107" y="-7.805825242718452" type="line" smooth="yes"/>
      <point x="716.5825242718447" y="-7.805825242718452"/>
      <point x="751.7281553398059" y="-38.11650485436894"/>
      <point x="751.7281553398059" y="-85.0485436893204" type="curve" smooth="yes"/>
      <point x="751.7281553398059" y="-125.14563106796115"/>
      <point x="675.4368932038835" y="-197.22330097087377"/>
    </contour>
    <contour>
      <point x="488.11650485436894" y="520.873786407767" type="curve"/>
      <point x="414.77669902912623" y="534.6601941747573"/>
      <point x="348.1747572815534" y="584.3300970873786"/>
      <point x="348.1747572815534" y="657.242718446602" type="curve" smooth="yes"/>
      <point x="348.1747572815534" y="732.1553398058252"/>
      <point x="418.56310679611653" y="777.8252427184466"/>
      <point x="495.06796116504853" y="777.8252427184466" type="curve"/>
      <point x="574.5242718446601" y="777.8252427184466"/>
      <point x="650.6990291262136" y="734.6796116504854"/>
      <point x="650.6990291262136" y="648.9320388349514" type="curve" smooth="yes"/>
      <point x="650.6990291262136" y="563.495145631068"/>
      <point x="557.2621359223301" y="527.1844660194175"/>
    </contour>
  </outline>
</glyph>
<glyph name="h" format="2">
  <advance width="1157.7368421052631"/>
  <unicode hex="0068"/>
  <guideline x="131.94736842105263" y="738.8947368421053" angle="4.47079999999994"/>
  <anchor x="587.9473684210526" y="0.0" name="bottom"/>
  <anchor x="587.9473684210526" y="818.0" name="center"/>
  <anchor x="545.3157894736842" y="1459.157894736842" name="top"/>
  <outline>
    <contour>
      <point x="117.89473684210526" y="0.0" type="curve"/>
      <point x="430.5263157894737" y="0.0" type="line"/>
      <point x="430.5263157894737" y="142.10526315789474"/>
      <point x="430.5263157894737" y="265.5263157894737"/>
      <point x="430.5263157894737" y="414.36842105263156" type="curve"/>
      <point x="430.5263157894737" y="618.9473684210526" type="line"/>
      <point x="475.7894736842105" y="686.578947368421"/>
      <point x="536.578947368421" y="741.3684210526316"/>
      <point x="617.7894736842105" y="741.3684210526316" type="curve" smooth="yes"/>
      <point x="713.0" y="741.3684210526316"/>
      <point x="744.0526315789474" y="683.4736842105262"/>
      <point x="744.0526315789474" y="571.7368421052631" type="curve"/>
      <point x="744.0526315789474" y="414.36842105263156" type="line"/>
      <point x="744.0526315789474" y="268.2631578947368"/>
      <point x="744.0526315789474" y="142.10526315789474"/>
      <point x="744.0526315789474" y="0.0" type="curve"/>
      <point x="1056.6842105263158" y="0.0" type="line"/>
      <point x="1056.6842105263158" y="142.10526315789474"/>
      <point x="1056.6842105263158" y="268.2631578947368"/>
      <point x="1056.6842105263158" y="431.4736842105263" type="curve"/>
      <point x="1056.6842105263158" y="512.7368421052631"/>
      <point x="1056.6842105263158" y="584.421052631579"/>
      <point x="1056.6842105263158" y="673.0526315789474" type="curve" smooth="yes"/>
      <point x="1056.6842105263158" y="907.6315789473684"/>
      <point x="951.6315789473684" y="1026.421052631579"/>
      <point x="752.6842105263158" y="1026.421052631579" type="curve" smooth="yes"/>
      <point x="612.0526315789474" y="1026.421052631579"/>
      <point x="517.0" y="947.8421052631579"/>
      <point x="457.0" y="862.5263157894736" type="curve"/>
      <point x="430.5263157894737" y="862.5263157894736" type="line"/>
      <point x="430.5263157894737" y="986.6842105263158" type="line"/>
      <point x="430.5263157894737" y="1171.157894736842"/>
      <point x="430.5263157894737" y="1335.7368421052631"/>
      <point x="430.5263157894737" y="1492.4736842105262" type="curve"/>
      <point x="117.89473684210526" y="1465.9473684210527" type="line"/>
      <point x="117.89473684210526" y="1306.7894736842106"/>
      <point x="117.89473684210526" y="1148.7894736842106"/>
      <point x="117.89473684210526" y="986.6842105263158" type="curve"/>
      <point x="117.89473684210526" y="431.4736842105263" type="line"/>
      <point x="117.89473684210526" y="265.5263157894737"/>
      <point x="117.89473684210526" y="142.10526315789474"/>
    </contour>
  </outline>
</glyph>
<glyph name="k" format="2">
  <advance width="1155.0526315789473"/>
  <unicode hex="006B"/>
  <anchor x="583.3684210526316" y="0.0" name="bottom"/>
  <anchor x="583.3684210526316" y="1459.157894736842" name="top"/>
  <outline>
    <contour>
      <point x="754.3684210526316" y="0.0" type="curve"/>
      <point x="1136.578947368421" y="0.0" type="line"/>
      <point x="1042.0" y="121.89473684210526"/>
      <point x="945.421052631579" y="244.42105263157896"/>
      <point x="850.8421052631579" y="366.3157894736842" type="curve"/>
      <point x="675.578947368421" y="599.578947368421" type="line"/>
      <point x="690.0526315789474" y="461.57894736842104" type="line"/>
      <point x="828.7894736842105" y="638.1052631578947" type="line"/>
      <point x="924.6315789473684" y="758.6842105263158"/>
      <point x="1018.4736842105264" y="877.9473684210526"/>
      <point x="1114.3157894736842" y="998.5263157894736" type="curve"/>
      <point x="751.2631578947369" y="998.5263157894736" type="line"/>
      <point x="692.5263157894736" y="912.3684210526316"/>
      <point x="633.1052631578948" y="826.8421052631579"/>
      <point x="574.3684210526316" y="740.6842105263158" type="curve"/>
      <point x="477.8421052631579" y="600.421052631579" type="line"/>
      <point x="404.68421052631584" y="600.421052631579" type="line"/>
      <point x="404.68421052631584" y="394.42105263157896" type="line"/>
      <point x="473.0526315789474" y="394.42105263157896" type="line"/>
      <point x="581.9473684210526" y="242.68421052631578" type="line"/>
      <point x="639.421052631579" y="161.78947368421052"/>
      <point x="696.8947368421052" y="80.89473684210526"/>
    </contour>
    <contour>
      <point x="117.89473684210526" y="0.0" type="curve"/>
      <point x="430.5263157894737" y="0.0" type="line"/>
      <point x="430.5263157894737" y="126.3157894736842"/>
      <point x="430.5263157894737" y="236.57894736842104"/>
      <point x="430.5263157894737" y="369.63157894736844" type="curve"/>
      <point x="430.5263157894737" y="986.6842105263158" type="line"/>
      <point x="430.5263157894737" y="1171.157894736842"/>
      <point x="430.5263157894737" y="1335.7368421052631"/>
      <point x="430.5263157894737" y="1492.4736842105262" type="curve"/>
      <point x="117.89473684210526" y="1465.9473684210527" type="line"/>
      <point x="117.89473684210526" y="1306.7894736842106"/>
      <point x="117.89473684210526" y="1148.7894736842106"/>
      <point x="117.89473684210526" y="986.6842105263158" type="curve"/>
      <point x="117.89473684210526" y="431.4736842105263" type="line"/>
      <point x="117.89473684210526" y="265.5263157894737"/>
      <point x="117.89473684210526" y="142.10526315789474"/>
    </contour>
  </outline>
</glyph>
<glyph name="l" format="2">
  <advance width="548.421052631579"/>
  <unicode hex="006C"/>
  <anchor x="274.2105263157895" y="0.0" name="bottom"/>
  <anchor x="280.7894736842105" y="818.0" name="center"/>
  <anchor x="274.2105263157895" y="1459.157894736842" name="top"/>
  <anchor x="495.89473684210526" y="998.5263157894736" name="topright"/>
  <outline>
    <contour>
      <point x="117.89473684210526" y="0.0" type="curve"/>
      <point x="430.5263157894737" y="0.0" type="line"/>
      <point x="430.5263157894737" y="142.10526315789474"/>
      <point x="430.5263157894737" y="265.5263157894737"/>
      <point x="430.5263157894737" y="431.4736842105263" type="curve"/>
      <point x="430.5263157894737" y="986.6842105263158" type="line"/>
      <point x="430.5263157894737" y="1171.157894736842"/>
      <point x="430.5263157894737" y="1335.0526315789473"/>
      <point x="430.5263157894737" y="1492.4736842105262" type="curve"/>
      <point x="117.89473684210526" y="1465.9473684210527" type="line"/>
      <point x="117.89473684210526" y="1307.4736842105262"/>
      <point x="117.89473684210526" y="1148.7894736842106"/>
      <point x="117.89473684210526" y="986.6842105263158" type="curve"/>
      <point x="117.89473684210526" y="431.4736842105263" type="line"/>
      <point x="117.89473684210526" y="265.5263157894737"/>
      <point x="117.89473684210526" y="142.10526315789474"/>
    </contour>
  </outline>
</glyph>
<glyph name="m" format="2">
  <advance width="1745.3157894736842"/>
  <unicode hex="006D"/>
  <anchor x="882.7894736842105" y="0.0" name="bottom"/>
  <anchor x="882.7894736842105" y="998.5263157894736" name="top"/>
  <outline>
    <contour>
      <point x="117.89473684210526" y="0.0" type="curve"/>
      <point x="430.5263157894737" y="0.0" type="line"/>
      <point x="430.5263157894737" y="142.10526315789474"/>
      <point x="430.5263157894737" y="265.5263157894737"/>
      <point x="430.5263157894737" y="414.36842105263156" type="curve"/>
      <point x="430.5263157894737" y="618.9473684210526" type="line"/>
      <point x="473.10526315789474" y="685.2105263157895"/>
      <point x="531.1578947368421" y="741.3684210526316"/>
      <point x="607.6315789473684" y="741.3684210526316" type="curve" smooth="yes"/>
      <point x="696.7894736842105" y="741.3684210526316"/>
      <point x="726.4736842105262" y="683.4736842105262"/>
      <point x="726.4736842105262" y="571.7368421052631" type="curve"/>
      <point x="726.4736842105262" y="414.36842105263156" type="line"/>
      <point x="726.4736842105262" y="268.2631578947368"/>
      <point x="726.4736842105262" y="142.10526315789474"/>
      <point x="726.4736842105262" y="0.0" type="curve"/>
      <point x="1039.1052631578948" y="0.0" type="line"/>
      <point x="1039.1052631578948" y="142.10526315789474"/>
      <point x="1039.1052631578948" y="268.2631578947368"/>
      <point x="1039.1052631578948" y="431.4736842105263" type="curve"/>
      <point x="1039.1052631578948" y="512.7368421052631"/>
      <point x="1039.1052631578948" y="584.421052631579"/>
      <point x="1039.1052631578948" y="673.0526315789474" type="curve" smooth="yes"/>
      <point x="1039.1052631578948" y="720.2631578947369"/>
      <point x="1034.4736842105262" y="762.1578947368421"/>
      <point x="1026.5263157894738" y="801.421052631579" type="curve"/>
      <point x="1004.7894736842105" y="804.1578947368421" type="line"/>
      <point x="975.5263157894736" y="947.0"/>
      <point x="894.7894736842105" y="1026.421052631579"/>
      <point x="741.8947368421053" y="1026.421052631579" type="curve" smooth="yes"/>
      <point x="590.2105263157895" y="1026.421052631579"/>
      <point x="487.36842105263156" y="939.9473684210526"/>
      <point x="420.1578947368421" y="842.1578947368421" type="curve"/>
      <point x="393.6842105263158" y="842.1578947368421" type="line"/>
      <point x="380.5263157894737" y="1013.7368421052631" type="line"/>
      <point x="117.89473684210526" y="998.5263157894736" type="line"/>
      <point x="117.89473684210526" y="838.6842105263158"/>
      <point x="117.89473684210526" y="684.0"/>
      <point x="117.89473684210526" y="531.4736842105264" type="curve"/>
      <point x="117.89473684210526" y="431.4736842105263" type="line"/>
      <point x="117.89473684210526" y="265.5263157894737"/>
      <point x="117.89473684210526" y="142.10526315789474"/>
    </contour>
    <contour>
      <point x="1331.6315789473683" y="0.0" type="curve"/>
      <point x="1644.2631578947369" y="0.0" type="line"/>
      <point x="1644.2631578947369" y="142.10526315789474"/>
      <point x="1644.2631578947369" y="268.2631578947368"/>
      <point x="1644.2631578947369" y="431.4736842105263" type="curve"/>
      <point x="1644.2631578947369" y="512.7368421052631"/>
      <point x="1644.2631578947369" y="584.421052631579"/>
      <point x="1644.2631578947369" y="673.0526315789474" type="curve" smooth="yes"/>
      <point x="1644.2631578947369" y="904.8947368421053"/>
      <point x="1544.6315789473683" y="1026.421052631579"/>
      <point x="1348.3684210526317" y="1026.421052631579" type="curve" smooth="yes"/>
      <point x="1192.7368421052631" y="1026.421052631579"/>
      <point x="1085.9473684210527" y="939.9473684210526"/>
      <point x="1014.6842105263158" y="840.1052631578948" type="curve"/>
      <point x="988.2105263157895" y="840.1052631578948" type="line"/>
      <point x="1034.3684210526317" y="618.9473684210526" type="line"/>
      <point x="1077.578947368421" y="686.578947368421"/>
      <point x="1136.3157894736842" y="741.3684210526316"/>
      <point x="1212.7894736842104" y="741.3684210526316" type="curve" smooth="yes"/>
      <point x="1301.9473684210527" y="741.3684210526316"/>
      <point x="1331.6315789473683" y="683.4736842105262"/>
      <point x="1331.6315789473683" y="571.7368421052631" type="curve"/>
      <point x="1331.6315789473683" y="414.36842105263156" type="line"/>
      <point x="1331.6315789473683" y="268.2631578947368"/>
      <point x="1331.6315789473683" y="142.10526315789474"/>
    </contour>
  </outline>
</glyph>
<glyph name="n" format="2">
  <advance width="1157.7368421052631"/>
  <unicode hex="006E"/>
  <anchor x="587.3157894736842" y="0.0" name="bottom"/>
  <anchor x="587.3157894736842" y="998.5263157894736" name="top"/>
  <outline>
    <contour>
      <point x="117.89473684210526" y="0.0" type="curve"/>
      <point x="430.5263157894737" y="0.0" type="line"/>
      <point x="430.5263157894737" y="142.10526315789474"/>
      <point x="430.5263157894737" y="265.5263157894737"/>
      <point x="430.5263157894737" y="414.36842105263156" type="curve"/>
      <point x="430.5263157894737" y="618.9473684210526" type="line"/>
      <point x="475.7894736842105" y="686.578947368421"/>
      <point x="536.578947368421" y="741.3684210526316"/>
      <point x="617.7894736842105" y="741.3684210526316" type="curve" smooth="yes"/>
      <point x="713.0" y="741.3684210526316"/>
      <point x="744.0526315789474" y="683.4736842105262"/>
      <point x="744.0526315789474" y="571.7368421052631" type="curve"/>
      <point x="744.0526315789474" y="414.36842105263156" type="line"/>
      <point x="744.0526315789474" y="268.2631578947368"/>
      <point x="744.0526315789474" y="142.10526315789474"/>
      <point x="744.0526315789474" y="0.0" type="curve"/>
      <point x="1056.6842105263158" y="0.0" type="line"/>
      <point x="1056.6842105263158" y="142.10526315789474"/>
      <point x="1056.6842105263158" y="268.2631578947368"/>
      <point x="1056.6842105263158" y="431.4736842105263" type="curve"/>
      <point x="1056.6842105263158" y="512.7368421052631"/>
      <point x="1056.6842105263158" y="584.421052631579"/>
      <point x="1056.6842105263158" y="673.0526315789474" type="curve" smooth="yes"/>
      <point x="1056.6842105263158" y="907.6315789473684"/>
      <point x="951.6315789473684" y="1026.421052631579"/>
      <point x="752.6842105263158" y="1026.421052631579" type="curve" smooth="yes"/>
      <point x="594.9473684210526" y="1026.421052631579"/>
      <point x="488.0526315789474" y="939.9473684210526"/>
      <point x="420.1578947368421" y="841.4736842105264" type="curve"/>
      <point x="393.6842105263158" y="841.4736842105264" type="line"/>
      <point x="380.5263157894737" y="1013.7368421052631" type="line"/>
      <point x="117.89473684210526" y="998.5263157894736" type="line"/>
      <point x="117.89473684210526" y="838.6842105263158"/>
      <point x="117.89473684210526" y="684.0"/>
      <point x="117.89473684210526" y="531.4736842105264" type="curve"/>
      <point x="117.89473684210526" y="431.4736842105263" type="line"/>
      <point x="117.89473684210526" y="265.5263157894737"/>
      <point x="117.89473684210526" y="142.10526315789474"/>
    </contour>
  </outline>
</glyph>
<glyph name="o" format="2">
  <advance width="1195.3157894736842"/>
  <unicode hex="006F"/>
  <anchor x="597.3157894736842" y="0.0" name="bottom"/>
  <anchor x="597.3157894736842" y="499.2631578947368" name="center"/>
  <anchor x="781.2631578947369" y="0.0" name="ogonek"/>
  <anchor x="597.3157894736842" y="998.5263157894736" name="top"/>
  <anchor x="1049.6842105263158" y="998.5263157894736" name="topright"/>
  <outline>
    <contour>
      <point x="602.6315789473684" y="-27.210526315789473" type="curve" smooth="yes"/>
      <point x="939.8947368421053" y="-27.210526315789473"/>
      <point x="1129.2105263157896" y="200.1578947368421"/>
      <point x="1129.2105263157896" y="502.0" type="curve" smooth="yes"/>
      <point x="1129.2105263157896" y="796.578947368421"/>
      <point x="952.4736842105264" y="1026.421052631579"/>
      <point x="596.0526315789474" y="1026.421052631579" type="curve" smooth="yes"/>
      <point x="248.94736842105263" y="1026.421052631579"/>
      <point x="66.10526315789474" y="800.6315789473684"/>
      <point x="66.10526315789474" y="502.0" type="curve" smooth="yes"/>
      <point x="66.10526315789474" y="223.3684210526316"/>
      <point x="234.89473684210526" y="-27.210526315789473"/>
    </contour>
    <contour>
      <point x="601.3157894736842" y="227.57894736842107" type="curve"/>
      <point x="458.8421052631579" y="227.57894736842107"/>
      <point x="384.68421052631584" y="358.7894736842105"/>
      <point x="384.68421052631584" y="502.0" type="curve" smooth="yes"/>
      <point x="384.68421052631584" y="654.578947368421"/>
      <point x="460.2631578947369" y="771.6315789473684"/>
      <point x="600.0" y="771.6315789473684" type="curve"/>
      <point x="725.6842105263158" y="771.6315789473684"/>
      <point x="810.6315789473684" y="671.8947368421052"/>
      <point x="810.6315789473684" y="502.0" type="curve" smooth="yes"/>
      <point x="810.6315789473684" y="358.7894736842105"/>
      <point x="742.421052631579" y="227.57894736842107"/>
    </contour>
  </outline>
</glyph>
<glyph name="p" format="2">
  <advance width="1184.6315789473683"/>
  <unicode hex="0070"/>
  <outline>
    <contour>
      <point x="117.89473684210526" y="-393.2631578947368" type="curve"/>
      <point x="430.5263157894737" y="-384.0" type="line"/>
      <point x="430.5263157894737" y="-241.89473684210526"/>
      <point x="430.5263157894737" y="-118.47368421052632"/>
      <point x="430.5263157894737" y="30.368421052631575" type="curve"/>
      <point x="430.5263157894737" y="106.42105263157895" type="line"/>
      <point x="449.10526315789474" y="106.42105263157895" type="line"/>
      <point x="512.6842105263158" y="23.526315789473685"/>
      <point x="597.6842105263158" y="-27.210526315789473"/>
      <point x="717.3157894736842" y="-27.210526315789473" type="curve" smooth="yes"/>
      <point x="989.578947368421" y="-27.210526315789473"/>
      <point x="1115.8947368421052" y="222.6315789473684"/>
      <point x="1115.8947368421052" y="500.63157894736844" type="curve" smooth="yes"/>
      <point x="1115.8947368421052" y="797.2631578947369"/>
      <point x="978.1578947368421" y="1026.421052631579"/>
      <point x="714.6315789473684" y="1026.421052631579" type="curve" smooth="yes"/>
      <point x="585.6842105263158" y="1026.421052631579"/>
      <point x="488.68421052631584" y="971.5263157894736"/>
      <point x="429.36842105263156" y="876.578947368421" type="curve"/>
      <point x="404.2105263157895" y="876.578947368421" type="line"/>
      <point x="395.0" y="1013.7368421052631" type="line"/>
      <point x="117.89473684210526" y="998.5263157894736" type="line"/>
      <point x="117.89473684210526" y="838.6842105263158"/>
      <point x="117.89473684210526" y="684.0"/>
      <point x="117.89473684210526" y="531.4736842105264" type="curve"/>
      <point x="117.89473684210526" y="47.473684210526315" type="line"/>
      <point x="117.89473684210526" y="-118.47368421052632"/>
      <point x="117.89473684210526" y="-251.1578947368421"/>
    </contour>
    <contour>
      <point x="597.578947368421" y="238.10526315789474" type="curve"/>
      <point x="519.2105263157895" y="238.10526315789474"/>
      <point x="464.47368421052636" y="280.5263157894737"/>
      <point x="430.5263157894737" y="344.0526315789474" type="curve"/>
      <point x="430.5263157894737" y="673.2631578947369" type="line"/>
      <point x="468.42105263157896" y="726.7894736842105"/>
      <point x="530.6315789473684" y="757.1578947368421"/>
      <point x="596.2105263157895" y="757.1578947368421" type="curve"/>
      <point x="730.578947368421" y="757.1578947368421"/>
      <point x="796.0" y="638.7368421052631"/>
      <point x="796.0" y="498.0" type="curve" smooth="yes"/>
      <point x="796.0" y="364.63157894736844"/>
      <point x="732.6842105263158" y="238.10526315789474"/>
    </contour>
  </outline>
</glyph>
<glyph name="q" format="2">
  <advance width="1171.2105263157894"/>
  <unicode hex="0071"/>
  <outline>
    <contour>
      <point x="754.1052631578948" y="-393.2631578947368" type="curve"/>
      <point x="1066.7368421052631" y="-384.0" type="line"/>
      <point x="1066.7368421052631" y="-241.89473684210526"/>
      <point x="1066.7368421052631" y="-118.47368421052632"/>
      <point x="1066.7368421052631" y="47.473684210526315" type="curve"/>
      <point x="1066.7368421052631" y="531.4736842105264" type="line"/>
      <point x="1066.7368421052631" y="695.4736842105264"/>
      <point x="1066.7368421052631" y="848.578947368421"/>
      <point x="1066.7368421052631" y="1013.7368421052631" type="curve"/>
      <point x="789.6315789473684" y="998.5263157894736" type="line"/>
      <point x="780.421052631579" y="876.578947368421" type="line"/>
      <point x="755.2631578947369" y="876.578947368421" type="line"/>
      <point x="695.2631578947369" y="972.2105263157895"/>
      <point x="598.9473684210526" y="1026.421052631579"/>
      <point x="470.0" y="1026.421052631579" type="curve" smooth="yes"/>
      <point x="206.4736842105263" y="1026.421052631579"/>
      <point x="68.73684210526315" y="797.2631578947369"/>
      <point x="68.73684210526315" y="500.63157894736844" type="curve" smooth="yes"/>
      <point x="68.73684210526315" y="222.6315789473684"/>
      <point x="195.05263157894737" y="-27.210526315789473"/>
      <point x="467.3157894736842" y="-27.210526315789473" type="curve" smooth="yes"/>
      <point x="586.9473684210526" y="-27.210526315789473"/>
      <point x="671.2631578947369" y="23.526315789473685"/>
      <point x="735.5263157894736" y="107.10526315789474" type="curve"/>
      <point x="754.1052631578948" y="107.10526315789474" type="line"/>
      <point x="754.1052631578948" y="30.368421052631575" type="line"/>
      <point x="754.1052631578948" y="-118.47368421052632"/>
      <point x="754.1052631578948" y="-251.1578947368421"/>
    </contour>
    <contour>
      <point x="587.0526315789474" y="238.10526315789474" type="curve"/>
      <point x="451.9473684210526" y="238.10526315789474"/>
      <point x="388.63157894736844" y="364.63157894736844"/>
      <point x="388.63157894736844" y="498.0" type="curve" smooth="yes"/>
      <point x="388.63157894736844" y="638.7368421052631"/>
      <point x="454.0526315789474" y="757.1578947368421"/>
      <point x="588.421052631579" y="757.1578947368421" type="curve"/>
      <point x="654.0" y="757.1578947368421"/>
      <point x="716.2105263157895" y="726.7894736842105"/>
      <point x="754.1052631578948" y="673.2631578947369" type="curve"/>
      <point x="754.1052631578948" y="344.0526315789474" type="line"/>
      <point x="720.1578947368421" y="280.5263157894737"/>
      <point x="665.421052631579" y="238.10526315789474"/>
    </contour>
  </outline>
</glyph>
<glyph name="r" format="2">
  <advance width="828.0"/>
  <unicode hex="0072"/>
  <anchor x="274.2105263157895" y="0.0" name="bottom"/>
  <anchor x="470.57894736842104" y="998.5263157894736" name="top"/>
  <outline>
    <contour>
      <point x="117.89473684210526" y="0.0" type="curve"/>
      <point x="430.5263157894737" y="0.0" type="line"/>
      <point x="430.5263157894737" y="142.10526315789474"/>
      <point x="430.5263157894737" y="265.5263157894737"/>
      <point x="430.5263157894737" y="414.36842105263156" type="curve"/>
      <point x="430.5263157894737" y="557.9473684210526" type="line"/>
      <point x="476.47368421052636" y="685.0526315789473"/>
      <point x="558.2105263157895" y="711.1052631578947"/>
      <point x="632.2631578947369" y="711.1052631578947" type="curve" smooth="yes"/>
      <point x="679.578947368421" y="711.1052631578947"/>
      <point x="717.421052631579" y="708.3684210526316"/>
      <point x="769.8947368421053" y="704.2631578947369" type="curve"/>
      <point x="796.9473684210526" y="1007.7894736842105" type="line"/>
      <point x="762.9473684210526" y="1021.7368421052631"/>
      <point x="721.6842105263158" y="1026.421052631579"/>
      <point x="692.8421052631579" y="1026.421052631579" type="curve" smooth="yes"/>
      <point x="604.1052631578948" y="1026.421052631579"/>
      <point x="496.89473684210526" y="992.421052631579"/>
      <point x="419.47368421052636" y="832.578947368421" type="curve"/>
      <point x="393.6842105263158" y="832.578947368421" type="line"/>
      <point x="380.5263157894737" y="1013.7368421052631" type="line"/>
      <point x="117.89473684210526" y="998.5263157894736" type="line"/>
      <point x="117.89473684210526" y="838.6842105263158"/>
      <point x="117.89473684210526" y="684.0"/>
      <point x="117.89473684210526" y="531.4736842105264" type="curve"/>
      <point x="117.89473684210526" y="431.4736842105263" type="line"/>
      <point x="117.89473684210526" y="265.5263157894737"/>
      <point x="117.89473684210526" y="142.10526315789474"/>
    </contour>
  </outline>
</glyph>
<glyph name="s" format="2">
  <advance width="934.5436893203884"/>
  <unicode hex="0073"/>
  <anchor x="472.1165048543689" y="0.0" name="bottom"/>
  <anchor x="472.1165048543689" y="998.9514563106795" name="top"/>
  <outline>
    <contour>
      <point x="449.4757281553398" y="-26.95145631067961" type="curve" smooth="yes"/>
      <point x="753.3980582524273" y="-26.95145631067961"/>
      <point x="878.252427184466" y="104.52427184466019"/>
      <point x="878.252427184466" y="298.95145631067965" type="curve" smooth="yes"/>
      <point x="878.252427184466" y="468.19417475728153"/>
      <point x="783.5339805825244" y="525.0485436893205"/>
      <point x="565.7281553398059" y="583.7864077669904" type="curve" smooth="yes"/>
      <point x="432.07766990291265" y="619.6699029126213"/>
      <point x="404.50485436893206" y="646.7184466019418"/>
      <point x="404.50485436893206" y="697.126213592233" type="curve" smooth="yes"/>
      <point x="404.50485436893206" y="754.6796116504854"/>
      <point x="451.747572815534" y="778.2524271844659"/>
      <point x="514.4660194174758" y="778.2524271844659" type="curve"/>
      <point x="577.3009708737865" y="778.2524271844659"/>
      <point x="706.0388349514564" y="749.7281553398059"/>
      <point x="798.0388349514564" y="690.252427184466" type="curve"/>
      <point x="818.990291262136" y="955.378640776699" type="line"/>
      <point x="741.8252427184466" y="989.1650485436893"/>
      <point x="605.7087378640776" y="1025.1650485436894"/>
      <point x="454.2135922330097" y="1025.1650485436894" type="curve" smooth="yes"/>
      <point x="223.76699029126212" y="1025.1650485436894"/>
      <point x="83.55339805825241" y="906.73786407767"/>
      <point x="83.55339805825241" y="705.0485436893205" type="curve" smooth="yes"/>
      <point x="83.55339805825241" y="534.8543689320388"/>
      <point x="176.27184466019415" y="458.5242718446602"/>
      <point x="356.81553398058253" y="412.31067961165047" type="curve" smooth="yes"/>
      <point x="510.15533980582524" y="372.9514563106796"/>
      <point x="560.7766990291262" y="355.37864077669906"/>
      <point x="560.7766990291262" y="300.97087378640776" type="curve" smooth="yes"/>
      <point x="560.7766990291262" y="228.58252427184468"/>
      <point x="502.4854368932039" y="212.58252427184468"/>
      <point x="426.50485436893206" y="212.58252427184468" type="curve"/>
      <point x="317.88349514563106" y="212.58252427184468"/>
      <point x="191.98058252427182" y="248.7961165048544"/>
      <point x="103.45631067961165" y="303.747572815534" type="curve"/>
      <point x="84.50485436893203" y="40.83495145631068" type="line"/>
      <point x="168.50485436893203" y="2.3106796116504835"/>
      <point x="297.7669902912621" y="-26.95145631067961"/>
    </contour>
  </outline>
</glyph>
<glyph name="u" format="2">
  <advance width="1144.0526315789473"/>
  <unicode hex="0075"/>
  <anchor x="569.7368421052631" y="0.0" name="bottom"/>
  <anchor x="1036.421052631579" y="0.0" name="ogonek"/>
  <anchor x="569.7368421052631" y="998.5263157894736" name="top"/>
  <anchor x="1111.0" y="998.5263157894736" name="topright"/>
  <outline>
    <contour>
      <point x="405.0526315789474" y="-27.210526315789473" type="curve" smooth="yes"/>
      <point x="559.3684210526316" y="-27.210526315789473"/>
      <point x="666.2631578947369" y="59.263157894736835"/>
      <point x="734.1578947368421" y="157.73684210526315" type="curve"/>
      <point x="760.6315789473684" y="157.73684210526315" type="line"/>
      <point x="773.7894736842105" y="0.0" type="line"/>
      <point x="1036.421052631579" y="0.0" type="line"/>
      <point x="1036.421052631579" y="142.10526315789474"/>
      <point x="1036.421052631579" y="265.5263157894737"/>
      <point x="1036.421052631579" y="431.4736842105263" type="curve"/>
      <point x="1036.421052631579" y="544.6315789473684" type="line"/>
      <point x="1036.421052631579" y="731.6315789473684"/>
      <point x="1036.421052631579" y="856.421052631579"/>
      <point x="1036.421052631579" y="998.5263157894736" type="curve"/>
      <point x="723.7894736842105" y="998.5263157894736" type="line"/>
      <point x="723.7894736842105" y="856.421052631579"/>
      <point x="723.7894736842105" y="731.6315789473684"/>
      <point x="723.7894736842105" y="584.1052631578948" type="curve"/>
      <point x="723.7894736842105" y="373.6842105263158" type="line"/>
      <point x="678.5263157894736" y="306.0526315789474"/>
      <point x="617.7368421052631" y="251.26315789473685"/>
      <point x="539.9473684210526" y="251.26315789473685" type="curve" smooth="yes"/>
      <point x="444.7368421052632" y="251.26315789473685"/>
      <point x="413.68421052631584" y="309.1578947368421"/>
      <point x="413.68421052631584" y="420.89473684210526" type="curve"/>
      <point x="413.68421052631584" y="584.1052631578948" type="line"/>
      <point x="413.68421052631584" y="731.6315789473684"/>
      <point x="413.68421052631584" y="865.6842105263158"/>
      <point x="413.68421052631584" y="1007.7894736842105" type="curve"/>
      <point x="101.05263157894737" y="998.5263157894736" type="line"/>
      <point x="101.05263157894737" y="856.421052631579"/>
      <point x="101.05263157894737" y="744.7894736842105"/>
      <point x="101.05263157894737" y="544.6315789473684" type="curve"/>
      <point x="101.05263157894737" y="473.4736842105263"/>
      <point x="101.05263157894737" y="414.7894736842105"/>
      <point x="101.05263157894737" y="326.1578947368421" type="curve" smooth="yes"/>
      <point x="101.05263157894737" y="91.57894736842105"/>
      <point x="206.10526315789474" y="-27.210526315789473"/>
    </contour>
  </outline>
</glyph>
<glyph name="v" format="2">
  <advance width="1092.4736842105262"/>
  <unicode hex="0076"/>
  <outline>
    <contour>
      <point x="379.57894736842104" y="0.0" type="curve"/>
      <point x="714.8947368421053" y="0.0" type="line"/>
      <point x="758.9473684210527" y="125.3157894736842"/>
      <point x="802.3157894736842" y="249.94736842105263"/>
      <point x="846.3684210526316" y="375.2631578947368" type="curve"/>
      <point x="909.1052631578948" y="553.8947368421053" type="line"/>
      <point x="961.1578947368421" y="701.2105263157895"/>
      <point x="1013.8947368421052" y="851.2105263157895"/>
      <point x="1065.9473684210527" y="998.5263157894736" type="curve"/>
      <point x="733.5263157894736" y="998.5263157894736" type="line"/>
      <point x="700.3684210526316" y="870.421052631579"/>
      <point x="664.578947368421" y="735.7894736842105"/>
      <point x="628.7368421052631" y="597.1052631578948" type="curve"/>
      <point x="561.7894736842105" y="337.10526315789474" type="line"/>
      <point x="536.6315789473684" y="337.10526315789474" type="line"/>
      <point x="469.6842105263158" y="597.1052631578948" type="line"/>
      <point x="433.8421052631579" y="735.7894736842105"/>
      <point x="399.36842105263156" y="870.421052631579"/>
      <point x="364.2105263157895" y="1007.7894736842105" type="curve"/>
      <point x="26.526315789473685" y="998.5263157894736" type="line"/>
      <point x="78.57894736842104" y="851.8947368421053"/>
      <point x="131.31578947368422" y="701.8947368421053"/>
      <point x="183.36842105263156" y="555.2631578947369" type="curve"/>
      <point x="246.10526315789474" y="377.94736842105266" type="line"/>
      <point x="289.4736842105263" y="254.0"/>
      <point x="335.5263157894737" y="125.3157894736842"/>
    </contour>
  </outline>
</glyph>
<glyph name="w" format="2">
  <advance width="1667.157894736842"/>
  <unicode hex="0077"/>
  <anchor x="829.3684210526316" y="0.0" name="bottom"/>
  <anchor x="829.3684210526316" y="998.5263157894736" name="top"/>
  <outline>
    <contour>
      <point x="334.89473684210526" y="0.0" type="curve"/>
      <point x="669.5263157894738" y="0.0" type="line"/>
      <point x="697.2631578947369" y="116.84210526315789"/>
      <point x="728.3684210526316" y="244.42105263157893"/>
      <point x="755.421052631579" y="357.89473684210526" type="curve"/>
      <point x="808.8421052631579" y="580.1578947368421" type="line"/>
      <point x="831.3684210526316" y="580.1578947368421" type="line"/>
      <point x="886.1052631578947" y="360.57894736842104" type="line"/>
      <point x="915.1578947368421" y="247.10526315789474"/>
      <point x="948.2631578947369" y="116.84210526315789"/>
      <point x="977.3157894736842" y="0.0" type="curve"/>
      <point x="1326.4736842105262" y="0.0" type="line"/>
      <point x="1365.157894736842" y="123.3157894736842"/>
      <point x="1405.842105263158" y="252.6315789473684"/>
      <point x="1446.5263157894738" y="381.94736842105266" type="curve"/>
      <point x="1501.8947368421052" y="557.2631578947369" type="line"/>
      <point x="1548.578947368421" y="703.8947368421053"/>
      <point x="1593.9473684210527" y="849.8947368421053"/>
      <point x="1640.6315789473683" y="998.5263157894736" type="curve"/>
      <point x="1303.6315789473683" y="998.5263157894736" type="line"/>
      <point x="1277.2631578947369" y="877.9473684210526"/>
      <point x="1242.7894736842104" y="723.2105263157895"/>
      <point x="1213.0526315789473" y="588.578947368421" type="curve"/>
      <point x="1154.2631578947369" y="323.3157894736842" type="line"/>
      <point x="1131.1052631578948" y="323.3157894736842" type="line"/>
      <point x="1072.3157894736842" y="585.2631578947369" type="line"/>
      <point x="1042.578947368421" y="721.8947368421053"/>
      <point x="1010.1578947368421" y="865.8947368421053"/>
      <point x="980.421052631579" y="998.5263157894736" type="curve"/>
      <point x="690.0526315789474" y="998.5263157894736" type="line"/>
      <point x="659.6315789473684" y="859.8421052631579"/>
      <point x="628.578947368421" y="721.8421052631579"/>
      <point x="598.8421052631579" y="583.8947368421052" type="curve"/>
      <point x="541.421052631579" y="323.3157894736842" type="line"/>
      <point x="518.2631578947369" y="323.3157894736842" type="line"/>
      <point x="458.8421052631579" y="580.4736842105264" type="line"/>
      <point x="427.10526315789474" y="717.1052631578948"/>
      <point x="391.3157894736842" y="871.8421052631579"/>
      <point x="359.57894736842104" y="1007.7894736842105" type="curve"/>
      <point x="26.526315789473685" y="998.5263157894736" type="line"/>
      <point x="72.57894736842104" y="849.2105263157895"/>
      <point x="116.63157894736841" y="705.8947368421053"/>
      <point x="162.68421052631578" y="557.2631578947369" type="curve"/>
      <point x="217.42105263157896" y="379.94736842105266" type="line"/>
      <point x="257.4736842105263" y="251.94736842105263"/>
      <point x="296.8421052631579" y="125.3157894736842"/>
    </contour>
  </outline>
</glyph>
<glyph name="x" format="2">
  <advance width="1142.2105263157896"/>
  <unicode hex="0078"/>
  <outline>
    <contour>
      <point x="37.78947368421052" y="0.0" type="curve"/>
      <point x="381.5263157894737" y="0.0" type="line"/>
      <point x="417.36842105263156" y="76.94736842105263"/>
      <point x="442.42105263157896" y="129.21052631578948"/>
      <point x="478.2631578947369" y="206.1578947368421" type="curve"/>
      <point x="544.578947368421" y="348.7368421052631" type="line"/>
      <point x="565.1052631578948" y="348.7368421052631" type="line"/>
      <point x="640.1578947368421" y="198.1578947368421" type="line"/>
      <point x="676.6842105263158" y="125.84210526315789"/>
      <point x="703.0526315789474" y="72.3157894736842"/>
      <point x="739.578947368421" y="0.0" type="curve"/>
      <point x="1112.3157894736842" y="0.0" type="line"/>
      <point x="1025.4736842105262" y="133.89473684210526"/>
      <point x="972.6842105263158" y="215.8421052631579"/>
      <point x="909.2105263157895" y="313.10526315789474" type="curve"/>
      <point x="754.8947368421053" y="551.578947368421" type="line"/>
      <point x="771.3684210526316" y="485.42105263157896" type="line"/>
      <point x="909.6315789473684" y="702.0" type="line"/>
      <point x="974.421052631579" y="803.9473684210526"/>
      <point x="1014.4736842105264" y="866.578947368421"/>
      <point x="1098.6315789473683" y="998.5263157894736" type="curve"/>
      <point x="745.6842105263158" y="998.5263157894736" type="line"/>
      <point x="708.5263157894736" y="920.2631578947369"/>
      <point x="680.8421052631579" y="864.0526315789474"/>
      <point x="645.7368421052631" y="789.8421052631579" type="curve"/>
      <point x="579.5263157894736" y="653.3157894736842" type="line"/>
      <point x="557.0526315789474" y="653.3157894736842" type="line"/>
      <point x="488.2105263157895" y="791.7894736842105" type="line"/>
      <point x="451.7894736842105" y="866.0"/>
      <point x="421.47368421052636" y="928.7894736842105"/>
      <point x="381.63157894736844" y="1007.7894736842105" type="curve"/>
      <point x="33.315789473684205" y="998.5263157894736" type="line"/>
      <point x="110.21052631578947" y="873.2105263157895"/>
      <point x="155.6315789473684" y="797.9473684210526"/>
      <point x="217.15789473684208" y="697.9473684210526" type="curve"/>
      <point x="348.8421052631579" y="482.6842105263158" type="line"/>
      <point x="348.1578947368421" y="550.2105263157895" type="line"/>
      <point x="217.05263157894737" y="317.7368421052632" type="line"/>
      <point x="157.5263157894737" y="213.1578947368421"/>
      <point x="116.05263157894737" y="139.21052631578948"/>
    </contour>
  </outline>
</glyph>
<glyph name="y" format="2">
  <advance width="1104.421052631579"/>
  <unicode hex="0079"/>
  <anchor x="883.4736842105264" y="0.0" name="bottom"/>
  <anchor x="551.8947368421053" y="998.5263157894736" name="top"/>
  <outline>
    <contour>
      <point x="222.36842105263156" y="-393.2631578947368" type="curve"/>
      <point x="545.6315789473684" y="-384.0" type="line"/>
      <point x="601.0" y="-240.0"/>
      <point x="665.6842105263158" y="-72.73684210526315"/>
      <point x="763.7368421052631" y="181.26315789473685" type="curve"/>
      <point x="871.7894736842105" y="461.89473684210526" type="line"/>
      <point x="967.8421052631579" y="713.2105263157895"/>
      <point x="1016.5263157894738" y="836.5263157894736"/>
      <point x="1077.8947368421052" y="998.5263157894736" type="curve"/>
      <point x="742.8947368421052" y="998.5263157894736" type="line"/>
      <point x="705.0526315789474" y="861.2105263157895"/>
      <point x="669.2105263157895" y="729.2105263157895"/>
      <point x="631.3684210526316" y="590.5263157894738" type="curve"/>
      <point x="559.0526315789474" y="326.5789473684211" type="line"/>
      <point x="533.8947368421053" y="326.5789473684211" type="line"/>
      <point x="468.3157894736842" y="591.1578947368421" type="line"/>
      <point x="433.1578947368421" y="733.1578947368421"/>
      <point x="399.36842105263156" y="865.7894736842105"/>
      <point x="364.2105263157895" y="1007.7894736842105" type="curve"/>
      <point x="26.526315789473685" y="998.5263157894736" type="line"/>
      <point x="76.57894736842104" y="855.2105263157895"/>
      <point x="130.6315789473684" y="703.2105263157895"/>
      <point x="180.68421052631578" y="559.8947368421053" type="curve"/>
      <point x="243.42105263157896" y="379.89473684210526" type="line"/>
      <point x="290.7894736842105" y="246.57894736842104"/>
      <point x="340.8421052631579" y="104.57894736842105"/>
      <point x="388.89473684210526" y="-32.73684210526316" type="curve"/>
      <point x="388.89473684210526" y="24.894736842105267" type="line"/>
      <point x="335.57894736842104" y="-111.63157894736841"/>
      <point x="275.6842105263158" y="-256.7368421052632"/>
    </contour>
  </outline>
</glyph>
<glyph name="z" format="2">
  <advance width="1035.0526315789473"/>
  <unicode hex="007A"/>
  <guideline x="202.8684210526316" y="299.0" angle="232.7447"/>
  <guideline x="312.63157894736844" y="203.68421052631578" angle="52.34430000000003"/>
  <anchor x="514.8421052631579" y="0.0" name="bottom"/>
  <anchor x="514.8421052631579" y="499.2631578947368" name="center"/>
  <anchor x="514.8421052631579" y="998.5263157894736" name="top"/>
  <outline>
    <contour>
      <point x="61.68421052631579" y="0.0" type="line"/>
      <point x="976.1052631578948" y="0.0" type="line"/>
      <point x="976.1052631578948" y="229.6842105263158" type="line"/>
      <point x="861.0" y="229.6842105263158"/>
      <point x="705.7368421052631" y="229.6842105263158"/>
      <point x="612.0526315789474" y="229.6842105263158" type="curve"/>
      <point x="405.2631578947369" y="229.6842105263158" type="line"/>
      <point x="437.63157894736844" y="161.68421052631578" type="line"/>
      <point x="689.7368421052631" y="490.2631578947368" type="line"/>
      <point x="774.0526315789474" y="600.6842105263158"/>
      <point x="877.8421052631579" y="735.9473684210526"/>
      <point x="947.3684210526316" y="824.8947368421052" type="curve"/>
      <point x="947.3684210526316" y="998.5263157894736" type="line"/>
      <point x="70.89473684210526" y="998.5263157894736" type="line"/>
      <point x="70.89473684210526" y="767.5263157894736" type="line"/>
      <point x="196.68421052631578" y="767.5263157894736"/>
      <point x="356.57894736842104" y="767.5263157894736"/>
      <point x="449.57894736842104" y="767.5263157894736" type="curve"/>
      <point x="639.578947368421" y="767.5263157894736" type="line"/>
      <point x="599.2631578947369" y="852.2105263157895" type="line"/>
      <point x="334.6842105263158" y="504.57894736842104" type="line"/>
      <point x="252.42105263157896" y="395.57894736842104"/>
      <point x="158.05263157894737" y="272.42105263157896"/>
      <point x="61.68421052631579" y="145.94736842105266" type="curve"/>
    </contour>
  </outline>
</glyph>
<glyph name="braceleft" format="2">
  <advance width="899.2631578947369"/>
  <unicode hex="007B"/>
  <outline>
    <contour>
      <point x="648.9473684210526" y="-247.68421052631578" type="curve" smooth="yes"/>
      <point x="852.9473684210526" y="-247.68421052631578" type="line"/>
      <point x="852.9473684210526" y="0.47368421052632925" type="line"/>
      <point x="784.9473684210526" y="0.47368421052632925"/>
      <point x="731.6315789473684" y="0.47368421052632925"/>
      <point x="697.6315789473684" y="0.47368421052632925" type="curve"/>
      <point x="603.578947368421" y="0.47368421052632925"/>
      <point x="552.578947368421" y="49.36842105263159"/>
      <point x="552.578947368421" y="140.47368421052633" type="curve" smooth="yes"/>
      <point x="552.578947368421" y="353.36842105263156" type="line" smooth="yes"/>
      <point x="552.578947368421" y="508.05263157894734"/>
      <point x="490.57894736842104" y="586.8947368421052"/>
      <point x="365.1578947368421" y="639.3684210526316" type="curve"/>
      <point x="365.1578947368421" y="663.2105263157895" type="line"/>
      <point x="490.57894736842104" y="716.3157894736842"/>
      <point x="552.578947368421" y="790.578947368421"/>
      <point x="552.578947368421" y="948.5263157894736" type="curve" smooth="yes"/>
      <point x="552.578947368421" y="1162.1052631578948" type="line" smooth="yes"/>
      <point x="552.578947368421" y="1253.2105263157894"/>
      <point x="603.578947368421" y="1302.1052631578948"/>
      <point x="697.6315789473684" y="1302.1052631578948" type="curve"/>
      <point x="732.3157894736842" y="1302.1052631578948"/>
      <point x="785.0" y="1302.1052631578948"/>
      <point x="846.3684210526316" y="1302.1052631578948" type="curve"/>
      <point x="846.3684210526316" y="1550.2631578947369" type="line"/>
      <point x="648.9473684210526" y="1550.2631578947369" type="line" smooth="yes"/>
      <point x="411.7368421052632" y="1550.2631578947369"/>
      <point x="268.2105263157895" y="1431.3157894736842"/>
      <point x="268.2105263157895" y="1218.6842105263158" type="curve"/>
      <point x="268.2105263157895" y="1124.2631578947369"/>
      <point x="268.2105263157895" y="1031.157894736842"/>
      <point x="268.2105263157895" y="936.7368421052631" type="curve"/>
      <point x="268.2105263157895" y="816.2105263157895"/>
      <point x="201.68421052631578" y="761.5263157894736"/>
      <point x="112.84210526315789" y="761.5263157894736" type="curve" smooth="yes"/>
      <point x="33.15789473684211" y="761.5263157894736" type="line"/>
      <point x="33.15789473684211" y="540.3684210526316" type="line"/>
      <point x="112.84210526315789" y="540.3684210526316" type="line" smooth="yes"/>
      <point x="201.68421052631578" y="540.3684210526316"/>
      <point x="268.2105263157895" y="485.6842105263158"/>
      <point x="268.2105263157895" y="365.1578947368421" type="curve"/>
      <point x="268.2105263157895" y="270.7368421052632"/>
      <point x="268.2105263157895" y="178.31578947368422"/>
      <point x="268.2105263157895" y="83.89473684210526" type="curve"/>
      <point x="268.2105263157895" y="-128.73684210526315"/>
      <point x="411.7368421052632" y="-247.68421052631578"/>
    </contour>
  </outline>
</glyph>
<glyph name="cent" format="2">
  <advance width="967.1578947368421"/>
  <unicode hex="00A2"/>
  <outline>
    <contour>
      <point x="451.0" y="-274.0" type="curve"/>
      <point x="668.2105263157895" y="-274.0" type="line"/>
      <point x="668.2105263157895" y="-131.21052631578948"/>
      <point x="668.2105263157895" y="2.94736842105263"/>
      <point x="668.2105263157895" y="136.42105263157896" type="curve"/>
      <point x="451.0" y="136.42105263157896" type="line"/>
      <point x="451.0" y="4.26315789473685"/>
      <point x="451.0" y="-128.57894736842104"/>
    </contour>
    <contour>
      <point x="451.0" y="873.2105263157895" type="curve"/>
      <point x="668.2105263157895" y="873.2105263157895" type="line"/>
      <point x="668.2105263157895" y="995.4736842105264"/>
      <point x="668.2105263157895" y="1119.0526315789473"/>
      <point x="668.2105263157895" y="1252.578947368421" type="curve"/>
      <point x="451.0" y="1252.578947368421" type="line"/>
      <point x="451.0" y="1119.0526315789473"/>
      <point x="451.0" y="995.4736842105264"/>
    </contour>
    <contour>
      <point x="598.7894736842105" y="-21.94736842105263" type="curve" smooth="yes"/>
      <point x="734.6315789473684" y="-21.94736842105263"/>
      <point x="830.7368421052631" y="-0.4210526315789487"/>
      <point x="900.6315789473684" y="28.368421052631575" type="curve"/>
      <point x="885.3157894736842" y="297.68421052631584" type="line"/>
      <point x="819.0526315789474" y="254.21052631578948"/>
      <point x="745.421052631579" y="234.1578947368421"/>
      <point x="671.1578947368421" y="234.1578947368421" type="curve" smooth="yes"/>
      <point x="485.8421052631579" y="234.1578947368421"/>
      <point x="384.68421052631584" y="346.63157894736844"/>
      <point x="384.68421052631584" y="506.5263157894737" type="curve" smooth="yes"/>
      <point x="384.68421052631584" y="662.1052631578947"/>
      <point x="478.89473684210526" y="761.1052631578947"/>
      <point x="623.578947368421" y="761.1052631578947" type="curve"/>
      <point x="681.8947368421053" y="761.1052631578947"/>
      <point x="765.421052631579" y="749.6842105263158"/>
      <point x="879.3684210526316" y="684.3684210526316" type="curve"/>
      <point x="902.5263157894736" y="953.6842105263158" type="line"/>
      <point x="821.2631578947369" y="997.6842105263158"/>
      <point x="698.7368421052631" y="1025.1052631578948"/>
      <point x="579.4736842105264" y="1025.1052631578948" type="curve" smooth="yes"/>
      <point x="238.1578947368421" y="1025.1052631578948"/>
      <point x="66.10526315789474" y="800.4736842105264"/>
      <point x="66.10526315789474" y="497.3157894736842" type="curve" smooth="yes"/>
      <point x="66.10526315789474" y="196.1578947368421"/>
      <point x="257.2105263157895" y="-21.94736842105263"/>
    </contour>
  </outline>
</glyph>
<glyph name="sterling" format="2">
  <advance width="1215.8947368421052"/>
  <unicode hex="00A3"/>
  <outline>
    <contour>
      <point x="97.36842105263158" y="0.0" type="line"/>
      <point x="1152.4736842105262" y="0.0" type="line"/>
      <point x="1152.4736842105262" y="283.68421052631584" type="line"/>
      <point x="990.2631578947369" y="283.68421052631584"/>
      <point x="848.7368421052631" y="283.68421052631584"/>
      <point x="605.1052631578948" y="283.68421052631584" type="curve"/>
      <point x="336.7368421052632" y="283.68421052631584" type="line"/>
      <point x="359.89473684210526" y="231.21052631578948" type="line"/>
      <point x="535.421052631579" y="343.47368421052636"/>
      <point x="573.3157894736842" y="452.42105263157896"/>
      <point x="573.3157894736842" y="584.0526315789474" type="curve" smooth="yes"/>
      <point x="573.3157894736842" y="864.6842105263158" type="line" smooth="yes"/>
      <point x="573.3157894736842" y="1044.7368421052631"/>
      <point x="655.1052631578948" y="1129.3157894736842"/>
      <point x="804.9473684210526" y="1129.3157894736842" type="curve"/>
      <point x="867.2105263157895" y="1129.3157894736842"/>
      <point x="954.6842105263158" y="1119.2105263157894"/>
      <point x="1075.2105263157896" y="1057.842105263158" type="curve"/>
      <point x="1103.6315789473683" y="1333.7368421052631" type="line"/>
      <point x="1023.6842105263158" y="1377.7368421052631"/>
      <point x="899.8421052631579" y="1405.157894736842"/>
      <point x="777.9473684210526" y="1405.157894736842" type="curve" smooth="yes"/>
      <point x="416.10526315789474" y="1405.157894736842"/>
      <point x="242.89473684210526" y="1220.3157894736842"/>
      <point x="242.89473684210526" y="876.6315789473684" type="curve" smooth="yes"/>
      <point x="242.89473684210526" y="744.8947368421052"/>
      <point x="242.89473684210526" y="615.1578947368421"/>
      <point x="242.89473684210526" y="484.7368421052632" type="curve"/>
      <point x="242.89473684210526" y="375.7368421052632"/>
      <point x="217.5263157894737" y="264.7368421052632"/>
      <point x="97.36842105263158" y="167.10526315789474" type="curve"/>
    </contour>
    <contour>
      <point x="101.73684210526315" y="623.5263157894736" type="line"/>
      <point x="240.10526315789474" y="623.5263157894736"/>
      <point x="371.1578947368421" y="623.5263157894736"/>
      <point x="484.89473684210526" y="623.5263157894736" type="curve"/>
      <point x="563.3157894736842" y="623.5263157894736" type="line"/>
      <point x="677.0526315789474" y="623.5263157894736"/>
      <point x="808.1052631578948" y="623.5263157894736"/>
      <point x="946.4736842105264" y="623.5263157894736" type="curve"/>
      <point x="946.4736842105264" y="840.0526315789474" type="line"/>
      <point x="808.1052631578948" y="840.0526315789474"/>
      <point x="677.0526315789474" y="840.0526315789474"/>
      <point x="563.3157894736842" y="840.0526315789474" type="curve"/>
      <point x="484.89473684210526" y="840.0526315789474" type="line"/>
      <point x="371.1578947368421" y="840.0526315789474"/>
      <point x="240.10526315789474" y="840.0526315789474"/>
      <point x="101.73684210526315" y="840.0526315789474" type="curve"/>
    </contour>
  </outline>
</glyph>
<glyph name="currency" format="2">
  <advance width="1310.5263157894738"/>
  <unicode hex="00A4"/>
  <outline>
    <contour>
      <point x="652.578947368421" y="190.26315789473682" type="curve" smooth="yes"/>
      <point x="930.421052631579" y="190.26315789473682"/>
      <point x="1126.6315789473683" y="348.7894736842105"/>
      <point x="1126.6315789473683" y="642.6315789473684" type="curve" smooth="yes"/>
      <point x="1126.6315789473683" y="905.4736842105264"/>
      <point x="931.1052631578948" y="1090.421052631579"/>
      <point x="656.578947368421" y="1090.421052631579" type="curve" smooth="yes"/>
      <point x="378.05263157894734" y="1090.421052631579"/>
      <point x="182.5263157894737" y="911.3684210526316"/>
      <point x="182.5263157894737" y="642.6315789473684" type="curve" smooth="yes"/>
      <point x="182.5263157894737" y="350.10526315789474"/>
      <point x="378.05263157894734" y="190.26315789473682"/>
    </contour>
    <contour>
      <point x="254.0" y="43.4736842105263" type="line"/>
      <point x="351.7894736842105" y="141.26315789473682"/>
      <point x="444.2631578947369" y="233.73684210526315"/>
      <point x="524.7368421052631" y="314.2105263157895" type="curve"/>
      <point x="328.7894736842105" y="510.1578947368421" type="line"/>
      <point x="248.31578947368422" y="429.6842105263158"/>
      <point x="155.8421052631579" y="337.2105263157895"/>
      <point x="58.05263157894736" y="239.42105263157896" type="curve"/>
    </contour>
    <contour>
      <point x="653.8947368421053" y="443.7368421052632" type="curve"/>
      <point x="542.421052631579" y="443.7368421052632"/>
      <point x="459.68421052631584" y="509.5263157894737"/>
      <point x="459.68421052631584" y="641.3157894736842" type="curve" smooth="yes"/>
      <point x="459.68421052631584" y="761.1052631578947"/>
      <point x="543.1052631578948" y="838.2631578947369"/>
      <point x="655.2631578947369" y="838.2631578947369" type="curve"/>
      <point x="768.0526315789474" y="838.2631578947369"/>
      <point x="849.4736842105264" y="758.4736842105264"/>
      <point x="849.4736842105264" y="641.3157894736842" type="curve" smooth="yes"/>
      <point x="849.4736842105264" y="509.5263157894737"/>
      <point x="766.7368421052631" y="443.7368421052632"/>
    </contour>
    <contour>
      <point x="331.42105263157896" y="773.8421052631579" type="curve"/>
      <point x="522.1052631578948" y="964.5263157894736" type="line"/>
      <point x="441.63157894736844" y="1045.0"/>
      <point x="349.1578947368421" y="1137.4736842105262"/>
      <point x="251.3684210526316" y="1235.2631578947369" type="curve"/>
      <point x="60.68421052631579" y="1044.578947368421" type="line"/>
      <point x="158.4736842105263" y="946.7894736842105"/>
      <point x="250.94736842105263" y="854.3157894736842"/>
    </contour>
    <contour>
      <point x="1059.157894736842" y="46.105263157894726" type="curve"/>
      <point x="1249.842105263158" y="236.78947368421052" type="line"/>
      <point x="1152.0526315789473" y="334.57894736842104"/>
      <point x="1059.578947368421" y="427.0526315789474"/>
      <point x="979.1052631578948" y="507.5263157894737" type="curve"/>
      <point x="788.421052631579" y="316.8421052631579" type="line"/>
      <point x="868.8947368421052" y="236.36842105263156"/>
      <point x="961.3684210526316" y="143.89473684210526"/>
    </contour>
    <contour>
      <point x="981.7368421052631" y="771.2105263157895" type="line"/>
      <point x="1062.2105263157896" y="851.6842105263158"/>
      <point x="1154.6842105263158" y="944.1578947368421"/>
      <point x="1252.4736842105262" y="1041.9473684210527" type="curve"/>
      <point x="1056.5263157894738" y="1237.8947368421052" type="line"/>
      <point x="958.7368421052631" y="1140.1052631578948"/>
      <point x="866.2631578947369" y="1047.6315789473683"/>
      <point x="785.7894736842105" y="967.1578947368421" type="curve"/>
    </contour>
  </outline>
</glyph>
<glyph name="yen" format="2">
  <advance width="1306.0"/>
  <unicode hex="00A5"/>
  <outline>
    <contour>
      <point x="497.6842105263158" y="486.52631578947364" type="line"/>
      <point x="813.578947368421" y="486.52631578947364" type="line"/>
      <point x="1088.6842105263158" y="1027.0526315789473" type="line"/>
      <point x="1146.1052631578948" y="1140.2105263157894"/>
      <point x="1208.8947368421052" y="1262.7368421052631"/>
      <point x="1266.3157894736842" y="1375.8947368421052" type="curve"/>
      <point x="904.1578947368421" y="1375.8947368421052" type="line"/>
      <point x="839.3157894736842" y="1224.578947368421"/>
      <point x="806.8947368421052" y="1149.578947368421"/>
      <point x="755.578947368421" y="1029.1052631578948" type="curve"/>
      <point x="669.8421052631579" y="828.3157894736842" type="line"/>
      <point x="642.0526315789474" y="828.3157894736842" type="line"/>
      <point x="559.6315789473684" y="1027.1052631578948" type="line"/>
      <point x="508.94736842105266" y="1147.6315789473683"/>
      <point x="479.2105263157895" y="1217.9473684210527"/>
      <point x="413.68421052631584" y="1375.8947368421052" type="curve"/>
      <point x="39.68421052631579" y="1375.8947368421052" type="line"/>
      <point x="130.4736842105263" y="1198.842105263158"/>
      <point x="167.21052631578948" y="1127.578947368421"/>
      <point x="219.94736842105263" y="1025.7368421052631" type="curve"/>
    </contour>
    <contour>
      <point x="491.7368421052631" y="0.0" type="curve"/>
      <point x="820.8421052631579" y="0.0" type="line"/>
      <point x="820.8421052631579" y="146.78947368421052"/>
      <point x="820.8421052631579" y="274.2105263157895"/>
      <point x="820.8421052631579" y="445.4736842105263" type="curve"/>
      <point x="820.8421052631579" y="754.9473684210526" type="line"/>
      <point x="491.7368421052631" y="754.9473684210526" type="line"/>
      <point x="491.7368421052631" y="445.4736842105263" type="line"/>
      <point x="491.7368421052631" y="274.2105263157895"/>
      <point x="491.7368421052631" y="146.78947368421052"/>
    </contour>
    <contour>
      <point x="139.78947368421052" y="235.73684210526315" type="line"/>
      <point x="278.1578947368421" y="235.73684210526315"/>
      <point x="409.2105263157895" y="235.73684210526315"/>
      <point x="522.9473684210526" y="235.73684210526315" type="curve"/>
      <point x="787.6842105263158" y="235.73684210526315" type="line"/>
      <point x="901.421052631579" y="235.73684210526315"/>
      <point x="1032.4736842105262" y="235.73684210526315"/>
      <point x="1170.842105263158" y="235.73684210526315" type="curve"/>
      <point x="1170.842105263158" y="425.94736842105266" type="line"/>
      <point x="1032.4736842105262" y="425.94736842105266"/>
      <point x="901.421052631579" y="425.94736842105266"/>
      <point x="787.6842105263158" y="425.94736842105266" type="curve"/>
      <point x="522.9473684210526" y="425.94736842105266" type="line"/>
      <point x="409.2105263157895" y="425.94736842105266"/>
      <point x="278.1578947368421" y="425.94736842105266"/>
      <point x="139.78947368421052" y="425.94736842105266" type="curve"/>
    </contour>
    <contour>
      <point x="139.78947368421052" y="560.2105263157895" type="line"/>
      <point x="278.1578947368421" y="560.2105263157895"/>
      <point x="409.2105263157895" y="560.2105263157895"/>
      <point x="522.9473684210526" y="560.2105263157895" type="curve"/>
      <point x="787.6842105263158" y="560.2105263157895" type="line"/>
      <point x="901.421052631579" y="560.2105263157895"/>
      <point x="1032.4736842105262" y="560.2105263157895"/>
      <point x="1170.842105263158" y="560.2105263157895" type="curve"/>
      <point x="1170.842105263158" y="750.421052631579" type="line"/>
      <point x="1032.4736842105262" y="750.421052631579"/>
      <point x="901.421052631579" y="750.421052631579"/>
      <point x="787.6842105263158" y="750.421052631579" type="curve"/>
      <point x="522.9473684210526" y="750.421052631579" type="line"/>
      <point x="409.2105263157895" y="750.421052631579"/>
      <point x="278.1578947368421" y="750.421052631579"/>
      <point x="139.78947368421052" y="750.421052631579" type="curve"/>
    </contour>
  </outline>
</glyph>
<glyph name="brokenbar" format="2">
  <advance width="568.421052631579"/>
  <unicode hex="00A6"/>
  <outline>
    <contour>
      <point x="148.94736842105263" y="718.8421052631579" type="line"/>
      <point x="419.47368421052636" y="718.8421052631579" type="line"/>
      <point x="419.47368421052636" y="900.8421052631579" type="line"/>
      <point x="419.47368421052636" y="1116.842105263158"/>
      <point x="419.47368421052636" y="1322.842105263158"/>
      <point x="419.47368421052636" y="1558.842105263158" type="curve"/>
      <point x="148.94736842105263" y="1558.842105263158" type="line"/>
      <point x="148.94736842105263" y="1322.842105263158"/>
      <point x="148.94736842105263" y="1116.842105263158"/>
      <point x="148.94736842105263" y="900.8421052631579" type="curve"/>
    </contour>
    <contour>
      <point x="148.94736842105263" y="-321.1578947368421" type="curve"/>
      <point x="419.47368421052636" y="-321.1578947368421" type="line"/>
      <point x="419.47368421052636" y="-85.15789473684211"/>
      <point x="419.47368421052636" y="120.84210526315789"/>
      <point x="419.47368421052636" y="336.8421052631579" type="curve"/>
      <point x="419.47368421052636" y="518.8421052631579" type="line"/>
      <point x="148.94736842105263" y="518.8421052631579" type="line"/>
      <point x="148.94736842105263" y="336.8421052631579" type="line"/>
      <point x="148.94736842105263" y="120.84210526315789"/>
      <point x="148.94736842105263" y="-85.15789473684211"/>
    </contour>
  </outline>
</glyph>
<glyph name="section" format="2">
  <advance width="1167.106796116505"/>
  <unicode hex="00A7"/>
  <outline>
    <contour>
      <point x="496.2135922330097" y="-261.90291262135923" type="curve" smooth="yes"/>
      <point x="834.3495145631068" y="-261.90291262135923"/>
      <point x="977.9417475728155" y="-116.85436893203882"/>
      <point x="977.9417475728155" y="95.47572815533981" type="curve" smooth="yes"/>
      <point x="977.9417475728155" y="298.73786407766994"/>
      <point x="859.0097087378641" y="379.0679611650486"/>
      <point x="601.4174757281554" y="451.06796116504853" type="curve" smooth="yes"/>
      <point x="443.6504854368932" y="495.16504854368935"/>
      <point x="387.4563106796117" y="538.7378640776699"/>
      <point x="387.4563106796117" y="623.7669902912621" type="curve" smooth="yes"/>
      <point x="387.4563106796117" y="704.4854368932039"/>
      <point x="452.3883495145631" y="762.8932038834952"/>
      <point x="519.5339805825244" y="774.6796116504854" type="curve"/>
      <point x="380.873786407767" y="955.2621359223301" type="line"/>
      <point x="177.2621359223301" y="908.0"/>
      <point x="66.50485436893203" y="772.5242718446601"/>
      <point x="66.50485436893203" y="612.4077669902913" type="curve" smooth="yes"/>
      <point x="66.50485436893203" y="436.71844660194176"/>
      <point x="174.60194174757282" y="338.2912621359223"/>
      <point x="393.7669902912621" y="275.24271844660194" type="curve" smooth="yes"/>
      <point x="596.0582524271845" y="216.09708737864077"/>
      <point x="660.4660194174758" y="191.0485436893204"/>
      <point x="660.4660194174758" y="107.06796116504854" type="curve" smooth="yes"/>
      <point x="660.4660194174758" y="9.631067961165066"/>
      <point x="576.1747572815534" y="-23.941747572815515"/>
      <point x="463.88349514563106" y="-23.941747572815515" type="curve"/>
      <point x="338.8349514563107" y="-23.941747572815515"/>
      <point x="191.66990291262135" y="19.533980582524293"/>
      <point x="83.14563106796118" y="87.0097087378641" type="curve"/>
      <point x="64.19417475728154" y="-174.85436893203882" type="line"/>
      <point x="162.93203883495144" y="-224.64077669902912"/>
      <point x="319.45631067961165" y="-261.90291262135923"/>
    </contour>
    <contour>
      <point x="812.3300970873787" y="247.5728155339806" type="line"/>
      <point x="1019.6310679611651" y="310.31067961165047"/>
      <point x="1111.4368932038835" y="440.9514563106796"/>
      <point x="1111.4368932038835" y="592.9514563106796" type="curve" smooth="yes"/>
      <point x="1111.4368932038835" y="773.6893203883495"/>
      <point x="992.5048543689321" y="855.4757281553398"/>
      <point x="734.9126213592234" y="927.4757281553398" type="curve" smooth="yes"/>
      <point x="577.1456310679612" y="971.5728155339806"/>
      <point x="520.9514563106796" y="1012.9320388349514"/>
      <point x="520.9514563106796" y="1084.388349514563" type="curve" smooth="yes"/>
      <point x="520.9514563106796" y="1183.8252427184466"/>
      <point x="616.6019417475728" y="1210.8737864077668"/>
      <point x="693.0097087378641" y="1210.8737864077668" type="curve"/>
      <point x="771.3203883495146" y="1210.8737864077668"/>
      <point x="903.4368932038835" y="1183.398058252427"/>
      <point x="1020.4854368932039" y="1106.8737864077668" type="curve"/>
      <point x="1040.1747572815534" y="1369.6893203883496" type="line"/>
      <point x="946.4854368932039" y="1413.4757281553398"/>
      <point x="793.6310679611651" y="1455.4757281553398"/>
      <point x="622.8737864077669" y="1455.4757281553398" type="curve" smooth="yes"/>
      <point x="354.6407766990292" y="1455.4757281553398"/>
      <point x="198.7378640776699" y="1315.7864077669901"/>
      <point x="198.7378640776699" y="1098.7184466019417" type="curve" smooth="yes"/>
      <point x="198.7378640776699" y="911.6699029126213"/>
      <point x="319.45631067961165" y="805.8640776699029"/>
      <point x="527.2621359223301" y="750.3883495145632" type="curve" smooth="yes"/>
      <point x="729.5533980582525" y="696.2912621359224"/>
      <point x="793.9611650485438" y="655.9805825242719"/>
      <point x="793.9611650485438" y="563.4757281553399" type="curve" smooth="yes"/>
      <point x="793.9611650485438" y="489.495145631068"/>
      <point x="739.1262135922331" y="426.56310679611653"/>
      <point x="657.0291262135922" y="408.99029126213594" type="curve"/>
    </contour>
  </outline>
</glyph>
<glyph name="copyright" format="2">
  <advance width="1602.7368421052631"/>
  <unicode hex="00A9"/>
  <outline>
    <contour>
      <point x="808.3684210526316" y="-27.210526315789473" type="curve" smooth="yes"/>
      <point x="1272.578947368421" y="-27.210526315789473"/>
      <point x="1530.1052631578948" y="277.42105263157896"/>
      <point x="1530.1052631578948" y="689.3157894736842" type="curve" smooth="yes"/>
      <point x="1530.1052631578948" y="1085.2631578947369"/>
      <point x="1285.8947368421052" y="1405.157894736842"/>
      <point x="799.1052631578947" y="1405.157894736842" type="curve" smooth="yes"/>
      <point x="319.0" y="1405.157894736842"/>
      <point x="72.63157894736841" y="1088.6315789473683"/>
      <point x="72.63157894736841" y="688.0" type="curve" smooth="yes"/>
      <point x="72.63157894736841" y="308.57894736842104"/>
      <point x="301.57894736842104" y="-27.210526315789473"/>
    </contour>
    <contour>
      <point x="831.578947368421" y="310.6842105263158" type="curve" smooth="yes"/>
      <point x="928.8421052631579" y="310.6842105263158"/>
      <point x="998.2631578947369" y="326.1578947368421"/>
      <point x="1049.5263157894738" y="347.57894736842104" type="curve"/>
      <point x="1037.5263157894738" y="545.1578947368421" type="line"/>
      <point x="989.3157894736842" y="514.3684210526316"/>
      <point x="937.1052631578948" y="499.0"/>
      <point x="882.8947368421053" y="499.0" type="curve"/>
      <point x="754.0526315789474" y="499.0"/>
      <point x="681.0" y="575.0"/>
      <point x="681.0" y="692.6315789473684" type="curve" smooth="yes"/>
      <point x="681.0" y="805.8421052631579"/>
      <point x="749.0" y="872.421052631579"/>
      <point x="848.5263157894736" y="872.421052631579" type="curve"/>
      <point x="890.1052631578947" y="872.421052631579"/>
      <point x="951.578947368421" y="864.3684210526316"/>
      <point x="1033.578947368421" y="815.6842105263158" type="curve"/>
      <point x="1050.7894736842106" y="1014.578947368421" type="line"/>
      <point x="992.1578947368421" y="1045.9473684210527"/>
      <point x="902.8947368421052" y="1066.0"/>
      <point x="816.9473684210526" y="1066.0" type="curve" smooth="yes"/>
      <point x="571.3684210526316" y="1066.0"/>
      <point x="446.63157894736844" y="903.3157894736842"/>
      <point x="446.63157894736844" y="686.0526315789474" type="curve" smooth="yes"/>
      <point x="446.63157894736844" y="468.7894736842105"/>
      <point x="585.1578947368421" y="310.6842105263158"/>
    </contour>
    <contour>
      <point x="807.0526315789474" y="143.3684210526316" type="curve"/>
      <point x="430.7894736842105" y="143.3684210526316"/>
      <point x="253.73684210526318" y="381.42105263157896"/>
      <point x="253.73684210526318" y="688.0" type="curve" smooth="yes"/>
      <point x="253.73684210526318" y="1005.0"/>
      <point x="440.10526315789474" y="1234.578947368421"/>
      <point x="800.421052631579" y="1234.578947368421" type="curve"/>
      <point x="1164.0526315789473" y="1234.578947368421"/>
      <point x="1349.0" y="1005.0526315789474"/>
      <point x="1349.0" y="689.3157894736842" type="curve" smooth="yes"/>
      <point x="1349.0" y="367.0"/>
      <point x="1156.7894736842104" y="143.3684210526316"/>
    </contour>
  </outline>
</glyph>
